<svg width="589" height="304" viewBox="0 0 589 304" fill="none" xmlns="http://www.w3.org/2000/svg">
<path d="M588.252 289.826C589.01 289.022 588.972 287.756 588.168 286.999L575.068 274.654C574.264 273.897 572.998 273.935 572.241 274.738C571.483 275.542 571.521 276.808 572.325 277.566L583.97 288.538L572.997 300.183C572.24 300.987 572.277 302.253 573.081 303.01C573.885 303.768 575.151 303.73 575.908 302.926L588.252 289.826ZM278.656 74.5556L278.116 76.4811L278.656 74.5556ZM0.287976 3.03391C34.0787 58.987 126.271 143.894 273.874 156.029L274.202 152.042C128.007 140.023 36.9078 55.9341 3.71202 0.966088L0.287976 3.03391ZM279.197 72.63L272.436 70.7317L271.355 74.5828L278.116 76.4811L279.197 72.63ZM219.19 105.751C227.575 146.592 266.013 194.357 328.868 231.062C391.81 267.817 479.483 293.644 586.856 290.453L586.737 286.455C480.07 289.625 393.144 263.964 330.885 227.607C268.54 191.201 231.174 144.233 223.108 104.946L219.19 105.751ZM272.436 70.7317C258.768 66.8937 244.136 68.344 233.536 74.3821C228.218 77.4114 223.87 81.625 221.232 86.9492C218.587 92.2898 217.726 98.6217 219.19 105.751L223.108 104.946C221.808 98.6134 222.6 93.199 224.817 88.7248C227.041 84.2342 230.764 80.5646 235.516 77.8578C245.056 72.4236 258.561 70.9904 271.355 74.5828L272.436 70.7317ZM273.874 156.029C289.097 157.281 300.923 153.86 309.102 147.523C317.291 141.179 321.646 132.045 322.124 122.264C323.08 102.693 308.599 80.8858 279.197 72.63L278.116 76.4811C306.077 84.3323 318.977 104.706 318.129 122.069C317.704 130.755 313.86 138.776 306.653 144.361C299.436 149.952 288.669 153.232 274.202 152.042L273.874 156.029Z" fill="#577BFA"/>
</svg>
