<svg width="591" height="167" viewBox="0 0 591 167" fill="none" xmlns="http://www.w3.org/2000/svg">
<path d="M13.001 165.677C13.7155 166.859 15.2525 167.237 16.434 166.523L35.6865 154.878C36.8679 154.164 37.2464 152.627 36.5318 151.445C35.8173 150.264 34.2803 149.886 33.0988 150.6L15.9855 160.951L5.63497 143.837C4.92041 142.656 3.38341 142.277 2.20198 142.992C1.02055 143.707 0.642074 145.244 1.35663 146.425L13.001 165.677ZM17.5676 164.981C17.9804 163.305 18.4062 161.653 18.845 160.024L14.0171 158.724C13.5687 160.388 13.1339 162.075 12.7127 163.786L17.5676 164.981ZM21.6314 150.53C22.6209 147.427 23.6618 144.417 24.7526 141.497L20.0688 139.747C18.9486 142.745 17.8812 145.832 16.8677 149.011L21.6314 150.53ZM28.5115 132.235C29.823 129.255 31.1925 126.379 32.618 123.606L28.1712 121.32C26.6984 124.185 25.2858 127.151 23.9349 130.222L28.5115 132.235ZM37.4469 114.948C39.1319 112.16 40.8815 109.489 42.6933 106.931L38.6129 104.041C36.7299 106.7 34.9142 109.472 33.1679 112.361L37.4469 114.948ZM48.6884 99.1379C50.7713 96.6451 52.9237 94.2757 55.1428 92.0245L51.5819 88.5145C49.2661 90.8639 47.0217 93.3347 44.8516 95.9319L48.6884 99.1379ZM62.2912 85.3687C64.7576 83.2632 67.2952 81.2804 69.9012 79.4146L66.9905 75.3491C64.2702 77.2968 61.6205 79.3671 59.0448 81.5659L62.2912 85.3687ZM78.033 74.0962C80.807 72.4426 83.6491 70.9023 86.5566 69.4697L84.3466 64.9846C81.3233 66.4743 78.3642 68.0779 75.4728 69.8014L78.033 74.0962ZM95.4565 65.4954C98.4399 64.2929 101.484 63.1889 104.586 62.1781L103.037 57.4241C99.8316 58.4686 96.6804 59.6113 93.5873 60.8579L95.4565 65.4954ZM114.018 59.4321C117.124 58.6299 120.281 57.9098 123.488 57.2672L122.505 52.3647C119.213 53.0245 115.967 53.7648 112.768 54.591L114.018 59.4321ZM133.201 55.5741C136.383 55.0985 139.608 54.6905 142.874 54.3458L142.349 49.3734C139.016 49.7253 135.719 50.1423 132.462 50.629L133.201 55.5741ZM152.719 53.5017C155.943 53.2863 159.202 53.1257 162.494 53.016L162.327 48.0188C158.983 48.1302 155.668 48.2935 152.386 48.5128L152.719 53.5017ZM172.396 52.836C175.637 52.824 178.907 52.8558 182.204 52.9279L182.313 47.929C178.976 47.8561 175.664 47.8238 172.377 47.836L172.396 52.836ZM192.127 53.2594C195.373 53.4036 198.641 53.5823 201.931 53.7923L202.25 48.8024C198.93 48.5906 195.629 48.4101 192.349 48.2643L192.127 53.2594ZM211.858 54.5121C215.103 54.7742 218.366 55.0628 221.646 55.3749L222.12 50.3974C218.818 50.0832 215.531 49.7925 212.261 49.5283L211.858 54.5121ZM231.534 56.3785C234.788 56.7283 238.057 57.0978 241.339 57.484L241.923 52.5183C238.626 52.1303 235.341 51.7589 232.068 51.4071L231.534 56.3785ZM251.187 58.686C254.451 59.0976 257.726 59.5227 261.01 59.9585L261.668 55.002C258.374 54.5649 255.088 54.1384 251.812 53.7253L251.187 58.686ZM270.832 61.2873C274.103 61.7375 277.382 62.1954 280.668 62.6584L281.365 57.7074C278.076 57.2438 274.791 56.7851 271.513 56.334L270.832 61.2873ZM290.48 64.0512C293.756 64.5185 297.035 64.9879 300.319 65.4572L301.026 60.5074C297.744 60.0385 294.463 59.5687 291.187 59.1013L290.48 64.0512ZM310.143 66.8559C313.42 67.32 316.699 67.781 319.978 68.2362L320.666 63.2837C317.392 62.8292 314.118 62.3689 310.844 61.9053L310.143 66.8559ZM329.831 69.584C333.116 70.0259 336.4 70.4593 339.682 70.8815L340.32 65.9224C337.049 65.5016 333.775 65.0694 330.498 64.6286L329.831 69.584ZM349.553 72.1165C352.853 72.5167 356.149 72.9027 359.439 73.2719L359.996 68.3031C356.722 67.9357 353.441 67.5514 350.155 67.1529L349.553 72.1165ZM369.319 74.329C372.639 74.6659 375.952 74.9827 379.256 75.2764L379.698 70.2961C376.416 70.0043 373.124 69.6895 369.824 69.3545L369.319 74.329ZM389.14 76.0858C392.482 76.3349 395.814 76.5572 399.133 76.7496L399.423 71.758C396.132 71.5672 392.828 71.3468 389.512 71.0996L389.14 76.0858ZM409.058 77.2344C412.409 77.3663 415.745 77.4642 419.066 77.5247L419.157 72.5255C415.874 72.4657 412.572 72.3689 409.254 72.2383L409.058 77.2344ZM429.027 77.5909C432.382 77.5729 435.718 77.5126 439.034 77.4067L438.875 72.4092C435.605 72.5137 432.313 72.5732 429 72.591L429.027 77.5909ZM449.012 76.9428C452.362 76.7364 455.689 76.4786 458.992 76.1655L458.52 71.1878C455.275 71.4954 452.003 71.7491 448.705 71.9522L449.012 76.9428ZM468.944 75.0409C472.274 74.6016 475.576 74.1003 478.848 73.533L477.994 68.6065C474.791 69.1617 471.556 69.6529 468.29 70.0838L468.944 75.0409ZM488.698 71.601C491.982 70.8793 495.231 70.084 498.445 69.2109L497.134 64.3859C494.002 65.2367 490.832 66.0127 487.625 66.7176L488.698 71.601ZM508.076 66.3201C511.269 65.267 514.422 64.1288 517.532 62.9009L515.696 58.2503C512.678 59.4419 509.615 60.5477 506.51 61.5717L508.076 66.3201ZM526.785 58.9181C529.824 57.4969 532.817 55.9803 535.761 54.3639L533.355 49.981C530.507 51.5444 527.611 53.0123 524.667 54.3889L526.785 58.9181ZM544.443 49.2112C547.255 47.4114 550.016 45.5097 552.723 43.5019L549.745 39.4856C547.13 41.4245 544.464 43.2613 541.748 45.0002L544.443 49.2112ZM560.638 37.1953C563.157 35.041 565.624 32.7834 568.035 30.4186L564.534 26.8487C562.204 29.134 559.821 31.3149 557.388 33.3954L560.638 37.1953ZM575.025 23.0868C577.217 20.6276 579.358 18.0681 581.445 15.4049L577.509 12.3212C575.487 14.9018 573.414 17.38 571.293 19.7592L575.025 23.0868ZM587.424 7.26953C588.394 5.863 589.351 4.43087 590.294 2.97277L586.095 0.257696C585.179 1.67457 584.25 3.0655 583.308 4.43091L587.424 7.26953Z" fill="#577BFA"/>
</svg>
