<svg width="87" height="44" viewBox="0 0 87 44" fill="none" xmlns="http://www.w3.org/2000/svg">
<g opacity="0.8">
<rect width="4" height="42" rx="2" transform="matrix(1 4.10766e-09 -0.00896008 0.99996 0.713379 1.13635)" fill="#303436"/>
<rect width="4" height="42" rx="2" transform="matrix(1 4.10766e-09 -0.00896008 0.99996 39.3516 1.42737)" fill="#303436"/>
<rect width="13" height="42" rx="6.5" transform="matrix(1 4.10766e-09 -0.00896008 0.99996 24.0586 1.07922)" fill="#303436"/>
<rect width="13" height="42" rx="6.5" transform="matrix(1 4.10766e-09 -0.00896008 0.99996 62.6968 1.37024)" fill="#303436"/>
<rect width="7" height="42" rx="3.5" transform="matrix(1 4.10766e-09 -0.00896008 0.99996 7.78076 0.904907)" fill="#303436"/>
<rect width="7" height="42" rx="3.5" transform="matrix(1 4.10766e-09 -0.00896008 0.99996 46.4189 1.1958)" fill="#303436"/>
<rect width="4" height="42" rx="2" transform="matrix(1 4.10766e-09 -0.00896008 0.99996 77.8162 0.733521)" fill="#303436"/>
<rect width="4" height="42" rx="2" transform="matrix(1 4.10766e-09 -0.00896008 0.99996 17.9761 1.13696)" fill="#303436"/>
<rect width="4" height="42" rx="2" transform="matrix(1 4.10766e-09 -0.00896008 0.99996 56.6143 1.42786)" fill="#303436"/>
<rect width="3" height="42" rx="1.5" transform="matrix(1 4.10766e-09 -0.00896008 0.99996 83.8987 0.675781)" fill="#303436"/>
</g>
</svg>
