<svg width="24" height="24" viewBox="0 0 24 24" fill="none" xmlns="http://www.w3.org/2000/svg">
<path fill-rule="evenodd" clip-rule="evenodd" d="M11.9376 1.11294C11.9376 0.560656 11.4883 0.108662 10.9378 0.153317C4.81273 0.650191 4.57764e-05 5.6714 4.57764e-05 11.7924C4.57764e-05 18.2427 5.34466 23.4718 11.9376 23.4718C17.9229 23.4718 22.8794 19.1621 23.7421 13.5415C23.83 12.9688 23.3661 12.4794 22.7868 12.4794C22.259 12.4794 21.8267 12.8886 21.7366 13.4086C20.949 17.9573 16.894 21.4718 11.9376 21.4718C6.40779 21.4718 2.00005 17.0972 2.00005 11.7924C2.00005 6.81115 5.88645 2.65011 10.9389 2.16099C11.4886 2.10778 11.9376 1.66523 11.9376 1.11294Z" fill="url(#paint0_linear_2786_1787)"/>
<defs>
<linearGradient id="paint0_linear_2786_1787" x1="1.65067" y1="11.5629" x2="23.7529" y2="11.5629" gradientUnits="userSpaceOnUse">
<stop stop-color="#577BFA"/>
<stop offset="1" stop-color="#A4DBF8" stop-opacity="0"/>
</linearGradient>
</defs>
</svg>
