<svg width="298" height="346" viewBox="0 0 298 346" fill="none" xmlns="http://www.w3.org/2000/svg">
<g clip-path="url(#clip0_2461_2464)">
<path d="M108.884 115.59C108.785 115.59 108.687 115.581 108.586 115.565C108.061 115.471 107.609 115.125 107.373 114.639L99.2007 97.7003C98.9853 97.2562 99.1703 96.7205 99.6153 96.5043C100.06 96.2882 100.592 96.4761 100.808 96.9202L108.912 113.715L122.438 100.656C122.792 100.313 123.359 100.325 123.701 100.68C124.042 101.037 124.033 101.603 123.677 101.946L110.029 115.123C109.713 115.426 109.307 115.59 108.884 115.59Z" fill="#303436"/>
<path d="M104.527 85.238C104.29 85.238 104.056 85.144 103.88 84.9607C103.541 84.6036 103.555 84.035 103.911 83.6943C104.377 83.2479 104.716 82.8931 105.061 82.5312C105.44 82.1341 105.829 81.7276 106.384 81.1966C106.74 80.8559 107.305 80.87 107.646 81.2295C107.986 81.5867 107.972 82.1553 107.614 82.496C107.082 83.0035 106.712 83.3912 106.349 83.7695C105.986 84.1501 105.63 84.5237 105.14 84.9913C104.969 85.1558 104.749 85.238 104.527 85.238Z" fill="#303436"/>
<path d="M112.441 77.691C112.205 77.691 111.971 77.597 111.795 77.4114C111.455 77.0519 111.469 76.4856 111.828 76.1449C115.845 72.315 121.902 66.5396 122.363 66.0391C122.647 65.6866 123.157 65.5997 123.544 65.8511C123.958 66.1213 124.075 66.6758 123.806 67.0894C123.689 67.2703 123.63 67.3596 113.055 77.4443C112.884 77.6087 112.662 77.691 112.441 77.691Z" fill="#303436"/>
<path d="M107.455 116.251C106.637 116.251 105.874 115.781 105.499 115.022L96.9684 97.7475C96.7506 97.3034 96.9309 96.7677 97.3713 96.5468C97.8139 96.3283 98.348 96.5092 98.5681 96.951L107.096 114.226C107.176 114.385 107.337 114.482 107.497 114.456L108.532 114.324C109.024 114.258 109.467 114.611 109.53 115.102C109.591 115.593 109.244 116.042 108.755 116.103L107.719 116.234C107.633 116.246 107.544 116.251 107.455 116.251Z" fill="#303436"/>
<path d="M102.355 85.0244C102.121 85.0244 101.889 84.9327 101.714 84.7518C101.372 84.397 101.379 83.8284 101.735 83.4854L104.442 80.8561C104.796 80.5131 105.363 80.5201 105.705 80.8773C106.047 81.2321 106.04 81.8007 105.684 82.1437L102.976 84.773C102.803 84.9398 102.58 85.0244 102.355 85.0244Z" fill="#303436"/>
<path d="M110.415 77.1928C110.181 77.1928 109.949 77.1012 109.773 76.9203C109.431 76.5655 109.438 75.9969 109.794 75.6538L119.023 66.6852C119.376 66.3422 119.943 66.3492 120.285 66.7064C120.627 67.0612 120.62 67.6298 120.264 67.9728L111.036 76.9414C110.862 77.1082 110.638 77.1928 110.415 77.1928Z" fill="#303436"/>
<path fill-rule="evenodd" clip-rule="evenodd" d="M139.543 120.781C139.543 120.781 149.214 120.236 156.325 117.98C163.038 115.87 171.283 108.582 171.283 108.582C171.283 108.582 162.614 121.364 155.168 124.921C148.12 128.33 139.693 126.843 139.693 126.843L139.543 120.781Z" fill="#303436"/>
<path fill-rule="evenodd" clip-rule="evenodd" d="M127.839 74.6432C127.862 72.7353 129.181 71.1634 130.497 71.3114C131.835 71.2715 132.983 72.928 132.961 74.8382C132.938 76.7462 131.619 78.3181 130.303 78.17C128.776 78.1888 127.628 76.53 127.839 74.6432Z" fill="#303436"/>
<path fill-rule="evenodd" clip-rule="evenodd" d="M151.346 74.5281C151.556 72.6413 152.875 71.0694 154.381 71.2386C155.885 71.4077 157.035 73.0666 156.822 74.9534C156.611 76.8401 155.292 78.412 153.786 78.2429C152.47 78.0948 151.322 76.436 151.346 74.5281Z" fill="#303436"/>
<path d="M141.907 121.495C139.482 121.495 137.29 121.077 135.646 120.008C132.732 118.001 129.144 114.07 127.094 110.649C122.714 103.26 121.283 96.0509 121.405 91.7652C121.382 88.7529 121.719 85.884 122.044 83.1091C122.237 81.4737 122.433 79.7844 122.553 78.0997C122.733 75.0639 122.747 72.249 122.761 69.2697L122.771 67.733C122.714 67.2608 122.721 66.7603 122.728 66.2293C122.733 65.8087 122.74 65.3528 122.714 64.8524C122.689 64.3589 123.066 63.936 123.558 63.9102C124.049 63.882 124.471 64.2626 124.497 64.756C124.527 65.3059 124.52 65.8087 124.513 66.2504C124.506 66.7556 124.501 67.1926 124.548 67.5521C124.551 67.5968 124.555 67.6367 124.558 67.6813L124.548 69.2767C124.532 72.2819 124.518 75.1203 124.335 78.2148C124.213 79.9512 124.012 81.6641 123.82 83.3182C123.501 86.0391 123.171 88.8516 123.194 91.784C123.084 95.6656 124.443 102.668 128.631 109.731C130.561 112.954 133.931 116.653 136.641 118.518C141.122 121.432 152.252 118.436 160.415 114.98C166.074 112.484 168.079 110.417 171.163 106.899C171.484 106.533 172.037 106.49 172.41 106.803C172.794 107.125 172.838 107.703 172.506 108.081C169.341 111.69 167.125 113.976 161.122 116.624C157.874 117.999 148.919 121.495 141.907 121.495Z" fill="#303436"/>
<path d="M179.698 97.2399C179.249 97.2399 178.865 96.9016 178.813 96.4434C178.757 95.9523 179.11 95.5083 179.6 95.4542C184.926 94.8551 188.231 92.6299 190.009 88.4546C191.143 85.7196 190.885 82.7285 189.348 80.8418C188.03 79.2229 185.926 78.5979 183.425 79.0889C182.938 79.1829 182.472 78.8657 182.378 78.3817C182.284 77.8953 182.598 77.4254 183.083 77.3314C186.261 76.7111 188.976 77.5546 190.733 79.7116C192.709 82.1411 193.063 85.7596 191.655 89.1548C189.627 93.9269 185.748 96.5679 179.801 97.2376C179.764 97.2376 179.731 97.2399 179.698 97.2399Z" fill="#303436"/>
<path d="M182.717 88.9784C182.551 88.9784 182.38 88.9314 182.23 88.8327C181.818 88.5625 181.701 88.0104 181.968 87.5968C182.01 87.531 183.048 85.9497 184.863 85.078C185.306 84.8642 185.842 85.0522 186.053 85.4986C186.266 85.945 186.079 86.4807 185.633 86.6946C184.284 87.3431 183.472 88.5625 183.462 88.5766C183.294 88.8374 183.008 88.9784 182.717 88.9784Z" fill="#303436"/>
<path d="M136.878 91.9226C136.599 91.9226 136.325 91.791 136.149 91.5467C133.158 87.3337 134.484 85.8629 136.534 84.3755C137.412 83.7364 138.321 83.0785 138.74 81.8661C139.707 78.9361 139.475 75.3459 138.068 71.5018C137.897 71.0366 138.136 70.5221 138.599 70.3529C139.058 70.1837 139.574 70.421 139.745 70.8862C141.293 75.1156 141.53 79.1123 140.431 82.4441C139.822 84.2017 138.578 85.1039 137.581 85.83C136.039 86.9484 135.402 87.4113 137.604 90.5105C137.89 90.9146 137.796 91.4738 137.395 91.7605C137.239 91.8686 137.058 91.9226 136.878 91.9226Z" fill="#303436"/>
<path d="M157.215 62.6082C157.035 62.6082 156.852 62.5542 156.693 62.439C156.532 62.3239 152.812 59.7299 147.505 61.7882C147.046 61.9667 146.528 61.7388 146.35 61.276C146.172 60.8154 146.401 60.2961 146.86 60.1176C153.112 57.688 157.555 60.853 157.74 60.9893C158.138 61.2807 158.227 61.8399 157.937 62.2417C157.764 62.479 157.492 62.6082 157.215 62.6082Z" fill="#303436"/>
<path d="M132.369 62.2911C132.217 62.2911 132.062 62.2512 131.921 62.169C127.94 59.8475 124.71 61.6215 124.677 61.6403C124.246 61.8823 123.702 61.7319 123.461 61.2996C123.22 60.8696 123.37 60.3221 123.801 60.0801C123.97 59.9861 127.963 57.7892 132.818 60.6182C133.245 60.8672 133.39 61.4147 133.142 61.8424C132.975 62.1314 132.676 62.2911 132.369 62.2911Z" fill="#303436"/>
<path d="M140.529 108.023C134.257 108.023 131.214 101.263 130.472 97.5879C130.413 97.2989 130.502 96.9981 130.706 96.7867C130.912 96.5752 131.21 96.4765 131.498 96.5282C131.54 96.5353 135.817 97.2636 140.422 97.4516C145.005 97.4516 149.695 96.5329 149.741 96.5235C150.034 96.4648 150.343 96.5587 150.554 96.7773C150.765 96.9934 150.852 97.3036 150.786 97.5996C150.695 98.0038 148.477 107.485 141.061 108.006C140.881 108.018 140.703 108.023 140.529 108.023ZM132.575 98.5043C133.39 101.058 135.744 106.535 140.946 106.218C145.539 105.894 147.804 100.96 148.645 98.5324C146.856 98.8168 143.652 99.242 140.422 99.242C140.405 99.242 140.386 99.242 140.37 99.242C137.196 99.1128 134.236 98.7439 132.575 98.5043Z" fill="#303436"/>
<path d="M177.227 78.0717C168.973 78.0717 162.087 68.9574 158.974 59.8079C158.276 57.8224 157.672 55.931 157.136 54.2604C155.447 48.9948 154.229 45.1884 152.112 44.3096C151.037 43.8655 149.575 44.1358 147.64 45.1367C147.202 45.3646 146.664 45.1907 146.436 44.7514C146.212 44.312 146.383 43.7716 146.821 43.5436C149.285 42.2678 151.184 41.9858 152.793 42.6531C155.679 43.8491 156.934 47.773 158.836 53.7105C159.368 55.3694 159.97 57.2491 160.661 59.2205C163.802 68.4499 170.887 77.6675 179.031 76.1074C179.52 76.0134 179.984 76.3329 180.076 76.8193C180.169 77.3057 179.851 77.7732 179.366 77.8672C178.644 78.0059 177.93 78.0717 177.227 78.0717Z" fill="#303436"/>
<path d="M110.349 71.7721C109.883 71.7721 109.492 71.4103 109.459 70.938C108.761 60.7687 113.839 42.4321 119.906 33.2098C122.44 28.7008 124.663 25.7074 127.815 24.8897C131.256 23.9992 135.308 25.8883 140.731 29.2295C141.15 29.4879 141.283 30.0401 141.023 30.4607C140.766 30.8836 140.215 31.0129 139.794 30.7544C133.938 27.1477 130.706 25.9893 128.26 26.6237C126.066 27.1923 124.15 29.3023 121.428 34.1449C115.5 43.1629 110.565 60.9591 111.239 70.8182C111.272 71.3116 110.902 71.7392 110.41 71.7745C110.392 71.7698 110.371 71.7721 110.349 71.7721Z" fill="#303436"/>
<path d="M115.484 69.6671C115.107 69.6671 114.758 69.4275 114.636 69.0492C114.484 68.5792 114.739 68.0741 115.207 67.919C115.613 67.7874 116.018 67.6676 116.423 67.5501C118.92 66.8217 121.278 66.1309 124.091 61.7817C126.822 57.4443 128.921 53.1374 131.146 48.5791C131.907 47.0189 132.68 45.4352 133.493 43.8187C134.093 42.6157 136.318 38.6565 139.67 38.2688C141.438 38.0621 143.113 38.8891 144.637 40.7242C144.954 41.1049 144.902 41.6688 144.523 41.986C144.143 42.3032 143.581 42.2515 143.265 41.8708C142.15 40.5292 141.014 39.9206 139.873 40.0475C137.918 40.2754 136.119 42.5593 135.086 44.6246C134.275 46.2365 133.507 47.8131 132.748 49.3662C130.502 53.9692 128.382 58.316 125.595 62.7451C122.414 67.6629 119.496 68.5158 116.922 69.2677C116.535 69.3805 116.147 69.4932 115.76 69.6201C115.669 69.6507 115.577 69.6671 115.484 69.6671Z" fill="#303436"/>
<path d="M84.7536 113.438C84.6177 113.438 84.4796 113.408 84.3507 113.342C83.9104 113.119 83.7347 112.578 83.9572 112.139C85.0792 109.916 85.8357 107.553 86.1425 105.304L86.8569 99.1221C86.9131 98.631 87.3558 98.2738 87.8477 98.3349C88.3372 98.3913 88.6885 98.8378 88.6323 99.3288L87.9156 105.53C87.5807 107.992 86.7632 110.551 85.5523 112.95C85.393 113.258 85.0792 113.438 84.7536 113.438Z" fill="#303436"/>
<path d="M91.518 88.9012C91.3283 88.9012 91.1362 88.8401 90.9746 88.7156C90.5835 88.4148 90.5085 87.8533 90.8083 87.4585C91.7546 86.2179 92.825 84.8645 93.893 83.5135C94.6285 82.583 95.3616 81.6525 96.0573 80.7597C96.7201 79.9068 97.4884 79.1337 98.3433 78.4594C99.3973 77.6276 100.13 77.0331 101.063 76.2601C102.245 75.2827 104.363 74.6459 105.888 74.8174C110.694 75.3508 111.945 75.6093 112.572 75.9006C113.085 76.1379 113.472 76.5162 113.783 76.817L118.344 81.2367C118.845 81.723 120.175 83.013 119.201 84.5873C118.791 85.2475 118.03 85.6704 117.163 85.7151C114.582 85.8561 111.952 84.9632 109.935 83.2715C109.492 82.9002 108.982 82.6723 108.462 82.6112C108.246 82.5854 105.073 82.0896 104.438 81.9909C103.951 81.9157 103.618 81.4575 103.693 80.9688C103.768 80.4801 104.225 80.1464 104.712 80.2216C106.206 80.4566 108.492 80.8114 108.67 80.8325C109.534 80.9336 110.368 81.3024 111.078 81.8993C112.753 83.302 114.933 84.0421 117.065 83.9294C117.346 83.9153 117.582 83.8048 117.683 83.6427C117.777 83.49 117.896 83.2996 117.102 82.529L112.542 78.1093C112.305 77.879 112.059 77.6417 111.821 77.5313C111.197 77.2423 108.218 76.8828 105.691 76.6032C104.642 76.4833 103.011 76.9744 102.201 77.6464C101.257 78.4288 100.515 79.028 99.4488 79.8715C98.7087 80.4566 98.0411 81.1262 97.4673 81.864C96.7693 82.7616 96.0315 83.6944 95.2937 84.6272C94.2303 85.9735 93.1693 87.3175 92.2277 88.5511C92.0521 88.7814 91.785 88.9012 91.518 88.9012Z" fill="#303436"/>
<path d="M63.7696 120.027C63.5635 120.027 63.3551 119.954 63.1841 119.809C62.8117 119.484 62.7718 118.918 63.0951 118.544C65.093 116.232 66.4304 113.761 67.6109 111.58C68.5408 109.86 69.4214 108.237 70.4942 106.909C71.1992 106.04 71.9323 105.191 72.642 104.374C75.0077 101.646 77.0548 99.423 79.034 97.2707C80.978 95.1584 82.9876 92.9756 85.2947 90.3181C85.3884 90.1654 85.5243 90.0432 85.6929 89.9704C88.6582 88.1259 91.6399 88.8003 94.2749 89.3947C95.4249 89.6555 96.5117 89.8999 97.479 89.9046C98.5869 89.9093 100.962 90.9478 105.061 92.7806C107.396 93.8238 110.045 95.008 112.324 95.8727C113.003 96.1311 113.521 96.7139 113.708 97.4305C113.898 98.1636 113.725 98.9437 113.245 99.517C112.603 100.281 111.357 101.126 109.071 100.802C108.883 100.776 108.694 100.751 108.506 100.727C107.764 100.631 106.996 100.534 106.227 100.285L99.6854 98.18C99.2545 98.0414 97.5095 98.1142 95.8207 98.1847C94.0758 98.2576 91.9045 98.3469 89.7426 98.2952C89.2484 98.2834 88.8596 97.8722 88.8713 97.3788C88.883 96.883 89.2859 96.4695 89.7848 96.5047C91.8858 96.5541 94.0266 96.4671 95.7458 96.3943C98.2098 96.2933 99.5285 96.2486 100.229 96.4742L106.771 98.5795C107.384 98.7768 108.038 98.8614 108.731 98.9507C108.926 98.9766 109.122 99.0001 109.317 99.0283C110.5 99.1951 111.364 98.9719 111.874 98.3633C112.031 98.1777 111.999 97.9662 111.975 97.8816C111.952 97.7876 111.881 97.6208 111.689 97.548C109.361 96.6645 106.689 95.4709 104.33 94.4159C101.482 93.1424 98.2543 91.6997 97.4673 91.695C96.3056 91.6903 95.1274 91.4225 93.879 91.1405C91.4782 90.5977 88.9955 90.0362 86.6532 91.4765C84.3227 94.1598 82.3014 96.3567 80.3433 98.4831C78.3734 100.624 76.3334 102.839 73.9864 105.546C73.2861 106.354 72.5624 107.189 71.8761 108.034C70.9064 109.233 70.0655 110.786 69.1755 112.431C67.9529 114.691 66.5662 117.252 64.4395 119.715C64.2685 119.924 64.0202 120.027 63.7696 120.027Z" fill="#303436"/>
<path d="M114.318 95.069C114.044 95.069 113.765 95.0408 113.486 94.9821C112.385 94.7471 109.806 93.5535 106.551 92.0168C105.234 91.3942 103.749 90.694 103.342 90.5553C102.775 90.5882 100.372 91.1944 98.3881 91.7584C97.9126 91.8946 97.4207 91.6174 97.2849 91.1404C97.149 90.6634 97.4254 90.17 97.9009 90.0337C102.902 88.6098 103.48 88.7414 103.696 88.7931C104.098 88.8871 105.007 89.3053 107.31 90.3932C109.657 91.4999 112.87 93.0178 113.856 93.2269C114.727 93.4125 115.522 93.0131 115.664 92.6677C115.758 92.4374 115.386 92.0967 115.041 91.8758C113.919 91.1568 112.875 90.459 111.891 89.8058C107.096 86.6173 103.923 84.505 100.63 85.1747C99.6857 85.513 90.3683 89.4299 89.169 90.2334C88.7592 90.5083 88.204 90.3979 87.93 89.9867C87.656 89.5755 87.766 89.0187 88.1759 88.7438C89.6656 87.7452 99.8098 83.5158 100.215 83.4312C104.251 82.5759 107.872 84.982 112.877 88.3138C113.854 88.9646 114.891 89.6554 116.004 90.3697C117.864 91.5657 117.48 92.9543 117.316 93.3514C116.887 94.397 115.657 95.069 114.318 95.069Z" fill="#303436"/>
<path d="M77.2373 132.301C76.9773 132.301 76.722 132.188 76.544 131.972C76.2325 131.589 76.2887 131.025 76.6705 130.713C77.5699 129.977 78.4553 129.324 79.4788 128.57C80.0316 128.163 80.6289 127.722 81.2917 127.221C82.8657 126.032 84.7981 125.318 86.8756 125.154C89.6207 124.937 91.279 124.122 94.2935 122.644L95.3475 122.127C96.6755 121.481 97.9872 120.724 99.2567 119.994C100.187 119.458 101.971 118.328 103.695 117.235C105.435 116.133 107.234 114.994 108.197 114.439C108.626 114.192 109.171 114.34 109.417 114.77C109.663 115.2 109.516 115.748 109.089 115.995C108.159 116.53 106.375 117.661 104.651 118.753C102.911 119.855 101.112 120.995 100.149 121.549C98.8538 122.296 97.514 123.069 96.1298 123.741L95.0805 124.254C91.977 125.776 90.1009 126.695 87.0185 126.939C85.2782 127.078 83.6714 127.67 82.3668 128.655C81.6969 129.16 81.095 129.604 80.5375 130.015C79.5327 130.757 78.6637 131.397 77.7995 132.104C77.6355 132.235 77.4341 132.301 77.2373 132.301Z" fill="#303436"/>
<path d="M105.908 76.5231C105.606 76.5231 105.314 76.3704 105.145 76.0931C104.887 75.6702 105.021 75.1204 105.442 74.8619C106.838 74.009 108.199 72.8365 109.642 71.5959C110.502 70.8558 111.389 70.0921 112.359 69.3285C113.139 68.7129 113.853 68.3346 114.746 68.0597C115.87 67.7143 116.983 67.7543 117.882 68.1701C118.329 68.3769 118.524 68.9103 118.318 69.3591C118.111 69.8078 117.58 70.0052 117.132 69.7961C116.634 69.5658 115.971 69.5564 115.268 69.7726C114.589 69.9817 114.066 70.259 113.462 70.7359C112.525 71.4761 111.649 72.228 110.804 72.954C109.305 74.2416 107.89 75.4611 106.372 76.3892C106.229 76.4808 106.068 76.5231 105.908 76.5231Z" fill="#303436"/>
<path d="M88.6698 114.735C88.3653 114.735 88.0679 114.578 87.9016 114.296C87.651 113.871 87.7915 113.321 88.2154 113.07C92.0567 110.788 96.706 110.562 99.0178 111.129C99.4535 110.964 100.182 110.656 100.84 110.379C101.751 109.994 102.611 109.632 103.039 109.493C103.51 109.345 104.011 109.604 104.161 110.074C104.311 110.546 104.051 111.049 103.583 111.199C103.229 111.312 102.327 111.693 101.531 112.029C100.615 112.414 99.7533 112.781 99.3223 112.917C99.1513 112.973 98.9663 112.973 98.7953 112.921C96.9684 112.372 92.6329 112.527 89.1242 114.611C88.9813 114.695 88.8268 114.735 88.6698 114.735Z" fill="#303436"/>
<path d="M102.047 84.7496C101.817 84.7496 101.588 84.6603 101.412 84.4841C101.065 84.1316 101.068 83.5654 101.417 83.2176C103.225 81.4201 103.712 80.7928 103.838 80.6048C104.115 80.196 104.67 80.0879 105.08 80.3675C105.487 80.6448 105.595 81.2016 105.316 81.6128C104.974 82.118 104.084 83.086 102.674 84.4911C102.501 84.6626 102.274 84.7496 102.047 84.7496Z" fill="#303436"/>
<path d="M138.358 135.68C138.278 135.68 138.196 135.668 138.117 135.647C137.641 135.513 137.365 135.02 137.496 134.543C138.686 130.269 139.021 126.3 138.651 120.842C138.618 120.349 138.988 119.921 139.48 119.888C139.981 119.855 140.398 120.229 140.431 120.72C140.815 126.397 140.464 130.542 139.215 135.025C139.107 135.422 138.749 135.68 138.358 135.68Z" fill="#303436"/>
<path d="M134.395 23.5176C134.13 23.5176 133.87 23.4001 133.695 23.1769C133.388 22.7892 133.453 22.2252 133.842 21.9174C142.258 15.2421 164.059 11.142 179.073 19.9132C179.499 20.1623 179.645 20.7097 179.396 21.1374C179.148 21.565 178.6 21.7083 178.176 21.4616C162.717 12.4319 141.82 17.8714 134.952 23.3225C134.784 23.4541 134.589 23.5176 134.395 23.5176Z" fill="#303436"/>
<path d="M222.495 150.643C222.481 150.643 222.465 150.643 222.451 150.643C221.959 150.619 221.579 150.199 221.603 149.703C221.807 145.537 219.568 139.235 216.731 131.258C214.541 125.1 212.061 118.119 210.112 110.429C207.435 99.8598 206.589 89.1596 205.774 78.8117C204.092 57.4958 202.502 37.3617 184.42 24.7041C184.017 24.4222 183.916 23.863 184.2 23.4565C184.483 23.05 185.038 22.9513 185.444 23.2356C204.217 36.3772 205.837 56.9224 207.554 78.6707C208.365 88.9434 209.203 99.5661 211.843 109.987C213.77 117.595 216.237 124.533 218.413 130.654C221.315 138.817 223.608 145.267 223.385 149.787C223.364 150.269 222.968 150.643 222.495 150.643Z" fill="#303436"/>
<path d="M181.424 205.429C181.188 205.429 180.951 205.335 180.778 205.15C180.438 204.79 180.452 204.224 180.811 203.883C180.972 203.728 184.753 200.02 182.921 195.429C181.942 192.976 180.586 191.254 178.867 189.071C176.911 186.587 174.475 183.495 171.828 178.223C171.301 177.172 170.87 176.115 170.542 175.081C170.027 173.451 169.561 172.067 169.146 170.833C166.851 164.026 166.078 161.733 167.329 148.711C169.006 131.251 170.795 124.754 175.112 109.059C176.234 104.977 177.506 100.351 179 94.7281C179.127 94.2511 179.614 93.9668 180.094 94.0937C180.57 94.2206 180.853 94.7117 180.726 95.191C179.23 100.821 177.958 105.452 176.834 109.536C172.545 125.125 170.77 131.578 169.107 148.883C167.891 161.521 168.636 163.723 170.84 170.257C171.259 171.5 171.73 172.896 172.248 174.541C172.545 175.485 172.941 176.453 173.426 177.417C175.99 182.527 178.265 185.413 180.27 187.96C182.008 190.166 183.507 192.069 184.582 194.762C186.87 200.497 182.242 204.995 182.043 205.182C181.867 205.347 181.645 205.429 181.424 205.429Z" fill="#303436"/>
<path d="M111.713 146.589C111.389 146.589 111.08 146.413 110.921 146.108C108.419 141.289 109.464 136.446 110.675 130.835C111.823 125.515 113.125 119.486 112.01 111.683C111.94 111.194 112.279 110.739 112.767 110.67C113.258 110.595 113.708 110.941 113.776 111.429C114.935 119.552 113.54 126.018 112.418 131.216C111.232 136.702 110.298 141.037 112.502 145.281C112.729 145.72 112.56 146.26 112.122 146.488C111.994 146.557 111.853 146.589 111.713 146.589Z" fill="#303436"/>
<path d="M52.6371 165.338C52.2905 165.338 51.9626 165.135 51.8174 164.795C51.623 164.341 51.8314 163.813 52.2858 163.618C68.0631 156.815 79.0341 149.9 87.0446 144.849C92.7807 141.233 96.9241 138.62 100.348 137.588C102.571 136.919 105.138 136.618 108.691 136.202L109.305 136.129C109.795 136.077 110.24 136.423 110.296 136.914C110.352 137.405 110.003 137.851 109.514 137.908L108.9 137.981C105.436 138.387 102.934 138.681 100.861 139.304C97.6689 140.265 93.6098 142.823 87.9932 146.364C79.9335 151.446 68.8946 158.406 52.9885 165.262C52.8737 165.316 52.7543 165.338 52.6371 165.338Z" fill="#303436"/>
<path d="M18.2998 208.747C13.0438 208.747 8.67089 207.01 5.3051 203.585C1.36078 199.569 -0.0422177 194.289 -5.74687e-05 191.905C0.135792 184.327 6.4809 174.618 9.20492 170.795C13.5872 164.642 30.4279 147.475 59.2608 119.771C60.6521 118.436 62.6875 118.1 64.4488 118.913C70.8712 121.888 77.3616 129.324 78.3383 134.829C78.4249 135.316 78.1017 135.781 77.6169 135.868C77.1297 135.955 76.6683 135.631 76.5816 135.144C75.7079 130.219 69.569 123.257 63.7017 120.541C62.6125 120.036 61.3547 120.243 60.4975 121.065C31.7442 148.692 14.9762 165.774 10.6594 171.836C5.19033 179.515 1.87373 187.029 1.78707 191.938C1.75428 193.704 2.88323 198.566 6.57693 202.325C9.59373 205.396 13.538 206.954 18.2998 206.954C18.3256 206.954 18.3513 206.954 18.3771 206.954C40.7782 206.877 55.0494 203.719 71.5739 200.06C77.6403 198.719 83.9151 197.33 90.9863 196.007C91.4688 195.915 91.9373 196.237 92.0286 196.724C92.12 197.21 91.7991 197.678 91.3142 197.769C84.2711 199.087 78.0127 200.471 71.9604 201.811C55.3352 205.49 40.9773 208.667 18.3841 208.744C18.356 208.747 18.3279 208.747 18.2998 208.747Z" fill="#303436"/>
<path d="M29.6009 195.547C29.3409 195.547 29.0832 195.434 28.9052 195.215C28.5961 194.83 28.6546 194.266 29.0387 193.956C37.5083 187.081 41.3402 180.626 45.7763 173.152C47.3011 170.586 48.8751 167.931 50.7255 165.121C50.9972 164.708 51.5523 164.592 51.9622 164.867C52.3744 165.14 52.4868 165.694 52.2151 166.108C50.3882 168.885 48.8236 171.522 47.3105 174.071C42.7877 181.693 38.8785 188.275 30.163 195.349C29.9967 195.481 29.8 195.547 29.6009 195.547Z" fill="#303436"/>
<path d="M51.4703 166.507C51.3087 166.507 51.1471 166.465 50.9996 166.373C50.5803 166.112 50.4515 165.56 50.7115 165.14C52.9272 161.559 58.2113 155.795 63.8069 149.693C69.1003 143.92 74.5718 137.95 76.7009 134.512C76.9609 134.092 77.5113 133.962 77.9306 134.223C78.3498 134.484 78.4786 135.036 78.2187 135.457C76.0029 139.038 70.7165 144.801 65.1232 150.903C59.8321 156.676 54.3583 162.644 52.2316 166.082C52.0606 166.357 51.7678 166.507 51.4703 166.507Z" fill="#303436"/>
<path d="M178.335 172.666C177.923 172.666 177.553 172.379 177.464 171.959C175.928 164.801 176.263 156.719 178.52 146.526C179.298 143.02 180.233 139.501 181.137 136.096C182.357 131.5 183.617 126.749 184.493 122.012C186.306 112.184 186.669 103.852 185.706 94.1524C185.657 93.659 186.016 93.222 186.507 93.1726C186.99 93.1256 187.435 93.4828 187.484 93.9738C188.463 103.852 188.095 112.334 186.25 122.336C185.362 127.141 184.093 131.928 182.863 136.554C181.964 139.94 181.034 143.443 180.265 146.911C178.066 156.846 177.731 164.684 179.211 171.58C179.314 172.064 179.008 172.541 178.527 172.645C178.462 172.661 178.399 172.666 178.335 172.666Z" fill="#303436"/>
<path d="M99.9595 375.349C100.105 345.299 107.97 292.105 111.083 289.474C111.46 289.154 111.509 288.59 111.19 288.212C110.872 287.834 110.31 287.787 109.933 288.104C105.796 291.6 98.3223 347.31 98.1724 375.349H99.9595Z" fill="#303436"/>
<path d="M234.127 375.349H235.931C233.527 357.364 230.836 341.544 227.927 328.323C227.822 327.841 227.346 327.536 226.864 327.642C226.381 327.747 226.079 328.227 226.185 328.708C229.068 341.824 231.738 357.515 234.127 375.349Z" fill="#303436"/>
<path d="M219.233 301.602C218.872 301.602 218.535 301.384 218.399 301.024C215.12 292.371 213.096 290.613 213.012 290.543C212.375 290.009 212.108 289.826 212.016 289.767C211.822 289.701 211.651 289.567 211.539 289.375C211.288 288.949 211.431 288.4 211.855 288.148C212.466 287.786 212.97 288.174 214.157 289.166C215.331 290.148 217.5 293.611 220.069 300.388C220.245 300.85 220.013 301.367 219.551 301.544C219.446 301.584 219.338 301.602 219.233 301.602ZM212.757 289.697C212.677 289.744 212.593 289.777 212.508 289.795C212.588 289.777 212.672 289.746 212.757 289.697Z" fill="#303436"/>
<path d="M112.893 112.451C112.441 112.451 112.055 112.111 112.005 111.65C111.954 111.159 112.31 110.717 112.799 110.666C114.98 110.435 119.695 109.03 121.623 108.152L121.733 108.102C122.494 107.757 123.445 107.325 123.461 106.794C123.464 106.711 123.45 106.582 123.297 106.42C123.026 106.131 122.485 105.922 121.981 105.91C121.021 105.891 120.33 106.049 119.159 106.418C118.69 106.566 118.187 106.305 118.039 105.833C117.891 105.36 118.151 104.857 118.622 104.709C119.932 104.296 120.817 104.089 122.023 104.12C123.012 104.143 123.995 104.554 124.595 105.191C125.04 105.666 125.265 106.239 125.244 106.855C125.188 108.499 123.55 109.242 122.466 109.735L122.358 109.785C120.276 110.734 115.355 112.198 112.984 112.449C112.956 112.449 112.924 112.451 112.893 112.451Z" fill="#303436"/>
<path d="M111.764 291.966C111.298 291.966 110.905 291.602 110.874 291.128L110.832 290.467C109.68 279.534 106.89 267.796 104.194 256.445C102.882 250.921 101.641 245.704 100.573 240.556C98.9382 232.671 96.8957 226.08 95.0946 220.267C93.1341 213.937 91.4407 208.474 90.6349 202.753C89.3795 193.848 91.4547 185.866 94.5957 173.786C95.8042 169.136 97.1745 163.866 98.5962 157.647C98.7063 157.165 99.1864 156.862 99.6666 156.975C100.147 157.085 100.447 157.567 100.336 158.049C98.91 164.294 97.5352 169.576 96.3219 174.24C93.2348 186.11 91.1947 193.953 92.401 202.504C93.188 208.079 94.8603 213.481 96.7974 219.736C98.6102 225.589 100.664 232.222 102.318 240.192C103.381 245.314 104.618 250.519 105.927 256.031C108.637 267.436 111.441 279.231 112.607 290.317L112.654 291.015C112.687 291.508 112.312 291.934 111.82 291.966C111.804 291.966 111.783 291.966 111.764 291.966Z" fill="#303436"/>
<path d="M148.42 303.656C134.599 303.656 120.623 300.844 111.146 291.718C110.488 291.083 110.293 290.463 110.087 289.807L110.001 289.537C109.848 289.067 110.104 288.562 110.572 288.409C111.043 288.254 111.544 288.513 111.699 288.985L111.79 289.274C111.977 289.871 112.064 290.125 112.38 290.43C132.79 310.082 175.55 299.239 189.601 295.674C190.082 295.55 190.564 295.844 190.686 296.323C190.808 296.802 190.517 297.291 190.039 297.411C182.162 299.406 165.406 303.656 148.42 303.656Z" fill="#303436"/>
<path d="M202.158 293.816C201.783 293.816 201.434 293.579 201.31 293.203C201.155 292.733 201.408 292.225 201.877 292.07C206.718 290.456 209.892 289.133 211.136 288.492L211.48 288.327C211.96 283.609 209.707 279.164 207.327 274.469C205.177 270.226 202.954 265.841 202.828 261.118C202.509 249.119 206.786 218.254 212.262 205.704C212.377 205.441 212.611 205.249 212.89 205.187C213.169 205.126 213.462 205.204 213.675 205.394C225.147 215.653 238.359 222.784 251.136 229.683C252.631 230.491 254.125 231.297 255.612 232.105C261.33 235.216 262.358 236.988 262.911 237.939C262.974 238.05 263.054 238.186 263.086 238.221C263.389 238.355 263.735 238.517 264.026 238.536C264.337 238.559 264.712 238.426 265.11 238.289C269.802 236.666 277.451 235.916 281.239 235.726C281.756 235.705 282.15 236.083 282.176 236.576C282.201 237.07 281.822 237.49 281.328 237.516C276.54 237.758 269.617 238.628 265.731 239.972C265.171 240.164 264.581 240.369 263.913 240.326C263.288 240.286 262.742 240.033 262.304 239.828C261.803 239.593 261.583 239.215 261.37 238.846C260.939 238.104 260.042 236.555 254.764 233.684C253.277 232.876 251.785 232.07 250.293 231.264C237.772 224.504 224.833 217.518 213.431 207.565C208.421 220.242 204.313 249.603 204.617 261.076C204.732 265.392 206.861 269.596 208.922 273.661C211.398 278.548 213.96 283.6 213.195 289.053C213.152 289.349 212.967 289.605 212.698 289.735L211.934 290.101C210.592 290.794 207.376 292.131 202.444 293.776C202.348 293.802 202.252 293.816 202.158 293.816Z" fill="#303436"/>
<path d="M141.939 145.259C141.764 145.259 141.583 145.208 141.429 145.097C135.92 141.232 136.351 131.444 136.662 129.677C136.845 128.643 137.367 128.173 137.773 127.961C138.651 127.503 139.576 127.91 139.679 127.959C140.127 128.168 140.321 128.699 140.112 129.148C139.906 129.592 139.382 129.787 138.937 129.587C138.831 129.543 138.656 129.517 138.597 129.55C138.567 129.566 138.475 129.677 138.421 129.989C138.157 131.483 137.777 140.349 142.452 143.629C142.855 143.913 142.954 144.47 142.673 144.876C142.497 145.125 142.22 145.259 141.939 145.259Z" fill="#303436"/>
<path d="M153.875 148.343C153.688 148.343 153.5 148.284 153.339 148.164C152.943 147.868 152.863 147.307 153.161 146.91C155.297 144.055 157.719 142.991 160.785 141.642L161.998 141.106C164.811 139.865 165.978 139.351 168.964 137.805C169.402 137.579 169.941 137.751 170.165 138.19C170.393 138.63 170.219 139.17 169.781 139.398C166.746 140.97 165.565 141.491 162.715 142.749L161.502 143.284C158.567 144.577 156.445 145.509 154.59 147.988C154.414 148.221 154.145 148.343 153.875 148.343Z" fill="#303436"/>
<path d="M132.161 133.875C131.816 133.875 131.486 133.673 131.341 133.335C131.144 132.882 131.355 132.353 131.807 132.158C133.009 131.636 134.964 130.241 137.175 128.323C137.55 128.001 138.112 128.041 138.435 128.415C138.759 128.789 138.717 129.355 138.344 129.679C136.662 131.136 134.287 133.034 132.517 133.803C132.4 133.852 132.28 133.875 132.161 133.875Z" fill="#303436"/>
<path d="M145.561 160.605C145.532 160.605 145.504 160.603 145.476 160.6C144.984 160.553 144.624 160.116 144.67 159.625C144.795 158.293 144.638 155.196 144.523 152.933C144.478 152.057 144.439 151.289 144.422 150.76C144.357 148.631 143.455 146.474 142.277 145.628C141.773 145.267 141.27 145.17 140.731 145.337C139.208 145.805 137.578 147.708 135.744 151.152C134.882 152.774 131.652 156.585 129.301 156.615C128.565 156.644 127.938 156.27 127.568 155.612C127.146 154.867 125.045 150.873 125.045 145.443C125.045 144.947 125.445 144.548 125.937 144.548C126.432 144.548 126.83 144.949 126.83 145.443C126.83 149.303 128.064 152.858 129.12 154.729C129.172 154.823 129.186 154.823 129.277 154.823C130.439 154.808 133.226 152.078 134.166 150.307C136.26 146.366 138.18 144.242 140.204 143.619C141.277 143.29 142.352 143.478 143.312 144.167C144.956 145.346 146.118 147.973 146.202 150.699C146.219 151.218 146.259 151.975 146.301 152.837C146.425 155.283 146.579 158.326 146.444 159.787C146.406 160.257 146.017 160.605 145.561 160.605Z" fill="#303436"/>
<path d="M143.408 303.393C142.949 303.393 142.558 303.041 142.52 302.575C139.11 262.798 134.959 244.051 132.212 231.642C130.354 223.249 129.127 217.704 129.404 210.719C129.818 200.288 134.683 187.967 138.972 177.093C141.853 169.795 144.338 163.493 144.67 159.63C144.712 159.137 145.141 158.773 145.638 158.815C146.129 158.857 146.492 159.292 146.45 159.785C146.097 163.911 143.565 170.326 140.635 177.753C136.606 187.96 131.594 200.664 131.191 210.789C130.921 217.54 132.064 222.702 133.957 231.252C136.714 243.705 140.881 262.523 144.3 302.42C144.342 302.914 143.979 303.348 143.487 303.391C143.457 303.393 143.431 303.393 143.408 303.393Z" fill="#303436"/>
<path d="M167.453 157.839C167.004 157.435 166.411 155.652 165.889 154.078C164.371 149.515 162.083 142.621 156.4 144.486C152.864 145.647 147.673 154.186 145.607 157.797C145.708 158.704 145.811 159.611 145.94 160.513C146.106 160.436 146.252 160.311 146.345 160.137C148.268 156.594 153.927 147.184 156.956 146.19C160.649 144.98 162.42 149.301 164.195 154.644C164.931 156.855 165.463 158.453 166.264 159.172C166.629 159.501 167.196 159.47 167.524 159.101C167.852 158.735 167.821 158.168 167.453 157.839Z" fill="#303436"/>
<path d="M212.227 153.211C210.644 153.211 209.075 152.689 207.613 151.667C204.819 149.715 202.722 146.092 202.273 142.44C201.891 139.339 202.268 136.228 202.636 133.223C202.922 130.885 203.217 128.467 203.135 126.12C203.118 125.626 203.502 125.21 203.997 125.194C204.491 125.17 204.903 125.563 204.919 126.059C205.006 128.544 204.704 131.033 204.409 133.441C204.039 136.475 203.69 139.339 204.046 142.222C204.437 145.394 206.24 148.526 208.634 150.201C209.716 150.958 211.438 151.757 213.501 151.273C213.977 151.16 214.462 151.458 214.574 151.94C214.687 152.422 214.389 152.903 213.909 153.016C213.349 153.145 212.787 153.211 212.227 153.211Z" fill="#303436"/>
<path d="M198.014 188.035C197.829 188.035 197.644 187.979 197.483 187.859C192.775 184.362 195.412 179.445 197.963 174.691C199.469 171.884 201.027 168.979 201.315 166.186C201.858 160.932 201.099 156.075 199.122 152.137C198.9 151.695 199.078 151.157 199.518 150.934C199.959 150.711 200.495 150.889 200.717 151.331C202.849 155.575 203.669 160.774 203.09 166.371C202.765 169.517 201.123 172.579 199.535 175.54C196.773 180.69 195.248 183.97 198.546 186.418C198.942 186.712 199.026 187.274 198.734 187.671C198.558 187.91 198.288 188.035 198.014 188.035Z" fill="#303436"/>
<path d="M196.661 197.786C196.49 197.786 196.319 197.737 196.164 197.636C189.651 193.261 185.936 185.079 186.917 177.278C186.978 176.787 187.435 176.44 187.915 176.501C188.405 176.564 188.751 177.01 188.69 177.502C187.791 184.647 191.194 192.14 197.16 196.146C197.57 196.421 197.68 196.978 197.406 197.389C197.232 197.647 196.949 197.786 196.661 197.786Z" fill="#303436"/>
<path d="M121.559 179.811C121.475 179.811 121.389 179.799 121.302 179.773C112.612 177.161 108.691 167.245 108.523 162.518C108.37 158.258 110.905 147.414 114.718 141.162C114.975 140.739 115.524 140.607 115.945 140.866C116.367 141.124 116.498 141.676 116.24 142.097C112.591 148.081 110.162 158.41 110.305 162.452C110.453 166.599 114.085 175.732 121.812 178.056C122.286 178.197 122.553 178.697 122.412 179.17C122.3 179.562 121.944 179.811 121.559 179.811Z" fill="#303436"/>
<path d="M124.747 177.633C124.496 177.633 124.246 177.527 124.07 177.321C121.983 174.882 120.915 171.519 120.709 166.74C120.426 160.135 121.611 153.415 124.14 147.311C125.22 144.7 126.555 142.175 127.844 139.731C129.464 136.66 131.141 133.483 132.282 130.182C132.444 129.714 132.95 129.465 133.418 129.63C133.884 129.792 134.13 130.302 133.968 130.769C132.783 134.202 131.073 137.44 129.42 140.57C128.15 142.976 126.836 145.464 125.787 147.997C123.358 153.862 122.22 160.316 122.492 166.663C122.679 171.019 123.609 174.036 125.422 176.153C125.743 176.529 125.7 177.095 125.326 177.417C125.159 177.563 124.953 177.633 124.747 177.633Z" fill="#303436"/>
<path d="M66.852 143.039C66.5522 143.039 66.2594 142.889 66.0908 142.614C63.4628 138.33 59.4178 135.034 54.7005 133.328C54.2368 133.161 53.9955 132.647 54.1641 132.181C54.3304 131.716 54.8411 131.474 55.3072 131.643C60.4039 133.485 64.7721 137.047 67.6133 141.676C67.8709 142.097 67.7421 142.649 67.3205 142.91C67.1753 142.997 67.0136 143.039 66.852 143.039Z" fill="#303436"/>
<path d="M237.648 332.792C234.101 332.792 230.085 330.931 226.196 329.131C221.852 327.12 217.362 325.038 213.712 325.609C211.255 325.936 208.119 327.569 205.353 329.012C201.455 331.044 198.375 332.651 196.916 330.945C196.221 330.135 195.93 329.291 196.05 328.436C196.298 326.683 198.218 325.299 200.704 323.673C204.069 321.324 205.058 320.948 209.227 319.364C213.476 317.75 219.58 318.173 219.84 318.192C220.331 318.229 220.702 318.657 220.664 319.15C220.629 319.644 220.21 320.015 219.708 319.98C219.65 319.973 213.736 319.566 209.862 321.039C205.758 322.599 204.906 322.924 201.699 325.161C200.2 326.14 197.97 327.602 197.816 328.69C197.799 328.81 197.748 329.174 198.265 329.778C198.804 330.405 202.385 328.537 204.526 327.423C207.423 325.912 210.707 324.202 213.455 323.838C217.607 323.189 222.355 325.381 226.941 327.506C230.75 329.268 234.699 331.075 237.877 330.999C240.882 330.908 241.85 329.893 244.192 327.435C245.478 326.086 247.077 324.406 249.544 322.318C249.921 321.998 250.483 322.047 250.802 322.426C251.12 322.804 251.073 323.368 250.694 323.687C248.3 325.713 246.738 327.355 245.482 328.673C243.023 331.256 241.669 332.677 237.931 332.79C237.84 332.79 237.744 332.792 237.648 332.792Z" fill="#303436"/>
<path d="M188.615 323.137C188.114 323.137 187.674 323.064 187.301 322.907C186.727 322.665 186.32 322.235 186.121 321.661C185.048 318.583 189.686 315.216 200.296 311.37C205.191 309.589 214.042 309.626 217.563 309.92C218.055 309.962 218.42 310.395 218.378 310.888C218.336 311.382 217.923 311.746 217.413 311.706C214.021 311.419 205.519 311.375 200.902 313.055C190.489 316.828 187.339 319.732 187.805 321.069C187.833 321.149 187.87 321.203 187.992 321.252C189.587 321.934 195.239 319.272 198.612 317.683C201.251 316.44 202.783 315.735 203.622 315.656C205.566 315.477 207.283 315.895 210.126 316.588C212.026 317.054 214.391 317.632 217.671 318.235C218.155 318.325 218.476 318.792 218.387 319.279C218.298 319.765 217.834 320.085 217.347 319.998C214.019 319.384 211.625 318.799 209.702 318.329C207.041 317.681 205.432 317.286 203.786 317.439C203.219 317.491 201.174 318.454 199.371 319.302C194.808 321.454 191.016 323.137 188.615 323.137Z" fill="#303436"/>
<path d="M186.697 315.421C185.21 315.421 184.024 315.209 183.27 314.709C182.778 314.382 182.453 313.933 182.322 313.405C182.092 312.968 182.05 312.5 182.202 312.042C182.673 310.611 184.828 309.742 188.301 308.442L189.266 308.078C191.253 307.373 193.377 306.772 195.251 306.241C196.244 305.959 197.157 305.7 197.921 305.463C201.577 304.366 207.091 302.707 216.263 303.367C216.755 303.402 217.125 303.83 217.09 304.323C217.055 304.817 216.635 305.188 216.136 305.153C207.295 304.518 202.179 306.055 198.443 307.176C197.675 307.415 196.745 307.679 195.736 307.963C193.888 308.484 191.794 309.079 189.88 309.758L188.924 310.117C187.238 310.75 184.099 311.924 183.898 312.603C183.966 312.709 184.031 312.815 184.05 312.939C184.06 312.993 184.074 313.092 184.259 313.214C186.404 314.638 196.326 312.157 199.589 311.342C200.888 311.017 201.476 310.872 201.774 310.839C202.256 310.785 202.704 311.142 202.755 311.633C202.809 312.124 202.453 312.566 201.964 312.62C201.776 312.641 200.884 312.864 200.02 313.078C194.993 314.337 190.065 315.421 186.697 315.421Z" fill="#303436"/>
<path d="M233.329 311.231C232.225 311.231 231.202 310.94 230.272 310.355C230.248 310.341 230.225 310.324 230.204 310.308C222.92 304.744 210.138 295.505 206.857 294.396C204.24 293.489 201.898 293.884 199.42 294.3C198.708 294.42 198.001 294.537 197.289 294.624L196.577 294.732C194.447 295.056 191.534 295.498 191.159 296.278C191.077 296.452 191.227 296.76 191.325 296.929C192.061 298.327 195.729 297.874 198.675 297.507C201.341 297.176 203.641 296.891 205.039 297.535C208.021 298.912 212.038 303.367 212.206 303.555C212.537 303.922 212.506 304.488 212.141 304.819C211.775 305.148 211.211 305.12 210.881 304.753C210.841 304.711 206.941 300.385 204.294 299.164C203.357 298.731 200.987 299.025 198.895 299.286C195.04 299.765 191.056 300.259 189.763 297.794C189.175 296.774 189.323 295.98 189.552 295.501C190.334 293.87 193.105 293.447 196.312 292.961L197.045 292.848C197.757 292.758 198.441 292.643 199.125 292.531C201.715 292.096 204.395 291.645 207.433 292.697C212.059 294.26 230.326 308.149 231.251 308.854C232.385 309.549 233.694 309.624 235.254 309.079C235.72 308.917 236.228 309.166 236.39 309.634C236.551 310.101 236.303 310.611 235.837 310.773C234.961 311.079 234.123 311.231 233.329 311.231Z" fill="#303436"/>
<path d="M230.059 309.927C229.839 309.927 229.619 309.847 229.445 309.683C227.211 307.571 225.843 305.787 224.52 304.065C222.716 301.718 221.016 299.5 217.231 296.685C216.835 296.391 216.753 295.829 217.045 295.432C217.338 295.035 217.898 294.953 218.296 295.247C222.278 298.212 224.056 300.524 225.934 302.975C227.215 304.641 228.539 306.365 230.67 308.384C231.029 308.722 231.045 309.291 230.708 309.65C230.534 309.833 230.295 309.927 230.059 309.927Z" fill="#303436"/>
<path d="M213.047 206.35C212.885 206.35 212.719 206.306 212.571 206.212C211.913 205.796 211.628 205.119 211.414 204.518C211.304 204.21 211.171 203.848 211.016 203.435C208.873 197.673 203.181 182.365 208.901 166.912C209.072 166.449 209.587 166.214 210.049 166.383C210.51 166.554 210.747 167.071 210.576 167.534C205.086 182.363 210.609 197.215 212.689 202.805C212.845 203.225 212.981 203.594 213.094 203.909C213.176 204.142 213.33 204.572 213.522 204.692C213.939 204.955 214.066 205.509 213.801 205.927C213.632 206.202 213.342 206.35 213.047 206.35Z" fill="#303436"/>
<path d="M252.741 325.13C251.966 325.13 250.274 324.434 246.087 321.29C242.836 318.849 232.443 310.501 235.169 305.541C235.422 305.141 257.446 270.58 263.091 239.269C263.18 238.783 263.639 238.463 264.129 238.548C264.614 238.637 264.937 239.102 264.848 239.589C259.138 271.255 236.924 306.109 236.699 306.457C236.336 307.122 236.439 308.123 237.036 309.382C239.641 314.866 250.225 322.36 252.436 323.266C264.319 311.156 276.411 293.814 284.839 276.781C294.287 257.686 298.021 241.412 295.348 230.965C294.297 226.854 284.223 214.039 278.023 207.366C265.026 193.385 256.992 185.812 249.902 179.13C243.229 172.842 237.467 167.41 229.663 158.437C222.692 150.417 213.248 146.968 203.252 143.314L202.851 143.169C202.388 142.999 202.149 142.485 202.317 142.02C202.486 141.554 203.001 141.315 203.463 141.484L203.863 141.63C214.082 145.366 223.737 148.892 231.01 157.257C238.755 166.167 244.215 171.31 251.127 177.824C258.236 184.522 266.295 192.116 279.332 206.141C285.033 212.276 295.843 225.667 297.084 230.517C303.392 255.183 275.894 302.075 253.404 324.834C253.277 324.968 253.116 325.13 252.741 325.13Z" fill="#303436"/>
<path d="M256.606 315.806C256.524 315.806 256.442 315.794 256.36 315.771C252.617 314.692 241.709 305.731 241.709 302.498C241.709 302.004 242.107 301.605 242.601 301.603C243.096 301.603 243.494 302.004 243.496 302.498C243.501 304.321 253.043 312.951 256.854 314.049C257.329 314.185 257.601 314.681 257.465 315.155C257.35 315.55 256.994 315.806 256.606 315.806Z" fill="#303436"/>
<path d="M179.67 58.915C179.497 58.915 179.321 58.8633 179.167 58.7576C175.834 56.4667 173.904 51.7157 172.034 47.1222C170.418 43.1466 168.748 39.0347 166.249 36.7109C163.586 34.2344 158.197 34.3941 154.522 35.9801C154.067 36.1752 153.543 35.966 153.348 35.5126C153.154 35.0591 153.362 34.5304 153.817 34.3354C157.955 32.545 164.143 32.31 167.465 35.3974C170.254 37.9914 172.002 42.2889 173.69 46.4455C175.459 50.7946 177.286 55.2919 180.176 57.2797C180.584 57.5593 180.687 58.1161 180.408 58.525C180.237 58.7787 179.956 58.915 179.67 58.915Z" fill="#303436"/>
<path d="M137.56 131.589C137.677 132.243 137.843 132.931 138.307 133.403C137.733 132.818 139.747 130.027 138.866 129.075C137.688 127.806 137.442 130.941 137.56 131.589Z" fill="#303436"/>
</g>
<defs>
<clipPath id="clip0_2461_2464">
<rect width="298" height="346" fill="white"/>
</clipPath>
</defs>
</svg>
