<svg width="162" height="215" viewBox="0 0 162 215" fill="none" xmlns="http://www.w3.org/2000/svg">
<g clip-path="url(#clip0_2461_2549)">
<path d="M59.5788 42.7537L59.5789 42.7535C67.1699 26.9972 80.1777 20.8548 96.8778 17.5955L96.9678 18.0564L96.8779 17.5955C105.341 15.9446 114.25 15.8507 122.622 18.2374C130.837 20.5792 138.279 24.9595 144.466 30.8304L144.467 30.8307C150.747 36.7976 155.452 44.2269 158.702 52.2076L158.702 52.2078C159.167 53.351 159.772 54.2507 160.547 54.8764C161.315 55.4971 162.279 55.8719 163.509 55.9223L163.511 55.9223C164.571 55.9682 165.632 55.8586 166.732 55.7345L166.733 55.7344C167.886 55.6063 168.494 55.5456 169.558 55.6986L169.559 55.6988C173.488 56.2705 177.201 57.3724 180.821 59.1066L180.822 59.1067C194.579 65.7059 202.277 80.3505 204.613 94.9622M59.5788 42.7537L204.119 95.0411M59.5788 42.7537C59.1295 43.687 57.9899 43.9674 56.969 43.6628C56.4719 43.5145 56.0856 43.2448 55.8844 42.9319C55.6996 42.6446 55.6394 42.2771 55.8673 41.8037C56.1221 41.2754 56.2545 40.989 56.3294 40.8264C56.3713 40.7356 56.391 40.6943 56.3984 40.6785C56.4051 40.6707 56.4143 40.6601 56.4238 40.6489C56.4558 40.6112 56.4971 40.5602 56.5557 40.4814C56.6711 40.3265 56.8569 40.0599 57.1766 39.5673L57.1852 39.554L57.1929 39.5403C67.7299 20.8192 84.5757 15.2459 102.414 13.4534L102.414 13.4534C111.567 12.5301 120.798 13.5949 129.326 17.0809L129.503 16.647L129.326 17.081C137.563 20.447 144.849 25.8943 150.672 32.6264L150.673 32.6267C153.618 36.025 156.148 39.7644 158.317 43.7123M59.5788 42.7537L158.317 43.7123M204.613 94.9622L204.119 95.0411M204.613 94.9622C204.613 94.9622 204.613 94.9622 204.613 94.9621L204.119 95.0411M204.613 94.9622C205.925 103.155 205.89 113.024 203.276 121.718C200.661 130.42 195.446 137.994 186.372 141.467L186.372 141.467C185.073 141.963 183.741 142.317 182.385 142.545M204.119 95.0411C206.726 111.319 203.963 134.199 186.194 141C184.174 141.772 182.07 142.192 179.913 142.321C178.389 142.411 177.901 144.09 178.252 145.29C181.692 157.05 177.806 170.095 170.08 179.286C161.961 188.945 149.511 194.024 137.159 195.019C130.885 195.526 124.256 195.126 118.283 193.029C116.689 192.47 115.119 191.8 113.65 190.958M182.385 142.545L182.318 142.317L182.171 142.58M182.385 142.545L182.653 143.458C182.875 144.214 183.077 144.973 183.256 145.737M182.385 142.545C182.314 142.557 182.242 142.569 182.171 142.58M182.171 142.58C181.434 142.696 180.691 142.775 179.943 142.82L179.942 142.82C179.394 142.852 179.038 143.156 178.833 143.599C178.619 144.062 178.588 144.657 178.732 145.15C182.228 157.1 178.274 170.315 170.463 179.608C162.237 189.393 149.649 194.514 137.199 195.518C130.882 196.028 124.178 195.628 118.118 193.501C116.504 192.935 114.904 192.253 113.402 191.392M182.171 142.58L181.737 143.354C181.46 143.849 181.183 144.344 180.907 144.839C180.63 145.334 180.353 145.83 180.076 146.323L179.63 147.121L180.542 147.067C181.197 147.028 181.844 146.963 182.484 146.873M113.402 191.392L113.65 190.958M113.402 191.392C112.399 190.819 111.496 190.113 110.621 189.429C110.298 189.177 109.979 188.927 109.661 188.689L109.66 188.688C107.02 186.704 103.42 186.623 100.612 188.341M113.402 191.392C113.401 191.392 113.401 191.392 113.401 191.392L113.65 190.958M113.65 190.958C112.681 190.404 111.821 189.732 110.955 189.055C110.627 188.798 110.297 188.541 109.96 188.288C107.147 186.174 103.324 186.095 100.351 187.915M162.61 51.7007C162.594 51.6716 162.575 51.639 162.554 51.6023M162.61 51.7007L56.7572 39.295C67.4094 20.3691 84.4522 14.7558 102.364 12.9559C111.588 12.0255 120.903 13.0974 129.515 16.6181C137.831 20.0164 145.18 25.513 151.051 32.2993C154.022 35.7277 156.572 39.4971 158.756 43.4722C159.846 45.4618 160.833 47.5097 161.716 49.6015M162.61 51.7007C162.607 51.704 162.603 51.7075 162.6 51.7111C162.54 51.7717 162.477 51.8673 162.46 51.9963C162.443 52.123 162.477 52.2275 162.512 52.2951C162.546 52.3594 162.586 52.4023 162.61 52.4253C162.612 52.4268 162.613 52.4283 162.615 52.4297M162.61 51.7007L56.0092 44.4592M162.554 51.6023C162.315 51.1969 162.144 50.7328 161.976 50.2759C161.891 50.0465 161.808 49.8189 161.716 49.6015M162.554 51.6023L162.123 51.856M162.554 51.6023L162.123 51.8562C162.123 51.8561 162.123 51.856 162.123 51.856M161.716 49.6015L161.256 49.796M161.716 49.6015L161.255 49.7953C161.255 49.7955 161.256 49.7957 161.256 49.796M161.256 49.796C160.379 47.7195 159.399 45.6868 158.317 43.7123M161.256 49.796C161.343 50.0032 161.42 50.2121 161.501 50.4343C161.544 50.5504 161.588 50.6702 161.636 50.7952C161.769 51.1446 161.922 51.5141 162.123 51.856M158.317 43.7123L94.331 192.139C92.0118 193.197 89.7517 193.93 87.3719 194.455L87.3707 194.455C82.1938 195.584 77.1309 195.718 71.9468 195.158C61.6828 194.049 51.3839 190.329 43.2083 183.973M162.123 51.856C162.167 51.9313 162.197 51.9858 162.223 52.0333C162.229 52.044 162.234 52.0544 162.24 52.0646L162.244 52.0718C162.267 52.1139 162.314 52.2012 162.386 52.2756C162.465 52.3574 162.55 52.4024 162.615 52.4297M162.615 52.4297C162.639 52.4521 162.661 52.4681 162.676 52.4781C162.706 52.499 162.733 52.512 162.746 52.5181C162.761 52.5252 162.774 52.5304 162.783 52.5337C162.813 52.5452 162.841 52.5525 162.853 52.5556C162.869 52.5598 162.885 52.5635 162.9 52.5666C162.929 52.5727 162.964 52.579 162.998 52.5835C163.015 52.5857 163.038 52.5882 163.063 52.5895C163.075 52.5901 163.093 52.5907 163.112 52.5901C163.118 52.5899 163.125 52.5896 163.134 52.5891M162.615 52.4297C162.63 52.4361 162.644 52.4415 162.657 52.4462C162.69 52.4587 162.796 52.4934 162.842 52.5093C162.858 52.5155 162.868 52.5193 162.872 52.5211C162.879 52.5242 162.868 52.52 162.849 52.509C162.848 52.5084 162.847 52.5077 162.846 52.5069L162.997 52.076L163.001 52.0646L163.01 52.0385M163.134 52.5891C163.147 52.5912 163.161 52.5935 163.176 52.5959L163.177 52.596C163.457 52.6416 163.733 52.66 163.999 52.6684L164.007 52.6685C164.301 52.673 164.991 52.614 165.388 52.5756L165.391 52.5753C165.627 52.5512 165.859 52.5257 166.09 52.5004C167.005 52.3998 167.88 52.3036 168.775 52.3202L168.776 52.3202C169.593 52.334 170.417 52.4877 171.275 52.6481C171.378 52.6673 171.481 52.6866 171.585 52.7058M163.134 52.5891C163.146 52.5882 163.161 52.5868 163.178 52.5843C163.178 52.5842 163.179 52.5842 163.179 52.5842C163.187 52.583 163.195 52.5815 163.204 52.5798C163.225 52.5756 163.256 52.568 163.292 52.5538C163.326 52.5403 163.382 52.5139 163.439 52.4637C163.5 52.4103 163.567 52.3249 163.596 52.2048C163.601 52.1846 163.605 52.1648 163.607 52.1455C163.742 52.1573 163.878 52.1643 164.015 52.1686C164.274 52.1725 164.933 52.1173 165.34 52.0779C165.567 52.0547 165.794 52.0298 166.02 52.0049C166.939 51.9037 167.854 51.803 168.785 51.8203C169.647 51.8348 170.513 51.9969 171.365 52.1563C171.469 52.1757 171.572 52.195 171.676 52.2141M163.134 52.5891C163.068 52.5785 163.02 52.5713 162.987 52.5667C162.955 52.5624 162.943 52.5613 162.943 52.5612C162.943 52.5611 162.946 52.5613 162.951 52.5615C162.953 52.5616 162.958 52.5617 162.966 52.5617C162.975 52.5616 162.988 52.5612 163.003 52.5598C163.016 52.5587 163.046 52.5556 163.083 52.5458C163.102 52.5409 163.132 52.5318 163.167 52.5157C163.174 52.5124 163.182 52.5083 163.191 52.5034C163.192 52.5033 163.192 52.5031 163.192 52.503C163.225 52.4856 163.268 52.4577 163.311 52.4143C163.37 52.3539 163.433 52.2585 163.451 52.1298C163.451 52.1297 163.451 52.1296 163.451 52.1295C163.386 52.1219 163.322 52.113 163.257 52.1025C163.195 52.0922 163.144 52.0843 163.103 52.0783C163.091 52.0702 163.062 52.0575 163.01 52.0385M171.585 52.7058C173.705 53.1017 175.811 53.6457 177.848 54.3449L177.849 54.3452C181.68 55.6514 185.323 57.5806 188.586 59.9875L188.586 59.9876C201.496 69.5036 207.792 85.9635 208.602 101.695M171.585 52.7058L171.676 52.2141M171.585 52.7058C171.584 52.7057 171.584 52.7057 171.584 52.7056L171.676 52.2141M208.602 101.695C209.085 111.175 207.983 121.14 203.584 129.587L204.007 129.807L203.584 129.587C199.435 137.555 192.107 144.135 183.256 145.737M208.602 101.695L209.1 101.669L208.602 101.695C208.602 101.695 208.602 101.695 208.602 101.695ZM183.256 145.737C183.092 145.766 182.927 145.794 182.762 145.821C182.597 145.847 182.432 145.871 182.266 145.894M183.256 145.737C183.294 145.899 183.331 146.062 183.367 146.225C192.396 144.583 199.831 137.877 204.027 129.818C208.483 121.262 209.587 111.197 209.102 101.669C208.287 85.8425 201.951 69.2179 188.883 59.5851C185.58 57.1488 181.891 55.1952 178.01 53.8719C175.948 53.1643 173.819 52.6142 171.676 52.2141M182.484 146.873C182.907 148.892 183.163 150.935 183.219 153.011M182.484 146.873C182.65 146.85 182.815 146.825 182.979 146.799C183.404 148.835 183.662 150.899 183.719 152.998C184.079 166.374 177.774 179.407 167.448 187.809M182.484 146.873C182.45 146.71 182.415 146.547 182.378 146.383C182.342 146.22 182.304 146.057 182.266 145.894M183.219 153.011C183.575 166.225 177.344 179.112 167.133 187.421L167.448 187.809M183.219 153.011L183.695 152.999L183.219 153.012C183.219 153.011 183.219 153.011 183.219 153.011ZM167.448 187.809L167.133 187.421C156.755 195.868 143.044 199.507 129.787 198.897C122.867 198.58 115.762 197.039 110.021 193.129L110.021 193.129C109.641 192.87 109.295 192.581 108.926 192.273C108.702 192.086 108.47 191.892 108.217 191.694C107.58 191.195 106.86 190.714 106.002 190.499L106.002 190.499C104.764 190.189 103.393 190.45 102.325 191.111M167.448 187.809C156.959 196.347 143.121 200.011 129.764 199.397C122.795 199.077 115.587 197.524 109.74 193.542C109.343 193.272 108.961 192.954 108.576 192.632C107.75 191.943 106.909 191.242 105.881 190.984C104.785 190.71 103.551 190.94 102.588 191.536M102.325 191.111C101.788 191.443 101.275 191.812 100.778 192.169L100.708 192.22C100.184 192.597 99.6754 192.96 99.1436 193.279M102.325 191.111C102.325 191.111 102.325 191.111 102.325 191.111L102.588 191.536M102.325 191.111L102.588 191.536M99.1436 193.279C97.949 193.995 96.7394 194.656 95.4856 195.221L95.4853 195.221C85.5919 199.689 73.9007 199.566 63.4612 196.982C53.1292 194.426 42.9174 189.503 35.7554 181.519L35.3832 181.853M99.1436 193.279L99.4012 193.708M99.1436 193.279C99.1438 193.279 99.1441 193.279 99.1443 193.279L99.4012 193.708M35.3832 181.853L35.7553 181.519C31.3819 176.644 27.7661 170.904 25.2292 164.861L25.229 164.861C22.6112 158.638 21.0849 151.778 21.8848 145.065C22.0874 143.366 22.4639 141.685 22.9674 140.038M35.3832 181.853C30.9719 176.936 27.3264 171.148 24.7681 165.055C22.1285 158.78 20.5751 151.831 21.3883 145.006C21.595 143.273 21.9785 141.562 22.4894 139.891M35.3832 181.853C42.6327 189.935 52.9467 194.896 63.3412 197.468C73.8502 200.068 85.6638 200.205 95.6911 195.677C96.9681 195.101 98.1957 194.43 99.4012 193.708M22.9674 140.038C23.2147 139.237 23.5201 138.454 23.8334 137.652M22.9674 140.038C22.9674 140.037 22.9675 140.037 22.9676 140.037L22.4894 139.891M22.9674 140.038C22.9673 140.038 22.9672 140.038 22.9672 140.038L22.4894 139.891M23.8334 137.652C23.8584 137.588 23.8883 137.516 23.9206 137.438C24.0103 137.222 24.1194 136.958 24.2004 136.702C24.3119 136.349 24.4039 135.917 24.3202 135.491M23.8334 137.652C23.8336 137.651 23.8337 137.651 23.8338 137.651L23.3681 137.469M23.8334 137.652C23.8333 137.652 23.8332 137.652 23.8331 137.653L23.3681 137.469M24.3202 135.491C24.1765 134.752 23.5412 134.202 22.9851 133.814C22.6908 133.609 22.3801 133.424 22.1004 133.261C22.0415 133.227 21.9846 133.194 21.9295 133.162C21.7152 133.038 21.5303 132.932 21.3776 132.832L21.3761 132.831C20.2041 132.076 19.0471 131.301 17.9201 130.488L17.9199 130.487C13.393 127.225 9.43136 123.299 6.88646 118.333L6.88639 118.332C3.9878 112.68 3.06247 105.961 3.51146 99.6222M24.3202 135.491C24.3202 135.491 24.3202 135.491 24.3202 135.491L23.8296 135.587M24.3202 135.491C24.3203 135.492 24.3204 135.492 24.3205 135.492L23.8296 135.587M3.51146 99.6222C3.9705 93.2091 6.18441 86.6744 10.601 81.9821M3.51146 99.6222L3.01272 99.5869M3.51146 99.6222C3.51146 99.6224 3.51145 99.6225 3.51144 99.6226L3.01272 99.5869M10.601 81.9821C11.068 81.4875 11.5862 81.0339 12.1253 80.562C12.1917 80.504 12.2583 80.4456 12.3253 80.3869C12.9275 79.8583 13.5467 79.3016 14.0832 78.6678L14.0838 78.6671C14.665 77.978 14.9124 77.1652 15.0512 76.38C15.1206 75.9877 15.1649 75.5894 15.2063 75.2109L15.2097 75.1799C15.2505 74.8073 15.2892 74.4547 15.3467 74.116L15.3469 74.1149C15.7647 71.6228 16.4817 69.1596 17.4194 66.8046M10.601 81.9821C10.6011 81.9819 10.6013 81.9818 10.6015 81.9816L10.2374 81.6389M10.601 81.9821L10.2374 81.6389M17.4194 66.8046C19.3951 61.8605 22.3678 57.2379 26.0726 53.4304L26.0729 53.4301C29.8234 49.5685 34.3224 46.3581 39.4408 44.7271M17.4194 66.8046C17.4195 66.8044 17.4196 66.8042 17.4197 66.804L16.9551 66.619M17.4194 66.8046L16.9551 66.619M39.4408 44.7271C44.8499 43.0062 50.4724 43.0843 55.8465 44.932M39.4408 44.7271L39.2889 44.2507M39.4408 44.7271C39.4407 44.7271 39.4406 44.7271 39.4406 44.7271L39.2889 44.2507M55.8465 44.932C56.2316 45.0646 56.5306 45.3848 56.6927 45.8023C56.8561 46.2228 56.8607 46.6952 56.7051 47.0727L56.7051 47.0728C56.3619 47.9055 55.4195 48.2607 54.5342 47.9542L54.5337 47.9541C52.246 47.1648 49.6093 46.6994 47.2168 46.7122L47.2168 46.7122C42.3293 46.7391 37.5113 48.5585 33.5369 51.3268M55.8465 44.932C55.8466 44.932 55.8466 44.9321 55.8467 44.9321L56.0092 44.4592M55.8465 44.932L56.0092 44.4592M33.5369 51.3268C29.2744 54.2947 25.8751 58.1215 23.1688 62.5698M33.5369 51.3268C33.5368 51.3268 33.5368 51.3268 33.5368 51.3268L33.8226 51.7371M33.5369 51.3268L33.8226 51.7371M23.1688 62.5698C20.6919 66.6355 18.9973 71.296 18.3924 75.9934L18.3923 75.9942C18.1483 77.9136 17.6972 79.6063 16.4295 80.9525L16.4292 80.9528C15.934 81.4794 15.3913 81.9595 14.828 82.4577L14.7779 82.5021C14.2029 83.0108 13.6082 83.5397 13.0655 84.1318C10.9806 86.4068 9.45772 89.0578 8.41383 91.9429C6.29085 97.8104 6.23463 104.387 7.54174 110.398M23.1688 62.5698L23.5956 62.8298L23.1687 62.5701C23.1687 62.57 23.1688 62.5699 23.1688 62.5698ZM7.54174 110.398C8.68631 115.667 11.423 120.448 15.2341 124.046L15.2344 124.046C17.1679 125.869 19.2865 127.464 21.4592 128.946L21.4593 128.946C21.8968 129.245 22.3675 129.54 22.8369 129.834C23.0234 129.95 23.2096 130.067 23.3934 130.184C24.0486 130.6 24.6879 131.024 25.2666 131.492C26.423 132.425 27.2952 133.493 27.5531 134.922M7.54174 110.398L8.01429 110.295L7.54177 110.398C7.54176 110.398 7.54175 110.398 7.54174 110.398ZM27.5531 134.922C27.822 136.42 27.2915 137.806 26.71 139.324C26.6216 139.555 26.532 139.789 26.4438 140.027M27.5531 134.922C27.5531 134.922 27.5531 134.922 27.5532 134.922L28.0452 134.833M27.5531 134.922L28.0452 134.833M26.4438 140.027C25.8979 141.497 25.5173 143 25.2814 144.544C24.8049 147.631 24.8911 150.728 25.3817 153.789M26.4438 140.027L26.9051 140.198L26.444 140.027C26.4439 140.027 26.4439 140.027 26.4438 140.027ZM25.3817 153.789C26.4022 160.199 29.0894 166.336 32.5336 171.758L32.5338 171.759C35.5289 176.464 38.8994 180.628 43.2083 183.973M25.3817 153.789L25.8755 153.711M25.3817 153.789C25.3818 153.789 25.3818 153.79 25.3818 153.79L25.8755 153.711M43.2083 183.973C43.2084 183.973 43.2085 183.973 43.2086 183.973L43.5152 183.578M43.2083 183.973L43.5152 183.578M100.612 188.341L87.2641 193.967C89.6117 193.449 91.8382 192.726 94.1235 191.684C95.1957 191.197 96.3436 190.596 97.1936 190.071C97.7313 189.739 98.2446 189.37 98.7575 189.002C99.2803 188.626 99.8028 188.251 100.351 187.915M100.612 188.341L100.351 187.915M100.612 188.341C100.612 188.341 100.612 188.341 100.612 188.341L100.351 187.915M43.5152 183.578C39.2661 180.28 35.9317 176.166 32.9556 171.49C29.5381 166.11 26.8827 160.037 25.8755 153.711M43.5152 183.578L25.8755 153.711M28.0452 134.833C27.572 132.21 25.2451 130.752 23.0938 129.405C22.6277 129.113 22.1699 128.826 21.7409 128.533L28.0452 134.833ZM33.8226 51.7371C37.7306 49.0151 42.4519 47.2385 47.2195 47.2122M33.8226 51.7371C29.6248 54.6599 26.2712 58.4324 23.5958 62.8299C21.1532 66.8393 19.4838 71.4335 18.8883 76.0573C18.6403 78.008 18.1718 79.8317 16.7935 81.2953L47.2195 47.2122M47.2195 47.2122C49.5513 47.1997 52.132 47.6544 54.3707 48.4267C55.4626 48.8047 56.7065 48.3815 57.1674 47.2633L47.2195 47.2122ZM56.0092 44.4592C50.5343 42.5768 44.8014 42.4969 39.2889 44.2507M39.2889 44.2507C34.0714 45.9133 29.5048 49.1789 25.7142 53.0817C21.9626 56.9373 18.9545 61.6157 16.9551 66.619M16.9551 66.619C16.0055 69.0037 15.2781 71.5014 14.8538 74.0322C14.7937 74.3859 14.7537 74.7515 14.7134 75.1193C14.5871 76.2723 14.4585 77.4472 13.7016 78.3448C13.1353 79.0138 12.4657 79.5997 11.7957 80.186C11.2589 80.6558 10.7219 81.1257 10.2374 81.6389M10.2374 81.6389C5.7207 86.4372 3.47746 93.0931 3.01272 99.5869M3.01272 99.5869C2.55904 105.992 3.49113 112.807 6.44148 118.561C9.0341 123.62 13.0609 127.602 17.6276 130.893C18.7637 131.713 19.9284 132.493 21.1053 133.252C21.2698 133.359 21.4695 133.474 21.6853 133.599C22.5473 134.097 23.6663 134.744 23.8296 135.587M23.8296 135.587C23.9313 136.104 23.6768 136.719 23.4672 137.226C23.4323 137.31 23.3986 137.391 23.3681 137.469M23.3681 137.469C23.0556 138.269 22.7431 139.069 22.4894 139.891M99.4012 193.708C99.9764 193.362 100.521 192.97 101.066 192.578C101.566 192.219 102.066 191.859 102.588 191.536M182.266 145.894C181.981 145.933 181.694 145.967 181.406 145.995M182.266 145.894C182.187 145.562 182.105 145.232 182.018 144.901M163.01 52.0385C162.859 51.9856 162.8 51.9738 162.759 51.94C162.732 51.9182 162.713 51.8872 162.681 51.8299C162.658 51.8694 162.637 51.9155 162.624 51.9685C162.596 52.0873 162.616 52.192 162.644 52.265C162.67 52.3337 162.706 52.3814 162.729 52.4076C162.752 52.4354 162.774 52.455 162.789 52.4669C162.81 52.4843 162.829 52.4966 162.84 52.5037L162.996 52.0759L163 52.0646L163.01 52.0385ZM182.018 144.901C181.957 144.671 181.894 144.442 181.83 144.212C181.785 144.055 181.74 143.897 181.694 143.74L182.173 143.599L182.61 143.843C182.529 143.987 182.448 144.132 182.367 144.277C182.305 144.386 182.244 144.496 182.183 144.606C182.128 144.704 182.073 144.803 182.018 144.901ZM182.018 144.901C181.938 145.043 181.859 145.185 181.78 145.327C181.655 145.55 181.53 145.773 181.406 145.995M181.406 145.995C181.206 146.015 181.005 146.033 180.804 146.047C180.697 146.055 180.59 146.062 180.483 146.069L180.513 146.568L180.949 146.812C181.003 146.716 181.056 146.621 181.11 146.525C181.208 146.348 181.307 146.172 181.406 145.995Z" fill="#303436" stroke="#FAFAFB"/>
<path d="M17.9252 55.8686L17.9256 55.866C17.9575 55.6781 17.9907 55.4837 18.0316 55.2881C18.0316 55.286 18.0316 55.2841 18.0315 55.2825C18.0312 55.2509 18.0341 55.2261 18.0349 55.2188C18.0362 55.2078 18.0376 55.1989 18.0385 55.1934C18.0403 55.1824 18.0422 55.1728 18.0434 55.1669C18.0479 55.1445 18.0546 55.1165 18.0604 55.0928C18.0668 55.0667 18.0743 55.0372 18.0819 55.0081C18.0895 54.9791 18.0974 54.9493 18.1048 54.9229C18.1112 54.8998 18.12 54.869 18.1286 54.8436C18.1309 54.8368 18.1351 54.8248 18.1406 54.8109C18.1434 54.804 18.1482 54.7924 18.1548 54.7785C18.1574 54.773 18.1639 54.7595 18.1743 54.7417C18.2678 54.4429 18.3688 54.1415 18.4861 53.8426L18.4867 53.8411C18.6372 53.461 18.8074 53.0824 18.9963 52.715L18.9965 52.7145C19.0048 52.6985 19.0131 52.6826 19.0213 52.6669C19.0277 52.6444 19.0342 52.6274 19.0369 52.6204C19.044 52.602 19.051 52.5872 19.0539 52.5812C19.0577 52.5732 19.0613 52.5659 19.0643 52.56C19.0754 52.5382 19.0899 52.5116 19.1031 52.4878C19.1172 52.4625 19.1328 52.4348 19.1478 52.4089C19.1625 52.3833 19.1777 52.3573 19.1907 52.3359C19.1969 52.3257 19.2044 52.3133 19.2121 52.3016C19.2157 52.2961 19.2218 52.2867 19.2294 52.2762C19.2331 52.2711 19.2395 52.2623 19.2479 52.2519C19.2521 52.2466 19.2584 52.2391 19.2662 52.2304C19.2711 52.2249 19.2788 52.2166 19.2887 52.2069C19.3431 52.1197 19.3994 52.0307 19.4545 51.9478L19.456 51.9456C19.6863 51.603 19.9339 51.2739 20.1936 50.9577C20.3334 50.787 20.4761 50.6233 20.6157 50.4672C20.6266 50.4549 20.6376 50.4427 20.6486 50.4305C20.6709 50.3859 20.6953 50.3502 20.7133 50.3257C20.7585 50.264 20.8131 50.2071 20.8596 50.1618C20.956 50.0677 21.0798 49.9638 21.1963 49.8705C21.3999 49.7073 21.6176 49.5474 21.7041 49.4839C21.7148 49.476 21.7234 49.4697 21.7299 49.465C22.0728 49.1976 22.4259 48.9527 22.7892 48.7209L22.7915 48.7195L22.7915 48.7195C23.105 48.5218 23.3174 48.1345 23.3677 47.6662C23.418 47.1965 23.2935 46.7396 23.0522 46.4547L23.0519 46.4544C22.7244 46.0673 22.3437 45.8812 21.958 45.8414C21.5656 45.8009 21.1286 45.9083 20.6986 46.1798L20.6982 46.18C17.469 48.2148 15.2789 51.7321 14.6622 55.5048L17.9252 55.8686ZM17.9252 55.8686C17.7723 56.798 17.0077 57.392 16.0646 57.3193M17.9252 55.8686L16.0646 57.3193M19.1472 52.4739C19.147 52.4751 19.1467 52.4764 19.1465 52.4776C19.1452 52.4853 19.1436 52.4951 19.1423 52.5065C19.1422 52.5069 19.1422 52.5074 19.1421 52.5079C19.1414 52.5139 19.1408 52.5204 19.1403 52.5272C19.1397 52.5358 19.139 52.5544 19.1389 52.5644C19.139 52.5761 19.1403 52.6014 19.1415 52.6151C19.1434 52.6313 19.1494 52.6665 19.1538 52.6854C19.1599 52.7079 19.1771 52.7561 19.1885 52.7815C19.1948 52.7934 19.2049 52.8102 19.2165 52.8279C19.2166 52.8281 19.2167 52.8282 19.2168 52.8284C19.2337 52.8543 19.2534 52.8822 19.2679 52.8995C19.2979 52.9299 19.367 52.9839 19.4058 53.0066C19.4066 53.007 19.4074 53.0074 19.4083 53.0077C19.4191 52.9863 19.43 52.965 19.4409 52.9437C19.4738 52.88 19.5063 52.819 19.5387 52.7586L19.5352 52.7563L19.5387 52.7586C19.5481 52.7411 19.5575 52.7237 19.5668 52.7063C19.5683 52.704 19.5697 52.7017 19.5712 52.6994C19.6006 52.6526 19.6298 52.6055 19.659 52.5583L19.1472 52.4739ZM19.1472 52.4739L19.5608 52.6939L19.1472 52.4739ZM16.0646 57.3193C15.6689 57.2883 15.2806 57.0574 15.0037 56.6989M16.0646 57.3193L15.0037 56.6989M15.0037 56.6989C14.7267 56.3403 14.5977 55.9007 14.6621 55.505L15.0037 56.6989ZM20.8277 50.7499L20.9128 50.7319L20.9892 50.7996L20.9133 50.7318L21.0848 50.6955C21.0522 50.7301 21.0201 50.7648 20.9892 50.7996C20.9679 50.8235 20.9465 50.8474 20.9252 50.8715C20.8854 50.8353 20.8529 50.7939 20.8277 50.7499Z" fill="#303436" stroke="#FAFAFB"/>
<path d="M24.4356 181.347C24.4356 184.361 21.9922 186.805 18.9781 186.805C15.9639 186.805 13.5205 184.361 13.5205 181.347C13.5205 178.333 15.9639 175.89 18.9781 175.89C21.9922 175.89 24.4356 178.333 24.4356 181.347Z" stroke="#303436" stroke-width="2"/>
<path d="M18.8996 200.258C18.8996 202.508 17.0757 204.332 14.8258 204.332C12.5759 204.332 10.752 202.508 10.752 200.258C10.752 198.008 12.5759 196.185 14.8258 196.185C17.0757 196.185 18.8996 198.008 18.8996 200.258Z" stroke="#303436" stroke-width="2"/>
<path d="M15.7346 90.9409C14.0683 97.3106 12.5687 111.579 19.9003 117.694" stroke="#303436" stroke-width="3" stroke-linecap="round" stroke-linejoin="round"/>
<path d="M114.457 23.5981C123.067 25.7506 142.686 35.2216 152.28 55.886" stroke="#303436" stroke-width="3" stroke-linecap="round" stroke-linejoin="round"/>
<path d="M116.764 185.498C124.451 187.958 143.332 190.664 157.354 181.808" stroke="#303436" stroke-width="3" stroke-linecap="round" stroke-linejoin="round"/>
<path d="M51.7266 30.9781C56.0316 24.0592 69.3466 9.94476 88.1657 8.83789" stroke="#303436" stroke-width="3" stroke-linecap="round" stroke-linejoin="round"/>
</g>
<defs>
<clipPath id="clip0_2461_2549">
<rect width="214.945" height="214.022" fill="white" transform="translate(0.527344 0.535156)"/>
</clipPath>
</defs>
</svg>
