<svg width="19" height="19" viewBox="0 0 19 19" fill="none" xmlns="http://www.w3.org/2000/svg">
<path fill-rule="evenodd" clip-rule="evenodd" d="M3.16694 1.31092C2.55284 0.754899 1.60426 0.801983 1.04823 1.41609C0.492204 2.0302 0.539287 2.97878 1.15339 3.5348L7.81337 9.56489L1.15358 15.5948C0.539475 16.1508 0.492391 17.0994 1.04842 17.7135C1.60444 18.3276 2.55302 18.3747 3.16713 17.8187L9.58427 12.0085L16.0014 17.8187C16.6155 18.3747 17.5641 18.3276 18.1201 17.7135C18.6761 17.0994 18.6291 16.1508 18.015 15.5948L11.355 9.56472L18.0148 3.5348C18.6289 2.97878 18.676 2.0302 18.1199 1.41609C17.5639 0.801983 16.6153 0.754899 16.0012 1.31092L9.58408 7.12115L3.16694 1.31092Z" fill="#577BFA"/>
</svg>
