<svg width="508" height="343" viewBox="0 0 508 343" fill="none" xmlns="http://www.w3.org/2000/svg">
<g clip-path="url(#clip0_976_657)">
<path fill-rule="evenodd" clip-rule="evenodd" d="M213.506 179.283C213.506 179.283 225.973 177.425 235.235 171.288C243.986 165.522 251.489 152.639 251.489 152.639C251.489 152.639 244.853 175.292 235.639 183.423C226.936 191.183 215.488 191.105 215.488 191.105L213.506 179.283Z" fill="#303436"/>
<path d="M278.376 183.767C277.985 183.767 277.603 183.582 277.36 183.236C271.239 174.395 265.864 142.869 265.637 141.532C265.524 140.859 265.977 140.224 266.646 140.111C267.313 139.998 267.953 140.451 268.066 141.121C268.121 141.442 273.573 173.44 279.385 181.828C279.773 182.388 279.634 183.158 279.074 183.546C278.864 183.695 278.618 183.767 278.376 183.767Z" fill="#303436"/>
<path d="M213.933 206.909C213.635 206.909 213.334 206.802 213.098 206.582C212.597 206.119 212.565 205.339 213.024 204.837C216.326 201.244 214.819 189.435 212.309 179.585C212.141 178.924 212.539 178.254 213.199 178.083C213.858 177.914 214.528 178.312 214.699 178.973C216.358 185.489 219.696 201.215 214.838 206.504C214.599 206.776 214.266 206.909 213.933 206.909Z" fill="#303436"/>
<path fill-rule="evenodd" clip-rule="evenodd" d="M180.956 112.713C180.943 109.877 182.867 107.507 184.83 107.695C186.823 107.601 188.572 110.035 188.585 112.871C188.598 115.707 186.674 118.076 184.711 117.889C182.441 117.957 180.688 115.522 180.956 112.713Z" fill="#303436"/>
<path fill-rule="evenodd" clip-rule="evenodd" d="M212.698 115.451C212.966 112.641 214.89 110.275 217.134 110.489C219.379 110.702 221.132 113.136 220.863 115.946C220.595 118.756 218.671 121.122 216.426 120.909C214.463 120.724 212.714 118.29 212.698 115.451Z" fill="#303436"/>
<path d="M126.622 90.862C127.182 90.7649 127.767 90.7001 128.304 90.8782C128.44 90.9235 128.576 90.9915 128.653 91.1112C128.718 91.2148 128.731 91.3411 128.737 91.4641C128.815 93.0276 128.168 94.5264 127.534 95.9572C127.344 96.3877 127.14 96.8344 126.787 97.1484C126.406 97.4883 125.892 97.634 125.394 97.7538C124.44 97.9804 123.414 98.1357 122.496 97.7926C122.03 97.621 121.619 97.3265 121.231 97.0222C120.614 96.5398 118.224 96.1967 118.085 95.3648C117.92 94.3807 120.171 93.3189 120.872 92.9208C122.654 91.9108 124.608 91.2084 126.622 90.862Z" fill="#303436"/>
<path d="M344.064 168.75C343.589 168.75 343.136 168.471 342.932 168.008C340.904 163.353 336.461 159.411 330.423 156.912C325.828 155.008 320.783 154.044 315.903 153.108C314.984 152.933 314.069 152.755 313.154 152.574C301.052 150.175 283.864 145.449 274.385 132.171C273.991 131.617 274.117 130.847 274.673 130.448C275.226 130.053 275.996 130.18 276.393 130.736C285.361 143.303 301.942 147.838 313.632 150.156C314.541 150.337 315.453 150.512 316.365 150.687C321.368 151.645 326.539 152.635 331.368 154.633C337.997 157.378 342.91 161.78 345.193 167.024C345.464 167.649 345.18 168.377 344.556 168.649C344.397 168.717 344.229 168.75 344.064 168.75Z" fill="#303436"/>
<path d="M463.407 289.241C463.307 289.241 463.203 289.228 463.1 289.202C462.912 289.153 443.955 284.246 400.568 268.19C384.253 262.153 356.298 260.039 356.017 260.016C355.338 259.968 354.827 259.375 354.878 258.695C354.93 258.016 355.503 257.511 356.198 257.556C357.356 257.643 384.78 259.715 401.422 265.875C444.66 281.876 463.523 286.764 463.708 286.813C464.367 286.981 464.765 287.655 464.597 288.315C464.458 288.868 463.957 289.241 463.407 289.241Z" fill="#303436"/>
<path d="M284.343 474.681C253.109 474.681 213.613 466.093 211.763 465.688C205.77 464.371 207.319 452.39 209.46 435.803C211.397 420.809 213.807 402.151 210.204 389.72C202.792 364.154 189.675 339.921 177.962 319.213C167.484 300.687 167.665 281.899 167.836 263.726C167.978 248.965 168.124 233.699 162.565 218.562C162.329 217.921 162.658 217.212 163.296 216.979C163.933 216.743 164.644 217.073 164.877 217.711C170.591 233.272 170.443 248.764 170.297 263.749C170.119 282.417 169.948 300.05 180.102 317.996C191.884 338.823 205.082 363.208 212.568 389.031C216.316 401.956 213.868 420.9 211.902 436.117C210.23 449.059 208.5 462.445 212.287 463.277C214.331 463.723 262.714 474.237 294.374 471.865C343.608 468.168 369.732 456.521 369.991 456.404C370.608 456.123 371.343 456.398 371.624 457.016C371.905 457.638 371.63 458.369 371.013 458.648C370.751 458.767 344.281 470.589 294.562 474.322C291.309 474.571 287.877 474.681 284.343 474.681Z" fill="#303436"/>
<path d="M248.174 159.369L247.194 158.618C242.175 164.551 239.41 167.818 230.517 171.916C217.584 177.639 200.648 181.915 194.047 177.785C190.726 175.583 186.674 170.88 182.935 164.881C176.509 154.474 174.307 144.083 174.375 138.305C174.268 133.941 174.689 129.749 175.096 125.693C175.342 123.23 175.598 120.685 175.737 118.105C175.931 113.512 175.882 109.304 175.83 104.846L175.804 102.454C175.804 102.419 175.795 102.334 175.792 102.299C175.737 101.729 176.076 98.2589 176.325 95.7242C176.4 94.9538 176.467 94.2546 176.532 93.5942C175.714 93.7399 174.88 93.7464 174.045 93.6881C173.987 94.2967 173.929 94.9053 173.871 95.4847C173.447 99.8289 173.269 101.787 173.337 102.538L173.363 104.872C173.415 109.294 173.463 113.473 173.272 117.986C173.14 120.494 172.887 123.01 172.642 125.444C172.228 129.575 171.798 133.844 171.908 138.318C171.833 144.676 174.139 155.332 180.84 166.183C182.696 169.158 187.566 176.448 192.715 179.859C194.995 181.287 198.096 181.866 201.615 181.866C211.203 181.866 223.9 177.542 231.532 174.162C240.94 169.831 244.002 166.209 249.118 160.165L248.174 159.369Z" fill="#303436"/>
<path d="M258.73 144.883C258.122 144.883 257.588 144.43 257.51 143.808C257.423 143.132 257.899 142.513 258.574 142.426C266.527 141.397 271.42 137.991 273.975 131.705C275.608 127.581 275.142 123.104 272.784 120.31C270.754 117.905 267.571 117.024 263.823 117.821C263.16 117.96 262.504 117.536 262.361 116.869C262.219 116.202 262.646 115.548 263.312 115.406C267.988 114.409 272.024 115.584 274.667 118.717C277.648 122.252 278.263 127.581 276.261 132.627C273.373 139.733 267.691 143.737 258.888 144.876C258.833 144.88 258.781 144.883 258.73 144.883Z" fill="#303436"/>
<path d="M263.018 132.533C262.795 132.533 262.568 132.471 262.361 132.342C261.786 131.979 261.611 131.222 261.97 130.646C262.032 130.545 263.519 128.195 266.181 126.865C266.792 126.561 267.529 126.807 267.836 127.415C268.14 128.024 267.895 128.765 267.287 129.073C265.265 130.086 264.075 131.937 264.062 131.957C263.826 132.329 263.425 132.533 263.018 132.533Z" fill="#303436"/>
<path d="M192.721 139.163C192.343 139.163 191.971 138.991 191.728 138.661C187.22 132.549 189.132 130.358 192.097 128.131C193.4 127.15 194.749 126.14 195.357 124.298C196.728 119.895 196.292 114.548 194.092 108.847C193.847 108.213 194.164 107.497 194.797 107.251C195.435 107.005 196.146 107.323 196.392 107.957C198.795 114.182 199.247 120.093 197.705 125.049C196.851 127.645 195.037 129.008 193.578 130.102C191.327 131.795 190.299 132.565 193.711 137.191C194.115 137.738 193.999 138.512 193.452 138.917C193.232 139.085 192.977 139.163 192.721 139.163Z" fill="#303436"/>
<path d="M224.285 99.081C223.997 99.081 223.706 98.9806 223.473 98.7735C223.25 98.5792 218.066 94.18 209.851 96.4946C209.192 96.6758 208.516 96.2971 208.332 95.64C208.147 94.9828 208.529 94.303 209.185 94.1185C218.745 91.4253 224.847 96.6953 225.106 96.9219C225.617 97.3718 225.662 98.152 225.213 98.6634C224.964 98.9386 224.624 99.081 224.285 99.081Z" fill="#303436"/>
<path d="M187.971 91.8363C187.783 91.7295 187.599 91.6518 187.411 91.5547C186.57 92.0629 185.749 92.6003 184.931 93.1376C185.529 93.3675 186.14 93.6394 186.768 93.9922C186.958 94.099 187.165 94.1476 187.369 94.1476C187.802 94.1476 188.22 93.921 188.446 93.5164C188.776 92.9207 188.566 92.1665 187.971 91.8363Z" fill="#303436"/>
<path d="M198.675 162.415C186.457 162.415 183.961 146.34 183.935 146.178C183.876 145.773 184.019 145.368 184.316 145.093C184.617 144.818 185.034 144.708 185.429 144.795C185.493 144.808 191.796 146.239 198.639 146.893C205.466 147.262 212.526 146.281 212.594 146.272C213.011 146.213 213.422 146.369 213.697 146.683C213.972 146.997 214.069 147.43 213.952 147.832C213.784 148.421 209.742 162.243 198.74 162.415C198.72 162.415 198.698 162.415 198.675 162.415ZM186.758 147.596C187.728 151.393 190.784 159.945 198.665 159.945C198.685 159.945 198.701 159.945 198.717 159.945C205.732 159.835 209.531 152.451 210.938 148.955C208.286 149.234 203.384 149.625 198.481 149.357C193.688 148.9 189.19 148.081 186.758 147.596Z" fill="#303436"/>
<path d="M254.305 116.464C242.185 116.464 231.859 103.228 227.04 89.849C225.947 86.9032 224.993 84.0966 224.152 81.6203L223.909 80.9113C223.69 80.2672 224.036 79.5647 224.679 79.3446C225.319 79.1245 226.021 79.4708 226.244 80.115L226.484 80.8272C227.321 83.2874 228.269 86.0777 229.352 89.0041C234.274 102.674 245.102 116.222 257.245 113.693C257.915 113.551 258.565 113.981 258.704 114.648C258.843 115.315 258.416 115.969 257.746 116.108C256.589 116.351 255.437 116.464 254.305 116.464Z" fill="#303436"/>
<path d="M267.5 43.6653C267.102 43.6653 266.714 43.4743 266.475 43.1183C255.832 27.2436 214.829 33.3649 202.698 40.6581C202.116 41.0077 201.356 40.8199 201.007 40.2373C200.654 39.6546 200.845 38.8939 201.427 38.5443C214.476 30.6975 256.944 24.4661 268.522 41.7425C268.9 42.309 268.752 43.0762 268.186 43.4549C267.976 43.5974 267.736 43.6653 267.5 43.6653Z" fill="#303436"/>
<path d="M173.091 134.893C162.254 124.968 160.996 107.721 161.665 95.7563C160.844 95.9279 160.016 96.0865 159.179 96.1545C158.558 108.582 160.039 126.289 171.426 136.715C171.662 136.932 171.959 137.039 172.257 137.039C172.59 137.039 172.923 136.903 173.165 136.638C173.628 136.136 173.596 135.352 173.091 134.893Z" fill="#303436"/>
<path d="M167.561 68.4515C167.432 68.4515 167.299 68.4321 167.17 68.3867C166.523 68.1699 166.177 67.4706 166.39 66.8232C170.882 53.3699 177.777 44.6621 185.801 42.3023C190.451 40.9362 195.176 41.9235 199.108 45.0862C199.639 45.5135 199.723 46.2904 199.299 46.8212C198.872 47.3521 198.096 47.4395 197.566 47.0122C194.232 44.3319 190.406 43.5259 186.496 44.6718C179.375 46.7662 172.9 55.1244 168.732 67.6066C168.557 68.1245 168.075 68.4515 167.561 68.4515Z" fill="#303436"/>
<path d="M169.877 125.635C169.424 125.635 168.987 125.382 168.771 124.949C160.724 108.666 165.647 100.78 170.407 93.1538C170.769 92.5744 171.529 92.3996 172.105 92.7621C172.684 93.1247 172.858 93.8854 172.496 94.4616C167.69 102.159 163.541 108.805 170.979 123.854C171.28 124.466 171.031 125.204 170.42 125.509C170.248 125.593 170.061 125.635 169.877 125.635Z" fill="#303436"/>
<path d="M191.615 179.186C191.57 179.186 191.528 179.183 191.483 179.18C191.253 179.154 168.557 176.719 160.689 176.396C105.155 174.127 60.0933 159.65 59.6438 159.505C58.997 159.294 58.6413 158.598 58.8515 157.951C59.0617 157.303 59.757 156.947 60.4038 157.158C60.8501 157.303 105.608 171.676 160.786 173.929C168.735 174.253 190.807 176.622 191.741 176.723C192.417 176.797 192.909 177.402 192.834 178.082C192.773 178.717 192.236 179.186 191.615 179.186Z" fill="#303436"/>
<path d="M224.155 232.941C223.25 232.941 222.357 232.77 221.484 232.362C219.887 231.608 218.813 230.19 217.933 228.918C208.393 215.157 203.843 197.699 205.45 181.028C205.515 180.348 206.107 179.85 206.795 179.918C207.475 179.982 207.969 180.588 207.905 181.264C206.352 197.366 210.747 214.221 219.961 227.513C220.692 228.568 221.494 229.639 222.535 230.131C224.269 230.947 226.503 230.154 228.66 229.176C244.012 222.21 258.228 213.046 270.915 201.933C280.953 193.144 282.124 189.454 285.025 176.742C285.177 176.078 285.833 175.658 286.503 175.813C287.166 175.965 287.583 176.626 287.431 177.292C284.453 190.348 283.123 194.523 272.542 203.791C259.674 215.063 245.254 224.36 229.679 231.426C227.871 232.239 225.992 232.941 224.155 232.941Z" fill="#303436"/>
<path d="M432.966 193.484C432.94 193.484 432.914 193.484 432.888 193.481C432.131 193.433 414.244 192.012 406.787 165.396C402.935 151.655 391.267 133.728 373.884 124.657C367.054 121.093 360.599 119.281 354.358 117.529C343.573 114.503 333.386 111.641 322.655 100.444C316.229 93.7399 310.693 85.0548 305.341 76.6545C296.493 62.7771 288.136 49.6702 276.494 45.5623C275.85 45.3357 275.514 44.63 275.74 43.9891C275.967 43.3481 276.672 43.0082 277.312 43.2348C289.759 47.6243 298.336 61.0809 307.42 75.3273C312.711 83.6272 318.179 92.2055 324.437 98.7347C334.702 109.446 344.575 112.217 355.027 115.15C361.388 116.937 367.97 118.782 375.026 122.469C393.062 131.883 405.166 150.48 409.164 164.733C416.155 189.678 432.878 191.011 433.046 191.021C433.726 191.063 434.243 191.649 434.201 192.329C434.156 192.979 433.612 193.484 432.966 193.484Z" fill="#303436"/>
<path d="M54.9903 162.609C54.3888 162.609 53.8616 162.169 53.7711 161.554C53.6708 160.88 54.1397 160.252 54.8124 160.155C58.9551 159.55 66.6422 149.016 70.772 143.358C72.4342 141.079 73.7505 139.279 74.5557 138.428C86.1527 126.179 124.433 97.5303 126.057 96.3164C126.6 95.9085 127.376 96.0218 127.78 96.5657C128.188 97.1127 128.075 97.8864 127.531 98.2911C127.137 98.5856 87.7956 128.027 76.3441 140.124C75.6456 140.862 74.3099 142.691 72.7609 144.811C66.2121 153.784 59.9382 161.897 55.1681 162.593C55.1099 162.606 55.0517 162.609 54.9903 162.609Z" fill="#303436"/>
<path d="M169.11 259.893C168.929 259.893 168.745 259.855 168.573 259.77C168.573 259.77 144.205 247.91 108.929 230.769C95.7639 224.37 81.9711 218.889 68.631 213.59C41.2199 202.697 17.5441 193.294 7.34099 179.432C-6.80758 160.214 2.84255 149.195 8.61194 142.607C21.2891 128.134 36.6019 115.704 51.4102 103.684L51.5136 103.6C56.8691 99.2529 62.6482 95.2518 68.2332 91.3867C72.5441 88.4054 76.9972 85.3204 81.2111 82.1092C83.284 80.5295 85.3441 78.9272 87.4041 77.3248C93.4354 72.6375 99.6705 67.7916 106.18 63.538C106.75 63.1658 107.513 63.3244 107.888 63.8973C108.26 64.4671 108.098 65.2343 107.529 65.6065C101.106 69.8018 94.9101 74.6186 88.9176 79.2735C86.8511 80.8824 84.7814 82.488 82.7052 84.0709C78.4461 87.3177 73.967 90.4156 69.6367 93.4164C64.0873 97.2556 58.3502 101.227 53.0659 105.517L52.9625 105.601C38.235 117.555 23.0063 129.918 10.4682 144.232C4.84761 150.648 -3.64477 160.343 9.32987 177.963C19.1158 191.254 43.6098 200.988 69.5462 211.292C82.9283 216.607 96.7632 222.107 110.013 228.542C145.289 245.686 169.657 257.547 169.657 257.547C170.268 257.844 170.523 258.582 170.226 259.198C170.006 259.638 169.566 259.893 169.11 259.893Z" fill="#303436"/>
<path d="M279.783 179.487C278.586 179.487 277.341 179.367 275.928 179.138C275.255 179.028 274.799 178.396 274.906 177.723C275.016 177.05 275.65 176.587 276.319 176.703C279.954 177.292 282.263 177.082 285.824 175.845C286.467 175.622 287.169 175.962 287.392 176.606C287.615 177.25 287.276 177.953 286.632 178.176C284.058 179.073 282.011 179.487 279.783 179.487Z" fill="#303436"/>
<path d="M460.37 413.681C454.161 413.681 444.527 411.156 442.079 410.486C430.434 407.297 425.266 403.601 426.278 399.185C427.2 395.175 436.727 360.195 441.238 345.437C445.572 331.261 447.434 306.588 447.903 299.363C448.324 292.857 447.703 286.687 447.696 286.625C447.625 285.949 448.12 285.34 448.796 285.272C449.462 285.191 450.077 285.693 450.148 286.373C450.174 286.632 450.798 292.802 450.361 299.522C449.889 306.812 448.007 331.724 443.596 346.155C439.094 360.878 429.599 395.738 428.684 399.732C428.318 401.322 429.661 404.523 442.732 408.1C455.626 411.632 462.618 411.58 463.488 410.768C464.95 408.809 482.507 368.951 489.159 347.065C495.029 327.756 505.95 291.814 505.526 276.684C505.122 262.386 503.838 257.783 492.988 248.813L492.5 248.408C481.63 239.419 473.775 232.922 428.758 215.374C416.233 210.492 405.493 205.442 395.106 200.561C375.459 191.328 358.491 183.352 339.132 181.737C320.456 180.18 307.996 178.691 299.752 177.704C291.994 176.775 286.39 176.104 285.753 176.81C285.753 176.81 285.682 176.936 285.727 177.438C285.788 178.118 285.287 178.717 284.611 178.778C283.932 178.85 283.334 178.338 283.272 177.661C283.204 176.92 283.211 175.842 284.035 175.036C285.591 173.521 288.65 173.887 300.047 175.247C308.274 176.231 320.709 177.717 339.339 179.27C359.141 180.921 376.294 188.985 396.157 198.317C406.509 203.183 417.21 208.213 429.657 213.066C475.043 230.759 483.441 237.706 494.071 246.498L494.56 246.903C505.937 256.307 507.56 261.392 507.99 276.61C508.43 292.141 497.431 328.335 491.52 347.777C485.152 368.721 467.2 410.211 465.354 412.373C464.549 413.325 462.699 413.681 460.37 413.681Z" fill="#303436"/>
<path d="M403.786 411.545C403.226 411.545 402.718 411.159 402.586 410.59C402.563 410.496 400.309 400.985 395.006 393.362C389.582 385.57 362.689 352.445 362.417 352.108C362.391 352.079 362.372 352.05 362.349 352.018C362.081 351.619 355.81 342.096 355.409 328.141C355.234 322.013 355.312 317.057 355.402 311.318C355.525 303.733 355.661 295.135 355.218 281.436C354.452 257.744 355.218 233.802 355.228 233.563C355.25 232.883 355.833 232.359 356.499 232.368C357.181 232.391 357.715 232.961 357.689 233.644C357.682 233.883 356.916 257.747 357.679 281.358C358.125 295.113 357.986 303.743 357.867 311.357C357.776 317.067 357.699 321.997 357.87 328.07C358.235 340.824 363.917 349.904 364.367 350.6C365.955 352.552 391.607 384.159 397.023 391.947C402.605 399.969 404.888 409.618 404.982 410.026C405.137 410.69 404.724 411.354 404.061 411.509C403.973 411.532 403.879 411.545 403.786 411.545Z" fill="#303436"/>
<path d="M421.33 203.908C416.925 203.908 412.417 201.985 409.015 198.596C405.684 195.278 403.427 190.713 402.486 185.398C402.366 184.728 402.815 184.087 403.485 183.967C404.154 183.851 404.795 184.297 404.914 184.967C405.509 188.324 407.003 193.109 410.755 196.844C414.031 200.107 418.452 201.804 422.594 201.373C423.254 201.305 423.875 201.797 423.946 202.474C424.017 203.15 423.522 203.759 422.847 203.827C422.342 203.882 421.838 203.908 421.33 203.908Z" fill="#303436"/>
<path d="M166.723 34.4978C166.355 34.4978 165.989 34.3327 165.747 34.0187L152.973 17.529C152.555 16.9916 152.653 16.2147 153.193 15.7971C153.733 15.3796 154.506 15.4767 154.923 16.0173L167.697 32.507C168.114 33.0476 168.017 33.8213 167.477 34.2389C167.251 34.4137 166.985 34.4978 166.723 34.4978Z" fill="#303436"/>
<path d="M183.129 26.6414C182.638 26.6414 182.172 26.3436 181.981 25.8581L173.589 4.558C173.34 3.92353 173.651 3.20813 174.284 2.95564C174.918 2.70639 175.633 3.01715 175.885 3.65162L184.277 24.9517C184.526 25.5861 184.216 26.3015 183.582 26.554C183.433 26.6123 183.278 26.6414 183.129 26.6414Z" fill="#303436"/>
<path d="M200.156 21.7633C199.558 21.7633 199.034 21.3263 198.94 20.7177L195.958 1.42466C195.855 0.751342 196.314 0.120109 196.99 0.0165224C197.656 -0.0870645 198.293 0.372602 198.397 1.04915L201.379 20.3422C201.482 21.0155 201.023 21.6468 200.347 21.7504C200.282 21.7568 200.218 21.7633 200.156 21.7633Z" fill="#303436"/>
<path d="M124.226 99.3563C122.357 99.3563 120.426 98.5599 118.916 97.5403C116.047 95.6045 113.881 92.9792 112.138 90.6679C108.771 86.2007 106.646 82.2838 105.446 78.3378C103.923 73.3398 104.02 68.2834 105.715 64.1076C106.035 63.3145 106.756 62.7286 107.642 62.5408C108.554 62.3466 109.476 62.5991 110.116 63.2109C110.608 63.6835 110.621 64.4637 110.152 64.9557C109.68 65.4477 108.9 65.4639 108.409 64.9913C108.373 64.9557 108.273 64.9298 108.16 64.9557C108.066 64.9751 108.011 65.0172 108.005 65.0366C106.523 68.6913 106.452 73.1585 107.81 77.6192C108.923 81.2803 110.928 84.9512 114.113 89.1821C115.734 91.3315 117.736 93.7626 120.3 95.4944C121.969 96.6209 124.482 97.5144 126.063 96.3199C127.373 95.3293 127.903 94.0863 127.732 92.403C127.664 91.7232 128.155 91.1179 128.834 91.0499C129.507 90.9754 130.118 91.4739 130.186 92.1537C130.442 94.6754 129.53 96.7957 127.547 98.2913C126.535 99.0455 125.394 99.3563 124.226 99.3563Z" fill="#303436"/>
<path d="M191.612 78.3345C191.059 78.3345 190.554 77.959 190.415 77.3958C190.254 76.7322 190.655 76.0653 191.318 75.9002C191.651 75.8193 224.64 67.6521 229.818 65.5707L230.18 65.4282C231.16 65.0398 232.981 64.3212 233.204 63.5928C233.278 63.35 233.1 63.0101 232.935 62.7674C232.033 61.4369 230.293 61.6052 227.936 61.9872L227.24 62.0973C221.406 62.9681 215.446 64.4183 209.14 65.9559C203.71 67.2799 198.093 68.6491 192.288 69.698C186.467 70.75 168.036 69.1865 159.955 66.9497C153.907 65.2761 144.483 63.6219 136.169 62.162C133.886 61.7606 131.706 61.3786 129.727 61.0193C126.014 60.3428 122.273 60.5111 118.903 61.5049C117.48 61.9257 116.309 62.4178 115.42 62.9713C111.429 65.4574 106.976 66.9756 106.792 67.0371C106.142 67.254 105.446 66.9076 105.23 66.2634C105.013 65.6192 105.359 64.9168 106.003 64.6999C106.045 64.6837 110.378 63.2044 114.12 60.8769C115.197 60.2068 116.571 59.6209 118.208 59.1386C121.943 58.0347 126.082 57.847 130.17 58.5915C132.143 58.9508 134.319 59.3328 136.596 59.7342C144.965 61.2038 154.451 62.8709 160.614 64.5737C168.289 66.6972 186.389 68.2607 191.851 67.2701C197.585 66.231 203.164 64.8715 208.558 63.5572C214.922 62.0066 220.931 60.5402 226.878 59.6533L227.544 59.5497C229.902 59.171 233.123 58.6498 234.976 61.3786C235.823 62.6282 235.762 63.664 235.561 64.3179C234.989 66.1793 232.732 67.0727 231.086 67.7233L230.736 67.8625C225.4 70.0055 193.274 77.959 191.909 78.2957C191.809 78.3248 191.712 78.3345 191.612 78.3345Z" fill="#303436"/>
<path d="M147.132 97.8705C139.765 97.8705 136.78 95.4006 134.966 93.8986C134.423 93.4487 133.95 93.0602 133.604 92.9566C131.509 92.3351 123.819 91.1795 123.741 91.1698C123.068 91.0694 122.603 90.4414 122.703 89.7648C122.803 89.0915 123.43 88.6286 124.106 88.7257C124.43 88.7743 132.049 89.9202 134.306 90.5871C135.134 90.8331 135.784 91.3705 136.538 91.9952C138.265 93.426 140.878 95.5884 148.021 95.3877C154.641 95.2032 162.257 94.0022 168.978 92.9437C172.635 92.3675 176.089 91.8236 178.909 91.5226C180.351 91.3705 181.813 91.2474 183.255 91.1277C189.009 90.6486 194.959 90.1533 196.055 87.6802C196.178 87.3985 196.123 87.3111 196.081 87.2432C195.418 86.2041 191.395 85.4369 188.055 85.3754C187.376 85.3624 186.832 84.7991 186.845 84.1194C186.858 83.4363 187.437 82.9119 188.1 82.9087C189.474 82.9346 196.427 83.1968 198.161 85.916C198.685 86.7349 198.736 87.719 198.31 88.6804C196.621 92.4937 190.522 92.9987 183.459 93.5879C182.036 93.7076 180.591 93.8274 179.168 93.9763C176.412 94.2676 172.988 94.8082 169.362 95.3812C162.568 96.4527 154.868 97.6666 148.089 97.8543C147.763 97.8673 147.443 97.8705 147.132 97.8705Z" fill="#303436"/>
<path d="M166.364 93.5098C165.905 93.5098 165.465 93.2541 165.252 92.8106C164.954 92.1955 165.213 91.4575 165.824 91.1629C166.235 90.9655 175.921 86.2879 179.617 85.1419C180.587 84.8409 183.96 83.9507 188.63 82.7206C201.45 79.3411 225.313 73.0514 231.742 70.3517C235.319 68.8497 240.17 66.6096 240.995 64.4763C241.15 64.0749 241.14 63.7124 240.969 63.3078C240.322 62.9096 237.395 63.2786 234.74 64.1008C234.087 64.2983 233.398 63.9357 233.197 63.2851C232.997 62.6344 233.359 61.9417 234.012 61.741C236.936 60.8346 242.013 59.6952 243.177 62.2071C243.663 63.2527 243.701 64.3177 243.294 65.3698C242.372 67.7555 239.3 69.8564 232.696 72.6306C226.109 75.395 203.041 81.4775 189.261 85.1096C184.623 86.3332 181.27 87.2169 180.351 87.5018C176.833 88.5927 167.002 93.3382 166.905 93.3868C166.727 93.471 166.542 93.5098 166.364 93.5098Z" fill="#303436"/>
<path d="M144.755 86.9938C144.089 86.9938 143.542 86.463 143.523 85.7961C143.504 85.1131 144.037 84.5466 144.72 84.5272C144.839 84.5239 156.633 84.1711 163.561 83.3327C170.168 82.5299 175.882 77.8879 175.94 77.8426C176.464 77.4088 177.243 77.4865 177.674 78.0109C178.107 78.5386 178.029 79.3155 177.505 79.746C177.25 79.9564 171.193 84.893 163.855 85.7799C156.815 86.6345 144.91 86.9874 144.791 86.9906C144.781 86.9938 144.768 86.9938 144.755 86.9938Z" fill="#303436"/>
<path d="M195.211 86.5148C194.655 86.5148 194.147 86.1328 194.015 85.5695C193.856 84.9059 194.264 84.2423 194.927 84.0805C195.021 84.0578 204.428 81.7951 210.321 80.1571C216.788 78.3573 236.474 72.8769 237.615 70.4038C237.822 69.7758 237.906 69.3776 237.939 69.1413C237.77 68.9859 237.644 68.782 237.586 68.5457C237.418 67.8853 237.816 67.2152 238.475 67.0437C238.886 66.9368 239.488 66.9983 239.94 67.4871C240.577 68.1702 240.581 69.2773 239.95 71.1904C239.061 73.8901 231.749 76.7517 210.98 82.5331C205.046 84.1841 195.596 86.4565 195.503 86.4792C195.402 86.5051 195.305 86.5148 195.211 86.5148Z" fill="#303436"/>
</g>
<defs>
<clipPath id="clip0_976_657">
<rect width="508" height="343" fill="white"/>
</clipPath>
</defs>
</svg>
