<svg width="318" height="336" viewBox="0 0 318 336" fill="none" xmlns="http://www.w3.org/2000/svg">
<path d="M16.2818 228.669C15.9764 228.487 15.6053 228.441 15.2632 228.541C14.9212 228.642 14.6356 228.884 14.4783 229.204C12.1724 233.908 9.75655 238.516 7.29641 242.9C5.48681 246.126 3.04806 250.34 0.232112 254.335C-0.0229116 254.697 -0.0702513 255.119 0.102309 255.492C0.294722 255.906 0.734523 256.201 1.22166 256.245C1.26289 256.248 1.30413 256.251 1.34536 256.251C1.77141 256.251 2.15319 256.052 2.40668 255.693C7.10705 249.025 10.9828 241.865 15.3564 233.166C15.8267 232.23 16.3032 231.274 16.7705 230.327C17.0637 229.735 16.8483 229.007 16.2818 228.669Z" fill="#303436"/>
<path d="M72.7936 15.4338C72.4913 15.239 72.1171 15.1796 71.769 15.271L27.8164 26.783C22.9663 28.0542 19.8725 30.2418 18.0827 33.6717C15.7096 38.2174 16.916 42.6505 18.0827 46.9375C18.2049 47.3866 18.3271 47.8372 18.4462 48.2878L47.2806 157.698C47.3845 158.094 47.6624 158.407 48.0442 158.561C48.1999 158.624 48.3633 158.656 48.5252 158.656C48.7573 158.656 48.9879 158.592 49.194 158.465C49.6812 158.168 49.9103 157.599 49.7652 157.048L19.7747 43.2473C18.9196 40.0001 19.0982 37.2781 20.323 34.9246C21.6744 32.3274 24.0536 30.4504 27.0238 29.6389C27.459 29.5202 27.8973 29.4075 28.3341 29.2949C28.5555 29.2386 28.7754 29.1807 28.9968 29.1229L72.3905 17.757C73.0441 17.5849 73.4732 16.9471 73.3648 16.3031C73.3037 15.9454 73.096 15.6287 72.7936 15.4338Z" fill="#303436"/>
<path d="M317.481 301.869C297.803 282.68 292.079 277.473 289.421 273.994C287.606 271.621 283.052 264.192 277.286 254.788L277.116 254.512C275.114 251.247 272.845 247.546 270.513 243.772C270.308 243.442 269.988 243.21 269.609 243.121C269.23 243.031 268.839 243.093 268.508 243.297C267.825 243.717 267.612 244.614 268.032 245.296C270.391 249.117 272.686 252.859 274.711 256.161L274.803 256.31C280.61 265.782 285.198 273.263 287.103 275.755C289.884 279.395 294.599 284.442 314.659 304.003L317.481 301.869Z" fill="#303436"/>
<path d="M258.025 223.887C249.298 210.307 242.417 200.416 236.988 193.647C231.501 186.807 227.5 183.184 224.757 182.572C214.271 180.228 209.274 182.266 207.614 183.251L207.611 183.253C203.876 182.784 199.805 182.986 195.509 183.854C191.346 184.442 188.107 185.421 185.879 186.763C185.485 186.704 184.907 186.623 184.177 186.536C180.903 186.092 177.702 185.931 174.675 186.055C172.939 186.092 171.3 186.2 169.756 186.378L168.257 180.596C168.263 180.592 168.269 180.59 168.277 180.586C172.563 177.722 176.14 174.24 178.907 170.238C180.757 167.56 183.479 162.348 180.901 157.52C179.241 154.41 175.608 152.717 170.395 152.626C167.426 152.574 164.294 152.807 160.685 153.366L156.906 137.687C161.373 134.522 166.03 130.534 168.513 125.374C170.314 121.632 170.288 117.793 168.441 114.566C166.093 110.461 162.005 108.633 157.506 109.674C154.944 110.266 152.561 111.487 150.37 112.978L149.361 108.899C150.831 108.141 152.129 107.316 153.187 106.604C155.677 104.929 158.848 102.612 161.315 99.5384C163.993 96.1984 165.213 92.9512 164.94 89.8852C164.787 88.1786 164.17 86.4751 163.156 84.9588C162.941 84.6376 162.596 84.4352 162.208 84.4032C161.814 84.3697 161.434 84.5158 161.162 84.8035C160.75 85.2405 160.695 85.889 161.027 86.3822C161.698 87.3779 162.132 88.4344 162.316 89.5213C162.865 92.7655 160.973 95.9137 159.288 97.9856C157.011 100.785 154.113 102.898 151.842 104.427C149.357 106.098 146.016 108.09 142.18 108.656C138.764 108.979 135.762 107.727 134.143 105.31C132.404 102.709 133.161 99.6846 133.767 98.1135C134.641 95.8498 136.017 93.5891 137.784 91.4623C137.897 91.4014 138.001 91.3268 138.092 91.237C138.233 91.0985 138.33 90.9341 138.39 90.7575C140.274 88.6262 142.548 86.6456 145.1 84.9528C147.097 83.6268 149.584 81.9765 152.184 81.8441C153.681 81.768 155.257 82.0938 156.742 82.788C157.224 83.0117 157.781 82.9219 158.163 82.5581L158.175 82.5459C158.479 82.2567 158.619 81.8365 158.552 81.4224C158.483 81.0083 158.216 80.6567 157.836 80.4785C156.474 79.8437 155.047 79.454 153.594 79.32C150.251 79.011 147.439 80.5105 145.066 81.9415C144.19 82.4698 143.341 83.0331 142.519 83.6222L138.749 69.1979C139.044 68.7716 139.346 68.3408 139.65 67.9054C143.782 62.0002 148.466 55.3064 146.164 47.6931C145.164 44.3804 142.567 41.762 139.219 40.6872C136.567 39.8362 133.818 40.0524 131.44 41.2566C131.236 40.4786 131.031 39.7007 130.826 38.9258L126.395 22.1099C126.175 21.2741 125.972 20.4338 125.758 19.5447C124.912 16.0281 124.037 12.3927 122.073 9.38756C117.722 2.72269 109.539 -0.419451 101.708 1.55809C100.391 1.88996 99.0583 2.24315 97.7695 2.58568C97.1143 2.75923 96.4592 2.93278 95.8041 3.1048L32.6011 19.6574C31.7749 19.8736 30.9503 20.0897 30.1241 20.3044C28.4611 20.7383 26.7997 21.1721 25.1382 21.6106C18.7183 23.308 13.7232 27.9512 11.7777 34.0315C10.1224 39.2044 11.3639 43.843 12.6787 48.7557C12.7826 49.1454 12.8879 49.5367 12.9918 49.9294L20.4363 78.1752C18.332 77.1126 16.6919 77.7292 15.5649 78.6411C13.2559 80.5105 12.5611 83.7912 11.9503 86.6852C11.8266 87.2728 11.709 87.827 11.5823 88.3506C11.3792 89.1864 11.1806 90.0252 10.9806 90.8656C9.29163 97.9628 7.54465 105.302 3.76053 111.666C3.64294 111.862 3.58644 112.058 3.57575 112.246C3.50398 112.322 3.43831 112.41 3.38028 112.513C0.495617 117.696 2.98171 123.404 5.46934 127.798C8.96789 133.979 11.4479 139.155 13.2743 144.089C15.4046 149.845 16.8874 155.645 17.683 161.331C18.0663 164.074 18.3305 166.881 18.5855 169.596C18.9107 173.056 19.2467 176.634 19.8362 180.133C20.9845 186.961 22.8644 193.775 25.4238 200.39C25.5139 200.621 25.6559 200.812 25.8361 200.955C25.6131 202.963 24.8771 204.98 24.1639 206.933C24.0799 207.164 23.9959 207.393 23.9135 207.621C22.9514 210.282 19.8896 217.443 18.8848 219.797C18.7458 220.121 18.7474 220.493 18.8894 220.817C19.0299 221.14 19.3017 221.392 19.6331 221.513C19.7781 221.564 19.9263 221.59 20.0713 221.59C20.5768 221.59 21.0533 221.293 21.2594 220.803L21.6946 219.776C22.9392 216.839 25.2558 211.372 26.0438 209.255L26.2194 208.786C27.1585 206.266 28.1298 203.663 28.4108 200.968C28.4581 200.518 28.2748 200.128 27.945 199.898C27.9312 199.807 27.9083 199.716 27.8717 199.624C25.688 193.981 24.0005 188.187 22.8552 182.402C21.9664 177.915 21.516 173.297 21.0792 168.831C20.925 167.256 20.7662 165.627 20.589 164.022C19.3719 152.955 15.9451 141.982 10.4034 131.404C9.90858 130.461 9.33745 129.488 8.73272 128.457C6.01756 123.829 2.94048 118.583 5.6083 113.789C5.7152 113.597 5.76559 113.407 5.77475 113.223C5.84805 113.148 5.91525 113.063 5.9748 112.964C9.58941 106.884 11.3914 100.135 13.0651 93.1796C13.2865 92.2585 13.4988 91.3116 13.7034 90.3967C14.2363 88.0096 14.7876 85.5404 15.5848 83.2294C16.0139 81.9841 16.7881 80.4466 18.0357 80.1954C19.3826 79.9244 20.6119 81.2702 21.5312 82.3252L27.412 104.643C26.9707 110.14 25.8972 115.596 24.9 120.217C24.7213 121.042 25.3001 121.632 25.9353 121.768C26.0346 121.789 26.1323 121.8 26.2285 121.8C26.7966 121.8 27.2639 121.431 27.3891 120.847C28.0122 117.959 28.6642 114.745 29.185 111.369L59.0976 224.872C59.348 225.825 59.5893 226.806 59.8214 227.754C60.3482 229.904 60.8949 232.126 61.6127 234.25C62.9504 238.201 65.6701 241.64 69.271 243.932C72.2931 245.857 75.7794 246.874 79.2704 246.874C79.9514 246.874 80.6325 246.835 81.309 246.756C83.1293 246.546 84.9328 246.05 86.6783 245.569C87.1761 245.432 87.6739 245.295 88.1672 245.165L110.147 239.409L106.776 242.183C106.624 242.31 106.511 242.459 106.436 242.619C106.222 242.719 106.029 242.891 105.886 243.15C102.502 249.258 99.1041 255.49 95.8179 261.517C94.0724 264.717 92.2689 268.027 90.4883 271.278L90.3601 271.511C89.2942 273.457 88.1931 275.468 87.0997 277.441C86.6981 278.164 87.0722 278.88 87.6266 279.186C87.8251 279.295 88.0511 279.356 88.2786 279.356C88.6772 279.356 89.0773 279.166 89.3278 278.714C92.7102 272.607 96.108 266.376 99.3928 260.349C101.138 257.148 102.943 253.837 104.724 250.585L104.869 250.32C105.929 248.385 107.025 246.385 108.111 244.423C108.141 244.366 108.167 244.311 108.189 244.255C108.303 244.206 108.416 244.139 108.525 244.051L116.043 237.863L146.655 229.846C149.234 232.964 153.371 238.08 157.535 243.716C162.316 250.383 168.467 259.715 170.628 266.344C170.966 267.917 171.219 269.424 171.384 270.825C171.36 271.157 171.309 271.454 171.236 271.714C171.219 271.775 171.199 271.836 171.178 271.897L171.14 272.006C169.843 275.456 163.671 275.559 158.723 275.039C152.888 274.425 146.274 272.69 142.385 271.391L142.266 271.358C141.314 271.128 132.694 269.092 123.072 268.642C117.464 268.378 112.634 268.713 108.714 269.636C103.78 270.797 100.257 272.904 98.2444 275.897L98.1665 276.025C97.2121 277.82 94.2327 283.915 95.9416 286.978C96.1538 287.371 96.5066 287.68 96.9357 287.851L97.1174 287.956L97.319 287.968C97.3495 287.976 97.3801 287.983 97.4106 287.991C97.6687 288.055 98.0413 288.149 98.5193 288.274C101.189 288.959 108.14 290.771 115.019 292.808L115.111 292.833C120.935 294.561 125.381 296.053 128.325 297.267C134.471 299.803 137.701 300.798 140.823 301.762C144.799 302.988 148.554 304.146 158.085 308.368C160.64 309.499 163.35 310.732 166.22 312.035L166.264 312.055C171.038 314.224 175.975 316.468 181.084 318.66C187.571 321.445 193.109 323.608 198.012 325.273C203.43 327.115 208.079 328.361 212.226 329.082L212.693 329.163H212.695C214.343 329.435 215.922 329.623 217.391 329.719C220.304 329.91 223.921 331.76 227.845 335.068L227.928 335.138C228.004 335.202 228.065 335.254 228.106 335.289L228.453 335.587L230.356 333.388L230.009 333.089C229.959 333.047 229.879 332.978 229.778 332.894L229.728 332.852C225.26 329.085 221.173 327.056 217.583 326.82C216.189 326.729 214.679 326.549 213.095 326.284L212.796 326.13L212.559 326.193C208.605 325.494 204.154 324.294 198.951 322.526C194.116 320.883 188.649 318.746 182.236 315.993C177.138 313.807 172.203 311.563 167.426 309.392L167.4 309.38C164.532 308.077 161.823 306.847 159.267 305.713C149.582 301.423 145.746 300.24 141.682 298.985C138.625 298.043 135.463 297.067 129.437 294.581C126.395 293.327 121.842 291.798 115.898 290.035L115.821 290.014C108.928 287.974 101.934 286.15 99.2477 285.461C98.9041 285.372 98.6124 285.296 98.3742 285.237C98.0657 283.733 99.295 280.122 100.701 277.452C104.576 271.796 115.151 271.137 123.344 271.58C132.502 272.076 140.949 274.029 141.52 274.163C142.339 274.431 148.895 276.54 155.788 277.581C163.303 278.715 168.597 278.196 171.554 276.039C171.432 277.668 171.152 278.417 171.152 278.417L170.757 279.338L173.357 280.473L173.765 279.551C173.957 279.116 174.883 276.665 174.281 271.032C174.385 269.438 174.047 267.462 173.278 265.157C172.184 260.62 168.199 253.561 161.434 244.182C155.861 236.249 150.5 229.782 150.445 229.715L150.426 229.694C147.975 226.879 90.3891 160.728 88.3168 158.854C88.2435 158.789 88.1733 158.72 88.103 158.652L88.0129 158.565C87.0799 157.51 86.3789 156.723 85.93 156.222C83.957 153.571 82.8178 150.501 82.8056 147.794C82.8056 147.645 82.8071 147.493 82.8132 147.354C82.8453 146.862 82.9048 146.378 82.9857 145.926C83.0621 145.549 83.1644 145.18 83.2866 144.832C84.3189 142.849 85.5665 141.399 86.9944 140.52C88.7475 139.642 90.948 139.511 93.5333 140.129C95.514 140.604 97.4686 141.549 99.1851 142.865L132.02 171.901L157.485 194.462L157.512 194.438L169.17 204.704L171.056 202.576L159.836 192.696C162.067 191.464 166.354 189.63 172.806 189.048C178.777 188.718 184.277 189.459 185.621 189.66L199.811 201.853L201.671 199.703L188.872 188.706C190.348 188.147 192.437 187.45 194.924 186.879C200.249 186.017 205.999 186.122 207.474 186.167L220.333 197.51L222.221 195.383L210.571 185.105C212.703 184.41 216.897 183.787 224.118 185.401C225.438 185.696 228.838 187.733 236.754 198.061C241.81 204.657 247.966 213.616 255.569 225.449C256.848 227.438 258.196 229.555 259.578 231.743C260.006 232.42 260.907 232.624 261.586 232.198C261.916 231.991 262.145 231.67 262.231 231.291C262.318 230.912 262.25 230.523 262.043 230.195C260.677 228.034 259.324 225.911 258.025 223.887ZM79.9545 148.977C80.1041 152.218 81.2174 155.085 83.2652 157.496C84.1677 158.782 85.2107 159.964 86.3652 161.008C86.3896 161.029 86.4248 161.064 86.469 161.11C95.5124 171.342 121.178 200.632 135.673 217.183C137.379 219.141 139.045 221.053 140.658 222.903L84.9832 237.485L84.4136 237.636C81.6679 238.362 79.0749 239.049 76.2559 238.205C72.6871 237.138 70.1292 234.308 69.0557 230.234L59.9451 195.661C59.8412 195.269 59.5648 194.955 59.1876 194.801C58.8105 194.648 58.392 194.68 58.0423 194.89C57.5552 195.18 57.317 195.765 57.4605 196.313L63.8224 220.453C64.1415 221.662 64.4576 222.872 64.7753 224.081C65.3983 226.457 66.0412 228.916 66.6887 231.329C68.1425 236.745 72.5741 240.597 77.98 241.14C78.3465 241.177 78.7114 241.194 79.0749 241.194C81.1151 241.194 83.085 240.658 84.9985 240.137C85.3589 240.04 85.7192 239.941 86.0796 239.846L142.538 225.058C143.316 225.952 144.08 226.829 144.825 227.684L87.0432 242.816C86.6355 242.923 86.2262 243.034 85.817 243.145C83.7539 243.706 81.619 244.287 79.4811 244.319C72.1633 244.424 65.6778 239.498 63.72 232.326C63.549 231.699 63.3826 231.058 63.2207 230.438C63.1397 230.126 63.0573 229.813 62.9748 229.5L29.9898 104.348C29.9775 104.2 29.9409 104.063 29.8813 103.938L14.2684 44.6895C13.343 41.1774 13.2834 38.1007 14.0852 35.2813C15.6504 29.7826 20.1355 25.5687 26.0835 24.0113L83.1828 9.05721C85.313 8.50003 87.4403 7.93524 89.569 7.37197C93.7517 6.26369 98.0764 5.11736 102.34 4.04105C110.098 2.08026 118.232 6.06274 121.261 13.3046C122.322 15.8424 122.982 18.6663 123.618 21.3974C123.881 22.5194 124.151 23.6794 124.445 24.7892C124.967 26.7729 125.491 28.7565 126.014 30.7401C127.094 34.8337 128.204 39.0385 129.302 43.2219C129.296 43.3148 129.296 43.4076 129.308 43.5036C129.337 43.7228 129.418 43.9283 129.533 44.1034C129.73 44.8554 129.927 45.6075 130.122 46.358L140.308 85.3242C139.419 86.0702 138.575 86.8496 137.779 87.658L124.735 38.157C124.104 35.7639 123.475 33.3708 122.847 30.9761C121.609 26.2568 120.328 21.3761 119.048 16.5822C118.217 13.469 116.34 10.7546 113.761 8.93847C111.116 7.07663 107.903 6.29718 104.712 6.74475C103.232 6.9518 101.761 7.36588 100.338 7.76626C99.8265 7.90936 99.2981 8.05855 98.785 8.19404L83.2652 12.2587C82.8911 12.3562 82.5841 12.615 82.4238 12.9651C82.2634 13.3168 82.2696 13.7156 82.4406 14.0627C82.7094 14.6062 83.3309 14.8894 83.9188 14.7356L99.3897 10.6831C99.915 10.5461 100.448 10.3969 100.964 10.2523C102.142 9.92343 103.359 9.58395 104.56 9.3556C108.992 8.51221 113.555 10.7349 115.655 14.7569C116.133 15.6719 116.411 16.6538 116.699 17.7499L135.727 89.9445C133.916 92.1581 132.465 94.5238 131.474 96.9428C129.962 100.627 130.225 104.285 132.195 106.983C134.189 109.714 137.431 111.262 141.039 111.262C141.143 111.262 141.249 111.261 141.354 111.258L143.283 118.72C142.473 119.452 141.675 120.188 140.904 120.912C140.791 121.019 140.702 121.138 140.636 121.265C140.458 121.313 140.281 121.401 140.117 121.54C139.48 122.08 138.805 122.622 138.091 123.194C134.122 126.381 129.621 129.992 129.217 135.268C128.985 138.282 130.516 141.724 133.213 144.252C135.377 146.279 137.926 147.388 140.354 147.388C140.71 147.388 141.064 147.363 141.412 147.316C142.993 147.097 144.268 146.331 145.439 145.565C146.874 144.626 148.319 143.606 149.619 142.668L152.833 154.864C148.873 155.63 144.317 157.428 142.105 160.475C140.902 162.133 140.481 164.016 140.853 166.071C141.524 169.775 143.834 172.409 147.719 173.898C151.266 175.257 155.467 175.422 158.318 175.428H158.321C158.409 175.428 158.491 175.417 158.572 175.404L161.815 188.235C160.174 188.881 158.734 189.666 157.503 190.594L102.019 141.432C101.166 140.676 100.243 139.995 99.2859 139.413C97.1495 138.056 92.9133 135.921 88.5505 136.871C87.8068 137.033 87.0753 137.287 86.3744 137.625C85.2916 138.063 84.3082 138.686 83.453 139.474C81.1105 141.635 79.8797 144.516 79.8949 147.809C79.898 148.182 79.9178 148.575 79.9545 148.977ZM134.872 54.364C133.966 50.8992 133.041 47.3536 132.111 43.8111C134.181 42.6175 136.677 42.3861 138.976 43.2143C141.69 44.1917 143.587 46.7309 144.049 50.0071C144.894 55.9854 141.363 61.0487 137.898 65.9416L134.872 54.364ZM161.115 112.026C163.121 112.305 164.781 113.494 166.05 115.563C169.028 120.418 166.675 126.177 159.058 132.683C156.275 135.06 153.303 137.066 150.764 138.716C150.559 138.849 150.405 139.024 150.304 139.223C150.097 139.241 149.889 139.318 149.698 139.456C147.794 140.841 146.068 142.087 144.251 143.285C142.906 144.171 141.847 144.801 140.484 144.835C137.022 144.918 133.803 141.796 132.408 138.671C129.892 133.024 135.489 128.544 139.986 124.942C140.661 124.402 141.299 123.89 141.878 123.4C142 123.296 142.096 123.178 142.168 123.05C142.36 122.995 142.541 122.891 142.699 122.742C143.646 121.852 144.633 120.946 145.633 120.049C145.752 119.943 145.844 119.822 145.912 119.694C146.132 119.655 146.352 119.551 146.554 119.367C150.585 115.656 156.384 111.37 161.115 112.026ZM161.241 175.48C162.254 175.483 163.266 175.486 164.279 175.487L167.2 186.751C166.169 186.938 165.187 187.161 164.259 187.421L161.241 175.48ZM166.934 175.495C167.479 175.496 168.025 175.498 168.571 175.499H168.574C169.036 175.499 169.426 175.282 169.648 174.901C169.888 174.49 169.888 173.959 169.651 173.545C169.43 173.161 169.037 172.94 168.573 172.939C165.468 172.931 162.364 172.922 159.259 172.913H159.255C159.111 172.913 158.974 172.937 158.847 172.977C158.688 172.907 158.511 172.869 158.321 172.867C151.709 172.854 144.766 172.001 143.414 165.794C143.109 164.394 143.356 163.107 144.152 161.97C146.068 159.228 150.883 157.673 154.75 157.131C154.901 157.109 155.04 157.064 155.163 157C160.033 155.949 164.486 155.36 168.764 155.199C171.993 155.079 176.509 155.281 178.462 158.425C180.725 162.069 178.474 166.531 176.188 169.634C173.847 172.809 170.952 175.609 167.574 177.961L166.934 175.495ZM155.353 154.343L151.845 141.03C151.932 140.997 152.018 140.957 152.1 140.904C152.91 140.379 153.762 139.825 154.64 139.238L158.147 153.792C157.246 153.957 156.316 154.141 155.353 154.343ZM145.463 116.895L143.921 110.923C144.982 110.688 146.007 110.361 146.983 109.976L148.133 114.623C147.201 115.362 146.312 116.131 145.463 116.895Z" fill="#303436"/>
</svg>
