<svg width="662" height="302" viewBox="0 0 662 302" fill="none" xmlns="http://www.w3.org/2000/svg">
<path d="M306.855 154.336C268.527 125.541 234.85 93.2 206.96 65.3579L204.556 62.9574C203.535 61.9343 201.14 59.5399 198.508 60.8557C198.367 60.9266 198.24 61.0252 198.139 61.1485C189.742 71.0804 181.693 81.3082 173.909 91.2001C162.581 105.594 150.867 120.478 138.087 134.422C135.129 137.649 132.275 139.516 130.388 140.749C129.751 141.168 129.246 141.495 128.846 141.806C128.511 142.065 128.317 142.462 128.317 142.894C128.314 144.36 132.183 148.055 144.036 157.602C144.446 156.933 144.864 156.265 145.338 155.645C137.862 149.618 132.414 145.005 130.964 143.183C131.179 143.042 131.416 142.884 131.669 142.718C133.654 141.421 136.655 139.458 139.813 136.012C152.655 122 164.394 107.083 175.749 92.6546C183.466 82.8521 191.441 72.7167 199.742 62.8834C200.687 62.5937 201.814 63.5367 202.894 64.6183L205.298 67.022C233.247 94.9195 266.997 127.335 305.442 156.215C305.959 156.604 306.695 156.499 307.085 155.981C307.476 155.46 307.372 154.724 306.855 154.336Z" fill="#303436"/>
<path d="M503.605 209.253C503.146 209.253 502.712 208.981 502.522 208.532C502.269 207.934 502.552 207.243 503.149 206.994L526.072 197.358C526.672 197.108 527.358 197.389 527.607 197.986C527.857 198.584 527.577 199.275 526.98 199.524L504.057 209.16C503.91 209.222 503.756 209.253 503.605 209.253Z" fill="#303436"/>
<path d="M224.573 94.4389C224.13 94.9134 224.151 95.653 224.625 96.0968C238.569 109.203 252.974 122.734 267.752 136.117C269.9 137.911 272.018 139.704 274.114 141.482C283.132 149.128 291.649 156.351 301.24 162.255C301.431 162.372 301.644 162.431 301.853 162.431C302.247 162.431 302.632 162.234 302.853 161.873C303.192 161.318 303.02 160.597 302.469 160.255C293.031 154.443 284.576 147.276 275.628 139.689C273.526 137.908 271.405 136.108 269.287 134.342C254.559 121.002 240.163 107.48 226.229 94.3803C225.758 93.9397 225.019 93.9643 224.573 94.4389Z" fill="#303436"/>
<path d="M189.659 85.866C187.443 88.5747 185.223 91.3327 183.026 94.0815C183.737 94.439 184.438 94.8149 185.131 95.2063C187.233 92.5777 189.354 89.9429 191.472 87.3544C191.718 87.0524 191.798 86.6518 191.687 86.2789C191.422 85.376 190.256 85.1357 189.659 85.866Z" fill="#303436"/>
<path d="M501.299 210.624C496.959 210.624 490.086 206.239 487.688 204.612C487.153 204.248 487.011 203.518 487.374 202.978C487.741 202.442 488.467 202.301 489.006 202.664C494.306 206.257 501.078 209.345 502.324 208.017C503.149 207.142 504.051 201.952 481.037 171.996C473.914 162.721 464.111 149.775 455.458 138.348C445.686 125.44 437.243 114.291 435.63 112.352C435.411 112.093 435.319 111.751 435.371 111.415C435.424 111.08 435.617 110.787 435.904 110.605L456.45 97.6376C456.997 97.2925 457.721 97.4558 458.069 98.0043C458.413 98.5529 458.25 99.2801 457.702 99.6253L438.268 111.89C441.053 115.434 448.668 125.489 457.327 136.928C465.973 148.348 475.776 161.294 482.896 170.563C505.957 200.584 506.304 207.209 504.03 209.629C503.365 210.334 502.417 210.624 501.299 210.624Z" fill="#303436"/>
<path d="M536.808 229.81C534.441 229.81 529.747 225.609 516.231 207.564C515.498 206.587 514.923 205.816 514.744 205.601C514.329 205.102 514.397 204.362 514.895 203.946C515.394 203.53 516.133 203.601 516.548 204.097C516.764 204.356 517.268 205.031 518.109 206.152C530.664 222.916 534.961 226.768 536.429 227.372C536.703 221.024 517.401 172.566 489.948 138.669C465.493 108.472 456.828 99.4186 454.126 97.656C453.987 99.5912 454.15 100.244 454.153 100.251C454.375 100.861 454.052 101.508 453.442 101.73C452.833 101.955 452.153 101.61 451.928 100.999C451.836 100.741 451.552 99.659 451.863 96.5558C451.937 95.8039 452.368 95.24 453.011 95.0459C454.667 94.5528 456.736 93.9303 491.767 137.19C519.543 171.488 540.024 222.167 538.698 228.143C538.424 229.378 537.556 229.689 537.195 229.77C537.075 229.794 536.946 229.81 536.808 229.81Z" fill="#303436"/>
<path d="M149.558 133.846C149.312 134.102 149.195 134.456 149.238 134.808C149.281 135.159 149.481 135.473 149.783 135.661C152.393 137.288 153.929 140.077 153.917 143.137C154.693 142.37 155.385 141.522 155.982 140.616C155.437 138.219 154.126 136.071 152.187 134.496C158.814 127.529 165.139 120.044 171.286 112.488C172.203 110.442 172.908 108.328 173.549 106.18C173.585 106.053 173.629 105.924 173.669 105.798C165.955 115.415 157.989 125.079 149.558 133.846Z" fill="#303436"/>
<path d="M453.033 97.8441C452.676 97.8441 452.325 97.6808 452.094 97.3757C451.706 96.858 451.811 96.1215 452.328 95.7302C456.588 92.5315 537.774 44.7854 599.59 9.92042C600.153 9.60301 600.871 9.80023 601.188 10.3672C601.505 10.9312 601.305 11.6492 600.741 11.9666C535.641 48.6867 457.484 94.7965 453.738 97.6099C453.526 97.7702 453.279 97.8441 453.033 97.8441Z" fill="#303436"/>
<path d="M537.555 229.061C537.146 229.061 536.752 228.848 536.534 228.469C536.213 227.905 536.407 227.187 536.971 226.867L659.876 156.752C660.436 156.431 661.157 156.625 661.477 157.189C661.797 157.753 661.603 158.471 661.04 158.792L538.134 228.907C537.953 229.012 537.752 229.061 537.555 229.061Z" fill="#303436"/>
<path d="M306.504 156.936C306.239 156.936 305.974 156.847 305.756 156.665C285.388 139.781 251.69 101.52 235.497 83.1324C230.935 77.9553 227.642 74.2143 226.866 73.487C226.244 72.9015 225.693 72.6334 225.222 72.6827C224.117 72.806 222.905 74.5871 221.833 76.1587C221.381 76.8244 220.913 77.5116 220.436 78.1063C220.03 78.6117 219.294 78.6918 218.786 78.285C218.281 77.8783 218.201 77.1387 218.608 76.6333C219.029 76.1094 219.451 75.49 219.894 74.8337C221.316 72.7443 222.785 70.5872 224.967 70.3469C226.152 70.2175 227.328 70.6951 228.476 71.7706C229.331 72.5749 232.314 75.9615 237.26 81.5762C253.414 99.9177 287.032 138.086 307.258 154.853C307.756 155.266 307.827 156.009 307.412 156.508C307.178 156.791 306.842 156.936 306.504 156.936Z" fill="#303436"/>
<path d="M225.299 236.386C225.093 236.386 224.884 236.33 224.696 236.22C222.668 234.999 218.054 232.54 213.587 230.164C209.349 227.909 205.344 225.776 203.418 224.636C190.453 216.969 179.434 212.55 167.768 207.866C157.958 203.931 147.813 199.86 136.304 193.666L133.676 192.255C131.324 190.991 128.969 189.728 126.624 188.452C126.344 188.301 126.002 188.138 125.633 187.965C124.082 187.235 122.149 186.326 121.607 184.754C121.37 184.064 121.431 183.327 121.785 182.625C122.259 181.688 123.241 180.862 124.106 180.135C124.479 179.82 124.833 179.525 125.073 179.278C127.15 177.149 129.24 174.887 131.463 172.357C147.684 153.907 160.919 133.039 170.794 110.334C172.416 106.602 173.949 102.802 175.349 99.0367C175.488 98.6638 175.654 98.0598 175.829 97.4189C176.642 94.4575 177.756 90.4021 180.625 90.9137C181.748 91.114 182.955 92.1709 184.02 93.1077C184.38 93.4251 184.722 93.7241 184.949 93.8874C192.629 99.3849 200.721 105.055 209.688 111.218C240.828 132.629 269.133 150.74 296.226 166.588C296.786 166.915 296.974 167.636 296.648 168.197C296.322 168.758 295.601 168.949 295.044 168.619C267.902 152.743 239.547 134.601 208.361 113.157C199.382 106.984 191.278 101.305 183.586 95.798C183.263 95.5668 182.896 95.2464 182.475 94.8735C181.853 94.328 180.696 93.3111 180.215 93.2279C179.926 93.1724 179.277 93.7333 178.092 98.0413C177.895 98.7624 177.722 99.3849 177.547 99.8564C176.131 103.659 174.583 107.502 172.942 111.271C162.966 134.201 149.605 155.276 133.22 173.91C130.97 176.468 128.852 178.76 126.747 180.921C126.427 181.25 126.03 181.58 125.611 181.934C124.953 182.489 124.131 183.179 123.875 183.685C123.78 183.873 123.808 183.947 123.82 183.99C124.038 184.622 125.658 185.383 126.624 185.839C127.036 186.033 127.421 186.215 127.735 186.384C130.078 187.657 132.426 188.92 134.775 190.184L137.403 191.598C148.795 197.727 158.879 201.774 168.63 205.684C180.382 210.399 191.481 214.852 204.603 222.611C206.483 223.724 210.463 225.844 214.68 228.087C219.171 230.479 223.816 232.953 225.896 234.204C226.454 234.537 226.632 235.261 226.297 235.816C226.084 236.183 225.696 236.386 225.299 236.386Z" fill="#303436"/>
<path d="M378.018 178.544C373.728 178.544 368.797 177.608 363.555 175.7C350.344 170.489 343.058 163.401 337.204 157.707C332.113 152.755 328.093 148.844 322.115 148.055C321.103 148.068 315.876 150.863 312.752 152.53C309.178 154.44 306.931 155.624 305.842 155.904C305.214 156.064 304.574 155.685 304.414 155.057C304.254 154.428 304.632 153.787 305.26 153.627C306.131 153.405 309.061 151.836 311.647 150.456C317.849 147.14 320.927 145.605 322.368 145.719C329.167 146.613 333.649 150.973 338.838 156.018C344.542 161.568 351.643 168.474 364.386 173.5C377.821 178.39 386.791 175.956 389.706 171.374C392.393 167.152 390.518 161.149 384.695 155.318C379.782 150.4 375.405 145.22 371.17 140.209C362.579 130.046 355.161 121.267 346.475 118.367C329.57 112.531 304.238 114.944 283.883 116.885C278.484 117.4 273.387 117.886 268.782 118.192C268.151 118.244 267.576 117.745 267.533 117.098C267.49 116.45 267.979 115.89 268.625 115.846C273.199 115.541 278.281 115.058 283.662 114.543C304.241 112.583 329.857 110.142 347.229 116.139C356.528 119.242 364.143 128.253 372.961 138.687C377.163 143.661 381.509 148.801 386.354 153.651C393.011 160.317 395.003 167.411 391.685 172.628C389.204 176.538 384.301 178.544 378.018 178.544Z" fill="#303436"/>
<path d="M403.286 118.247C400.857 118.247 398.672 118.112 396.908 117.794C396.859 117.785 396.813 117.773 396.767 117.76C350.264 103.185 337.653 114.913 337.533 115.033C337.075 115.486 336.333 115.486 335.877 115.03C335.422 114.574 335.412 113.841 335.865 113.378C336.388 112.842 349.264 100.423 397.398 115.492C408.109 117.381 436.03 112.053 436.31 111.998C436.95 111.875 437.563 112.294 437.683 112.929C437.806 113.566 437.387 114.183 436.753 114.303C435.768 114.497 416.109 118.247 403.286 118.247Z" fill="#303436"/>
<path d="M267.65 285.133C262.636 285.133 258.388 283.522 255.738 280.486C252.364 276.622 251.838 270.872 254.26 264.296C256.59 258.847 263.227 252.903 263.507 252.653C263.993 252.225 264.735 252.268 265.163 252.752C265.594 253.239 265.551 253.982 265.064 254.41C265 254.469 258.539 260.259 256.44 265.165C254.353 270.841 254.722 275.753 257.505 278.939C260.558 282.437 266.335 283.645 272.956 282.169C281.602 280.246 291.421 276.671 301.816 272.887C307.541 270.801 313.463 268.647 319.702 266.564C320.318 266.357 320.98 266.69 321.186 267.306C321.392 267.923 321.06 268.588 320.444 268.792C314.236 270.863 308.329 273.013 302.619 275.094C292.151 278.905 282.264 282.505 273.467 284.462C271.454 284.915 269.5 285.133 267.65 285.133Z" fill="#303436"/>
<path d="M228.977 268.462C224.788 268.462 221.165 266.656 217.927 261.615C211.602 253.177 215.055 242.922 228.528 230.334C229.451 229.495 230.895 228.223 232.766 226.586L234.724 224.876C251.472 210.229 290.695 175.931 306.476 153.812C306.851 153.282 307.587 153.162 308.113 153.537C308.64 153.913 308.763 154.65 308.387 155.177C292.446 177.521 253.081 211.946 236.269 226.645L234.315 228.355C232.459 229.982 231.024 231.243 230.122 232.065C217.699 243.674 214.338 252.906 219.86 260.277C225.515 269.075 231.886 266.539 243.456 261.935C244.521 261.513 245.623 261.075 246.759 260.632C259.068 255.556 293.034 237.122 298.67 233.899C299.233 233.575 299.947 233.773 300.271 234.337C300.591 234.9 300.397 235.618 299.833 235.939C295.244 238.564 260.706 257.424 247.63 262.813C246.476 263.263 245.38 263.698 244.321 264.12C238.436 266.456 233.391 268.462 228.977 268.462Z" fill="#303436"/>
<path d="M308.39 292.739C299.492 292.739 291.043 285.632 288.762 278.779C288.556 278.163 288.888 277.497 289.504 277.294C290.119 277.087 290.784 277.42 290.987 278.036C293.105 284.4 301.222 290.991 309.514 290.347C312.472 289.851 318.686 288.569 324.695 287.33C327.776 286.696 330.798 286.07 333.307 285.568C333.944 285.438 334.56 285.854 334.689 286.489C334.815 287.124 334.403 287.746 333.769 287.873C331.263 288.375 328.244 288.997 325.169 289.632C319.105 290.883 312.832 292.178 309.849 292.674C309.819 292.677 309.785 292.683 309.754 292.686C309.301 292.72 308.846 292.739 308.39 292.739Z" fill="#303436"/>
<path d="M440.25 242.429C439.831 242.429 439.428 242.204 439.216 241.812C438.908 241.239 439.123 240.527 439.693 240.222C453.855 232.589 479.892 216.232 495.159 192.461C495.51 191.915 496.236 191.758 496.781 192.106C497.326 192.458 497.483 193.185 497.135 193.73C481.582 217.946 455.166 234.549 440.807 242.29C440.628 242.386 440.438 242.429 440.25 242.429Z" fill="#303436"/>
<path d="M336.434 295.663C336.21 295.663 335.985 295.599 335.785 295.466C334.298 294.474 330.54 292.696 327.517 291.266C326.157 290.622 324.913 290.033 324.008 289.58C323.43 289.291 323.193 288.585 323.482 288.006C323.771 287.423 324.476 287.189 325.055 287.479C325.948 287.925 327.176 288.505 328.518 289.14C331.768 290.677 335.452 292.421 337.084 293.509C337.623 293.87 337.767 294.6 337.41 295.139C337.185 295.481 336.813 295.663 336.434 295.663Z" fill="#303436"/>
<path d="M429.493 264.388C422.653 264.388 418.058 258.231 413.57 252.216L412.856 251.261C406.888 242.629 396.942 228.251 407.125 220.584C411.126 217.385 416.91 215.607 429.443 226.587C429.591 226.713 445.227 240.269 444.683 251.843C444.516 255.362 442.86 258.259 439.761 260.453C435.806 263.245 432.441 264.388 429.493 264.388ZM413.576 220.507C411.486 220.507 409.929 221.345 408.574 222.429C400.796 228.272 407.688 239.665 414.755 249.886L415.448 250.811C421.985 259.569 427.147 266.49 438.403 258.53C440.918 256.752 442.205 254.527 442.337 251.732C442.743 243.07 432.057 231.924 427.904 228.362C421.142 222.436 416.746 220.507 413.576 220.507Z" fill="#303436"/>
<path d="M404.948 282.4C404.213 282.4 403.48 282.339 402.754 282.218C397.182 281.294 391.916 276.749 387.52 269.076C378.868 257.708 371.41 247.893 372.703 240.155C373.208 237.129 375.051 234.537 378.179 232.451C384.947 227.93 392.476 229.674 401.199 237.779C410.513 245.936 421.65 257.785 421.668 267.781C421.674 271.31 420.286 274.33 417.537 276.755C413.293 280.505 409.067 282.4 404.948 282.4ZM385.772 232.343C383.116 232.343 381.072 233.345 379.484 234.405C376.88 236.143 375.421 238.152 375.021 240.543C373.891 247.292 381.097 256.755 389.435 267.713C389.466 267.754 389.493 267.797 389.521 267.843C392.341 272.78 396.988 278.881 403.138 279.901C407.211 280.576 411.538 278.927 415.992 274.992C418.242 273.005 419.332 270.647 419.329 267.784C419.313 260.672 412.32 250.635 399.632 239.523C393.735 234.041 389.232 232.343 385.772 232.343Z" fill="#303436"/>
<path d="M375.843 295.793C373.743 295.793 371.749 295.389 369.874 294.579C361.653 291.022 357.599 280.474 355.423 274.804C354.761 273.066 354.099 271.387 353.462 269.763C348.337 256.724 344.29 246.426 354.506 241.31C360.283 238.42 365.51 240.823 374.485 250.496C378.89 255.64 386.514 266.937 388.872 274.009C390.799 278.825 392.547 283.95 390.694 288.206C389.564 290.794 387.284 292.72 383.719 294.092C380.961 295.226 378.327 295.793 375.843 295.793ZM358.92 242.497C357.639 242.497 356.574 242.903 355.558 243.412C347.632 247.378 350.138 254.882 355.651 268.9C356.291 270.53 356.956 272.219 357.618 273.963C359.671 279.306 363.494 289.257 370.807 292.418C374.297 293.925 378.348 293.756 382.851 291.91C385.825 290.767 387.678 289.25 388.543 287.266C390.035 283.839 388.435 279.238 386.671 274.816C384.47 268.219 377.077 257.131 372.737 252.059C365.759 244.543 361.791 242.497 358.92 242.497Z" fill="#303436"/>
<path d="M347.309 301.016C344.902 301.016 342.723 300.468 340.802 299.374C334.421 295.74 332.174 286.745 330.832 281.368C328.084 269.667 327.985 262.925 335.071 258.493C339.223 256.117 342.6 255.421 345.438 256.336C348.002 257.165 350.089 259.316 351.637 262.724C355.589 271.43 358.439 278.696 359.88 283.738C361.099 289.223 362.915 297.411 353.108 300.089C351.055 300.708 349.119 301.016 347.309 301.016ZM336.293 260.499C330.919 263.874 330.205 268.438 333.113 280.816C334.36 285.812 336.453 294.197 341.963 297.331C344.791 298.942 348.223 299.102 352.462 297.833C359.59 295.885 359.089 291.004 357.605 284.32C356.217 279.454 353.407 272.302 349.501 263.701C348.236 260.919 346.629 259.193 344.717 258.577C342.547 257.871 339.793 258.503 336.293 260.499Z" fill="#303436"/>
<path d="M388.487 276.425C388.117 276.425 387.754 276.252 387.526 275.926C387.154 275.396 387.28 274.662 387.813 274.289L390.309 272.533C390.841 272.157 391.571 272.289 391.943 272.819C392.316 273.349 392.19 274.083 391.657 274.456L389.161 276.212C388.958 276.354 388.721 276.425 388.487 276.425Z" fill="#303436"/>
<path d="M380.607 75.6814C380.401 75.6814 380.192 75.626 380.001 75.512C379.45 75.1761 379.268 74.4642 379.601 73.9095C379.813 73.5521 380.718 72.3749 382.743 69.7494C387.382 63.7311 397.035 51.2075 399.174 46.7454C399.589 45.8764 399.546 45.485 399.494 45.408C399.1 44.8225 396.21 45.0012 394.821 45.0844C392.174 45.2446 389.89 45.3864 388.952 43.975C386.846 40.8133 396.677 26.6966 401.002 20.7738C401.384 20.2499 402.116 20.1328 402.643 20.518C403.166 20.9001 403.28 21.6366 402.898 22.1605C396.077 31.5039 390.654 40.8195 390.937 42.69C391.393 42.9365 393.446 42.8133 394.683 42.7393C397.57 42.5637 400.303 42.3973 401.445 44.0983C402.067 45.0228 402.015 46.2554 401.291 47.7623C399.044 52.4463 389.65 64.637 384.605 71.1854C383.159 73.0652 381.792 74.8371 381.614 75.1206C381.392 75.4811 381.004 75.6814 380.607 75.6814Z" fill="#303436"/>
<path d="M317.077 75.2006C316.612 75.2006 316.169 74.9202 315.987 74.4611C315.888 74.2145 306.057 49.6451 302.145 44.2615C301.646 43.5312 301.366 43.3925 301.283 43.3925C300.652 43.4388 299.412 45.9872 298.818 47.2137C297.605 49.7098 296.555 51.8669 294.755 51.8669C290.747 51.8669 283.406 36.4405 280.439 29.8058C280.174 29.2142 280.439 28.5177 281.03 28.2527C281.621 27.9877 282.316 28.2527 282.581 28.8444C287.398 39.6053 292.917 48.9856 294.724 49.5033C295.244 49.1952 296.158 47.3185 296.709 46.1844C297.956 43.6175 299.135 41.1923 301.114 41.0474C302.194 40.9673 303.173 41.596 304.066 42.9056C308.126 48.4956 317.76 72.5628 318.169 73.5859C318.409 74.1868 318.117 74.8709 317.514 75.1113C317.369 75.1729 317.221 75.2006 317.077 75.2006Z" fill="#303436"/>
<path d="M351.664 69.059C351.015 69.059 350.491 68.5321 350.491 67.8849C350.491 67.5614 350.535 66.4859 350.605 64.7047C350.916 56.9114 351.744 36.2155 350.753 30.2588C350.568 29.3282 350.273 28.8998 350.064 28.8259C349.205 28.5208 346.832 30.456 345.413 31.6085C343.104 33.4852 341.113 35.103 339.404 34.3265C336.831 33.1555 335.526 23.3776 335.526 5.261C335.526 4.61078 336.052 4.08691 336.699 4.08691C337.348 4.08691 337.872 4.61386 337.872 5.261C337.872 21.2698 339.152 31.0045 340.374 32.1755C341.017 32.154 342.833 30.6779 343.932 29.7873C346.308 27.8582 348.765 25.8645 350.858 26.6164C351.972 27.017 352.714 28.1017 353.062 29.8366C354.099 36.0707 353.296 56.2026 352.951 64.8003C352.886 66.4304 352.84 67.6107 352.84 67.888C352.837 68.5321 352.314 69.059 351.664 69.059Z" fill="#303436"/>
<path d="M257.865 261.71C257.819 261.71 257.775 261.707 257.726 261.701C256.677 261.578 253.623 260.456 252.777 259.935C252.223 259.596 252.047 258.875 252.386 258.321C252.724 257.766 253.448 257.59 253.999 257.929C254.624 258.311 257.351 259.291 257.997 259.365C258.64 259.439 259.102 260.025 259.028 260.669C258.96 261.27 258.453 261.71 257.865 261.71Z" fill="#303436"/>
<path d="M189.055 72.8307C188.858 72.8307 188.661 72.7814 188.48 72.6797C183.056 69.6105 179.711 67.7893 178.541 67.2623C174.616 65.4935 107.331 27.5684 104.939 24.7734C103.988 23.812 92.544 16.3885 70.9424 2.7278C70.3945 2.38266 70.2314 1.65541 70.5761 1.10688C70.924 0.558362 71.6473 0.395038 72.1952 0.740176C101.516 19.279 106.103 22.5177 106.721 23.2419C108.999 25.4421 172.28 61.8603 179.504 65.1144C180.757 65.6784 184.072 67.4842 189.634 70.6305C190.197 70.951 190.397 71.6659 190.077 72.2298C189.862 72.6181 189.465 72.8307 189.055 72.8307Z" fill="#303436"/>
<path d="M146.646 236.577C145.923 236.577 145.231 236.367 144.618 235.939L133.857 228.408C133.325 228.035 133.195 227.304 133.568 226.771C133.94 226.241 134.673 226.112 135.202 226.482L145.963 234.013C146.779 234.583 147.785 233.887 148.179 233.557C148.576 233.224 148.983 232.894 149.398 232.558C153.784 228.996 159.242 224.562 167.534 207.844C167.82 207.262 168.525 207.025 169.107 207.314C169.689 207.604 169.926 208.306 169.636 208.889C161.119 226.063 155.44 230.676 150.879 234.383C150.469 234.716 150.072 235.039 149.681 235.363C148.712 236.167 147.653 236.577 146.646 236.577Z" fill="#303436"/>
<path d="M219.368 242.287C219.186 242.287 219.005 242.247 218.832 242.158C204.132 234.614 192.017 225.489 180.705 213.44C180.262 212.969 180.283 212.223 180.757 211.779C181.228 211.336 181.973 211.357 182.416 211.832C193.54 223.681 205.452 232.654 219.907 240.068C220.482 240.364 220.71 241.073 220.414 241.649C220.205 242.056 219.793 242.287 219.368 242.287Z" fill="#303436"/>
<path d="M125.448 237.372C125.276 237.372 125.1 237.332 124.94 237.255C124.571 237.079 87.7791 219.268 58.6825 199.299C43.5017 188.883 19.0591 174.548 1.22507 164.36C0.661787 164.037 0.467872 163.319 0.787986 162.758C1.1081 162.194 1.82836 162 2.38856 162.32C20.2596 172.533 44.7606 186.902 60.0061 197.364C86.7695 215.733 120.105 232.278 125.273 234.808C130.591 230.152 140.121 217.816 150.094 199.934C150.411 199.367 151.125 199.164 151.691 199.481C152.258 199.798 152.461 200.513 152.144 201.08C141.657 219.89 131.552 232.728 126.19 237.11C125.974 237.283 125.713 237.372 125.448 237.372Z" fill="#303436"/>
<path d="M496.282 191.201C495.214 193.795 493.777 196.239 492.265 198.596C491.12 200.387 489.902 202.125 488.652 203.841C491.662 205.823 515.618 221.052 496.282 191.201Z" fill="#303436"/>
<path d="M527.61 199.148C527.61 199.148 523.954 200.341 520.629 201.613C517.865 202.67 515.329 203.789 515.329 204.322L515.646 204.849C517.062 206.556 536.321 233.428 537.552 227.887C538.097 225.394 534.367 214.02 527.61 199.148Z" fill="#303436"/>
<path d="M228.239 230.414C206.064 213.616 188.714 206.368 171.932 199.361C164.89 196.418 157.644 193.392 150.041 189.663C149.45 189.373 148.736 189.623 148.459 190.221C148.188 190.8 148.432 191.493 149.007 191.774C156.671 195.53 163.951 198.572 171.03 201.53C188.443 208.803 204.889 215.671 226.826 232.29C227.038 232.451 227.287 232.528 227.534 232.528C227.888 232.528 228.239 232.367 228.469 232.062C228.857 231.542 228.753 230.805 228.239 230.414Z" fill="#303436"/>
<path d="M172.16 124.284C171.735 125.732 171.261 127.101 170.76 128.108C170.744 128.142 170.729 128.176 170.713 128.213C164.997 142.928 154.96 154.77 145.252 166.228C144.679 166.905 144.107 167.577 143.541 168.252C142.983 168.912 143.304 169.925 144.138 170.147C144.575 170.264 145.04 170.116 145.335 169.771C145.901 169.1 146.471 168.428 147.043 167.75C156.865 156.16 167.023 144.176 172.883 129.119C173.44 127.988 173.958 126.503 174.41 124.953C174.53 124.546 174.413 124.105 174.115 123.803C173.487 123.162 172.409 123.431 172.16 124.284Z" fill="#303436"/>
<path d="M201.955 116.417C201.592 116.956 201.737 117.683 202.272 118.047C204.824 119.766 207.372 121.486 209.921 123.208C215.631 127.067 221.341 130.931 227.044 134.798C237.057 141.587 247.067 148.388 257.073 155.189L262.007 158.542C268.804 163.161 276.129 166.948 283.212 170.609C285.487 171.787 287.764 172.964 290.033 174.172C290.676 174.514 291.495 174.196 291.713 173.457C291.873 172.921 291.6 172.344 291.107 172.079C288.839 170.871 286.564 169.694 284.289 168.52C277.268 164.89 270.007 161.134 263.325 156.594L258.391 153.242C248.384 146.441 238.374 139.64 228.358 132.851C222.652 128.983 216.945 125.119 211.232 121.258C208.684 119.535 206.135 117.816 203.583 116.096C203.048 115.736 202.318 115.877 201.955 116.417Z" fill="#303436"/>
</svg>
