<svg width="53" height="18" viewBox="0 0 53 18" fill="none" xmlns="http://www.w3.org/2000/svg">
<path d="M42.992 1.82755C47.1906 1.82755 50.5633 5.07391 50.5633 9.04169C50.5633 13.0423 47.1562 16.2558 42.992 16.2558H9.47176C5.27313 16.2558 1.90046 13.0095 1.90046 9.04169C1.90046 5.04112 5.30754 1.82755 9.47176 1.82755H42.992ZM42.992 0.0895996H9.47176C4.27509 0.0895996 0.076416 4.09017 0.076416 9.04169C0.076416 13.9932 4.27509 17.9938 9.47176 17.9938H42.992C48.1887 17.9938 52.3873 13.9932 52.3873 9.04169C52.3873 4.09017 48.1887 0.0895996 42.992 0.0895996Z" fill="#41454C"/>
<path d="M42.0355 14.0833H9.85207C6.96072 14.0833 4.58569 11.8426 4.58569 9.04167C4.58569 6.27369 6.9263 4 9.85207 4H42.0355C44.9269 4 47.3019 6.24074 47.3019 9.04167C47.2675 11.8096 44.9269 14.0833 42.0355 14.0833Z" fill="url(#paint0_linear_1186_1338)"/>
<defs>
<linearGradient id="paint0_linear_1186_1338" x1="4.59327" y1="9.042" x2="47.2713" y2="9.042" gradientUnits="userSpaceOnUse">
<stop stop-color="#464B4D"/>
<stop offset="1" stop-color="#1A1D1E"/>
</linearGradient>
</defs>
</svg>
