<svg width="19" height="14" viewBox="0 0 19 14" fill="none" xmlns="http://www.w3.org/2000/svg">
<path d="M0.539062 0.9021V2.56251L8.15794 7.31205H8.19846C8.27952 7.35067 8.36057 7.38928 8.48215 7.38928C8.72531 7.46651 9.09004 7.54374 9.45477 7.54374C9.94109 7.54374 10.4274 7.42789 10.9137 7.11898C12.089 6.3467 15.8579 3.87539 18.2489 2.29221V0.9021H0.539062ZM9.45477 9.20415C8.239 9.20415 7.42847 8.77939 7.34742 8.77939L7.3069 8.74078L0.498535 4.49322V13.2972H18.2489V4.30015C15.8984 5.84471 12.8995 7.81403 11.8863 8.47048C11.0758 9.01107 10.2248 9.20415 9.45477 9.20415Z" fill="#41454C"/>
</svg>
