<svg width="67" height="11" viewBox="0 0 67 11" fill="none" xmlns="http://www.w3.org/2000/svg">
<path d="M11.713 5.58228C11.713 8.47834 9.24092 10.7952 6.242 10.7952C3.20255 10.7952 0.730469 8.43972 0.730469 5.58228C0.730469 2.68621 3.20255 0.369365 6.20147 0.369365C9.24092 0.33075 11.713 2.68621 11.713 5.58228Z" fill="#41454C"/>
<path d="M25.3312 5.5823C25.3312 8.47836 22.8591 10.7952 19.8602 10.7952C16.8612 10.7952 14.3892 8.43974 14.3892 5.5823C14.3892 2.68623 16.8612 0.369385 19.8602 0.369385C22.8591 0.369385 25.3312 2.68623 25.3312 5.5823Z" fill="#41454C"/>
<path d="M38.9879 5.5824C38.9879 8.47846 36.5158 10.7953 33.5169 10.7953C30.4775 10.7953 28.0459 8.43985 28.0459 5.5824C28.0459 2.68634 30.518 0.369487 33.5169 0.369487C36.5564 0.330872 38.9879 2.68634 38.9879 5.5824Z" fill="#41454C"/>
<path d="M47.1736 0.330811C44.1342 0.330811 41.7026 2.68627 41.7026 5.54372C41.7026 8.43979 44.1747 10.7566 47.1736 10.7566C50.2131 10.7566 52.6446 8.40117 52.6446 5.54372C52.6446 2.68627 50.1726 0.330811 47.1736 0.330811ZM47.1736 9.8299C44.7016 9.8299 42.7158 7.9378 42.7158 5.58234C42.7158 3.22687 44.7016 1.33478 47.1736 1.33478C49.6457 1.33478 51.6315 3.22687 51.6315 5.58234C51.6315 7.9378 49.6052 9.8299 47.1736 9.8299Z" fill="#41454C"/>
<path d="M60.7906 0.330811C57.7511 0.330811 55.3196 2.68627 55.3196 5.54372C55.3196 8.43979 57.7917 10.7566 60.7906 10.7566C63.83 10.7566 66.2616 8.40117 66.2616 5.54372C66.3021 2.68627 63.83 0.330811 60.7906 0.330811ZM60.7906 9.8299C58.3185 9.8299 56.3327 7.9378 56.3327 5.58234C56.3327 3.22687 58.3185 1.33478 60.7906 1.33478C63.2627 1.33478 65.2484 3.22687 65.2484 5.58234C65.2484 7.9378 63.2627 9.8299 60.7906 9.8299Z" fill="#41454C"/>
</svg>
