<svg width="31" height="20" viewBox="0 0 31 20" fill="none" xmlns="http://www.w3.org/2000/svg">
<path d="M17.0617 19.8002C6.65094 19.8002 0.712815 12.4428 0.465393 0.200195H5.68028C5.85158 9.18598 9.69613 12.9922 12.7413 13.777V0.200195H17.6517V7.94994C20.6588 7.61641 23.8182 4.08488 24.884 0.200195H29.7944C29.3928 2.2149 28.5922 4.12251 27.4427 5.8037C26.2932 7.48488 24.8196 8.90348 23.114 9.97076C25.0179 10.946 26.6995 12.3263 28.0479 14.0206C29.3962 15.715 30.3807 17.6848 30.9363 19.8002H25.5311C25.0323 17.9628 24.0186 16.3181 22.6169 15.0721C21.2153 13.8262 19.488 13.0344 17.6517 12.796V19.8002H17.0617V19.8002Z" fill="#E5EBEE"/>
</svg>
