<svg width="69" height="46" viewBox="0 0 69 46" fill="none" xmlns="http://www.w3.org/2000/svg">
<path d="M37.9719 45.05C14.697 45.05 1.42132 28.4959 0.868164 0.949951H12.5269C12.9098 21.168 21.505 29.7319 28.313 31.4977V0.949951H39.2909V18.3869C46.0138 17.6364 53.0772 9.69049 55.46 0.949951H66.4379C65.54 5.48304 63.7502 9.77516 61.1803 13.5578C58.6105 17.3405 55.316 20.5324 51.5028 22.9337C55.7592 25.128 59.5187 28.2337 62.5332 32.046C65.5477 35.8582 67.7487 40.2904 68.9909 45.05H56.9067C55.7916 40.9159 53.5252 37.2153 50.3915 34.4119C47.2579 31.6084 43.3963 29.8269 39.2909 29.2905V45.05H37.9719V45.05Z" fill="#577BFA"/>
</svg>
