<svg width="31" height="30" viewBox="0 0 31 30" fill="none" xmlns="http://www.w3.org/2000/svg">
<path d="M25.8875 4.8876C23.1104 2.13135 19.4075 0.600098 15.4989 0.600098C7.37322 0.600098 0.790356 7.13343 0.790356 15.198C0.790356 17.7501 1.51036 20.3022 2.74464 22.4459L0.6875 30.0001L8.50465 27.9584C10.6647 29.0813 13.0304 29.6938 15.4989 29.6938C23.6247 29.6938 30.2075 23.1605 30.2075 15.0959C30.1047 11.3188 28.6647 7.64385 25.8875 4.8876ZM22.5961 20.4043C22.2875 21.2209 20.8475 22.0376 20.1275 22.1397C19.5104 22.2418 18.6875 22.2418 17.8647 22.0376C17.3504 21.8334 16.6304 21.6293 15.8075 21.2209C12.1047 19.6897 9.73894 16.0147 9.53323 15.7084C9.32751 15.5043 7.99037 13.7688 7.99037 11.9313C7.99037 10.0938 8.91608 9.27718 9.22465 8.86885C9.53322 8.46051 9.94465 8.46051 10.2532 8.46051C10.4589 8.46051 10.7675 8.46051 10.9732 8.46051C11.1789 8.46051 11.4875 8.35843 11.7961 9.07301C12.1047 9.7876 12.8247 11.6251 12.9275 11.7272C13.0304 11.9313 13.0304 12.1355 12.9275 12.3397C12.8247 12.5438 12.7218 12.748 12.5161 12.9522C12.3104 13.1563 12.1047 13.4626 12.0018 13.5647C11.7961 13.7688 11.5904 13.973 11.7961 14.2793C12.0018 14.6876 12.7218 15.8105 13.8532 16.8313C15.2932 18.0563 16.4247 18.4647 16.8361 18.6688C17.2475 18.873 17.4532 18.7709 17.6589 18.5668C17.8647 18.3626 18.5847 17.5459 18.7904 17.1376C18.9961 16.7293 19.3047 16.8313 19.6132 16.9334C19.9218 17.0355 21.7732 17.9543 22.0818 18.1584C22.4932 18.3626 22.6989 18.4647 22.8018 18.5668C22.9047 18.873 22.9047 19.5876 22.5961 20.4043Z" fill="#E5EBEE"/>
</svg>
