<svg width="67" height="67" viewBox="0 0 67 67" fill="none" xmlns="http://www.w3.org/2000/svg">
<path d="M57.0575 9.99697C50.8487 3.79541 42.5704 0.350098 33.8321 0.350098C15.6658 0.350098 0.948701 15.0501 0.948701 33.1954C0.948701 38.9376 2.55838 44.6798 5.31783 49.5032L0.71875 66.5001L18.1953 61.9063C23.0243 64.4329 28.3132 65.811 33.8321 65.811C51.9985 65.811 66.7156 51.111 66.7156 32.9657C66.4856 24.4673 63.2662 16.1985 57.0575 9.99697ZM49.699 44.9095C49.0091 46.747 45.7897 48.5845 44.1801 48.8142C42.8003 49.0438 40.9607 49.0438 39.1211 48.5845C37.9713 48.1251 36.3616 47.6657 34.522 46.747C26.2436 43.3017 20.9547 35.0329 20.4948 34.3438C20.0349 33.8845 17.0455 29.9798 17.0455 25.8454C17.0455 21.711 19.1151 19.8735 19.8049 18.9548C20.4948 18.036 21.4146 18.036 22.1045 18.036C22.5644 18.036 23.2542 18.036 23.7141 18.036C24.1741 18.036 24.8639 17.8063 25.5538 19.4142C26.2436 21.022 27.8533 25.1563 28.0833 25.386C28.3132 25.8454 28.3132 26.3048 28.0833 26.7642C27.8533 27.2235 27.6234 27.6829 27.1635 28.1423C26.7035 28.6017 26.2436 29.2907 26.0137 29.5204C25.5538 29.9798 25.0939 30.4392 25.5538 31.1282C26.0137 32.047 27.6234 34.5735 30.1529 36.8704C33.3722 39.6267 35.9017 40.5454 36.8215 41.0048C37.7414 41.4642 38.2012 41.2345 38.6612 40.7751C39.1211 40.3157 40.7308 38.4782 41.1907 37.5595C41.6506 36.6407 42.3404 36.8704 43.0303 37.1001C43.7201 37.3298 47.8593 39.397 48.5492 39.8563C49.469 40.3157 49.9289 40.5454 50.1589 40.7751C50.3888 41.4642 50.3888 43.072 49.699 44.9095Z" fill="#577BFA"/>
</svg>
