<svg width="24" height="14" viewBox="0 0 24 14" fill="none" xmlns="http://www.w3.org/2000/svg">
<path d="M14.5894 13.7606L16.4941 11.9457C15.3593 10.8259 13.7383 10.1309 11.9957 10.1309C10.2531 10.1309 8.67257 10.7873 7.53784 11.8685L9.48309 13.6834C10.1315 13.0655 11.0231 12.718 11.9957 12.718C13.0088 12.6794 13.9409 13.1041 14.5894 13.7606Z" fill="#41454C"/>
<path d="M11.9955 0.438721C7.41602 0.438721 3.28237 2.21497 0.283447 5.11103L2.3908 7.08036C4.86288 4.72489 8.22654 3.25755 11.9955 3.25755C15.7238 3.25755 19.128 4.68628 21.5596 7.04174L23.6264 5.03381C20.6275 2.17636 16.5344 0.438721 11.9955 0.438721Z" fill="#41454C"/>
<path d="M4.05371 8.58637L5.91791 10.324C7.4579 8.85666 9.60577 7.92993 11.9968 7.92993C14.3878 7.92993 16.5357 8.85666 18.1162 10.3626L19.9399 8.58637C17.9136 6.65566 15.1173 5.45862 11.9968 5.45862C8.8763 5.45862 6.08001 6.65566 4.05371 8.58637Z" fill="#41454C"/>
</svg>
