<svg width="36" height="24" viewBox="0 0 36 24" fill="none" xmlns="http://www.w3.org/2000/svg">
<path fill-rule="evenodd" clip-rule="evenodd" d="M4.4583 23.2909C3.83425 23.1052 3.26484 22.7749 2.79814 22.3278C2.33143 21.8807 1.98112 21.3299 1.77676 20.722C0.608988 17.5798 0.262982 4.45909 2.51202 1.86892C3.26054 1.02632 4.31735 0.50755 5.45307 0.425215C11.4865 -0.211713 30.1276 -0.126788 32.2685 0.637525C32.8707 0.829317 33.4208 1.15241 33.8777 1.5826C34.3346 2.01278 34.6864 2.5389 34.9068 3.12154C36.1827 6.36987 36.2259 18.1743 34.7338 21.2952C34.338 22.1076 33.6753 22.7657 32.8524 23.1635C30.6034 24.2675 7.4426 24.2463 4.4583 23.2909ZM14.0383 17.1339L24.851 11.6139L14.0383 6.0514V17.1339Z" fill="#E5EBEE"/>
</svg>
