<svg width="76" height="54" viewBox="0 0 76 54" fill="none" xmlns="http://www.w3.org/2000/svg">
<path fill-rule="evenodd" clip-rule="evenodd" d="M8.56575 52.3921C7.23845 51.9781 6.02738 51.2415 5.03475 50.2446C4.04211 49.2477 3.29703 48.0196 2.86238 46.6641C0.378648 39.6579 -0.357273 10.4023 4.4262 4.6269C6.01823 2.74813 8.26596 1.59141 10.6815 1.40783C23.5141 -0.012345 63.1618 0.177014 67.7153 1.88122C68.996 2.30887 70.1661 3.02928 71.1379 3.98847C72.1097 4.94767 72.8579 6.12078 73.3266 7.41991C76.0403 14.6628 76.1323 40.9834 72.9587 47.9422C72.1168 49.7537 70.7074 51.221 68.9571 52.1081C64.1736 54.5697 14.9131 54.5224 8.56575 52.3921ZM28.9415 38.6638L51.939 26.3556L28.9415 13.9527V38.6638Z" fill="#577BFA"/>
</svg>
