<svg width="348" height="488" viewBox="0 0 348 488" fill="none" xmlns="http://www.w3.org/2000/svg">
<g clip-path="url(#clip0_971_553)">
<path d="M173.22 208.655C172.427 208.655 171.784 208.014 171.784 207.223C171.784 206.654 172.116 206.166 172.596 205.935C173.662 204.1 175.172 193.557 175.993 184.505C176.065 183.717 176.768 183.136 177.551 183.211C178.341 183.283 178.921 183.977 178.849 184.765C176.683 208.655 174.514 208.655 173.22 208.655Z" fill="#303436"/>
<path d="M245.528 211.188C245.058 211.188 244.597 210.956 244.321 210.531C243.55 209.337 242.974 208.055 242.613 206.72C240.717 199.738 240.999 185.947 241.012 185.365C241.031 184.574 241.711 183.924 242.479 183.968C243.271 183.986 243.898 184.64 243.88 185.428C243.876 185.565 243.591 199.388 245.381 205.972C245.666 207.023 246.12 208.036 246.732 208.983C247.161 209.646 246.97 210.531 246.302 210.959C246.064 211.113 245.795 211.188 245.528 211.188Z" fill="#303436"/>
<path d="M211.35 204.203C210.927 204.203 200.879 204.078 186.195 194.229C175.902 187.498 172.458 180.209 170.396 175.854C167.28 169.826 164.613 161.606 162.024 150.032C161.852 149.26 162.338 148.497 163.112 148.325C163.883 148.15 164.651 148.637 164.823 149.41C167.359 160.737 169.944 168.738 172.966 174.588C174.918 178.715 178.15 185.547 187.778 191.847C201.678 201.167 211.259 201.342 211.353 201.342C212.143 201.348 212.782 201.989 212.779 202.777C212.779 203.565 212.14 204.203 211.35 204.203Z" fill="#303436"/>
<path d="M211.638 204.193C210.864 204.193 210.228 203.581 210.206 202.802C210.184 202.014 210.805 201.358 211.591 201.333C211.732 201.326 219.872 200.873 233.12 191.14C242.641 184.111 246.741 176.445 248.339 172.499C251.044 166.44 253.172 158.308 255.059 146.852C255.188 146.073 255.934 145.542 256.708 145.673C257.488 145.801 258.018 146.536 257.889 147.318C255.962 159.021 253.765 167.378 250.978 173.619C249.289 177.796 244.911 185.994 234.825 193.441C220.699 203.824 212.043 204.184 211.682 204.193C211.666 204.193 211.654 204.193 211.638 204.193Z" fill="#303436"/>
<path d="M163.905 157.792C163.855 157.792 163.804 157.789 163.754 157.782C159.175 157.304 151.337 153.043 148.506 143.263C146.914 137.754 147.949 132.301 151.208 129.027C153.91 126.313 157.755 125.485 162.037 126.685C162.798 126.901 163.243 127.689 163.027 128.449C162.811 129.209 162.021 129.653 161.259 129.437C157.981 128.515 155.207 129.071 153.242 131.041C150.754 133.539 149.976 138.026 151.261 142.465C153.681 150.829 160.391 154.553 164.052 154.934C164.839 155.015 165.412 155.719 165.328 156.507C165.252 157.245 164.632 157.792 163.905 157.792Z" fill="#303436"/>
<path d="M160.04 144.298C159.592 144.298 159.147 144.088 158.868 143.694C158.849 143.669 157.066 141.162 156.201 140.074C155.709 139.454 155.809 138.557 156.43 138.063C157.05 137.572 157.953 137.675 158.445 138.291C159.363 139.442 161.134 141.934 161.21 142.04C161.667 142.684 161.514 143.578 160.868 144.035C160.617 144.213 160.329 144.298 160.04 144.298Z" fill="#303436"/>
<path d="M256.372 155.175C255.683 155.175 255.072 154.675 254.959 153.974C254.83 153.196 255.363 152.461 256.144 152.333C259.776 151.745 266.264 147.649 268.204 139.161C269.235 134.652 268.204 130.219 265.577 127.864C263.506 126.007 260.704 125.61 257.485 126.717C256.736 126.976 255.921 126.576 255.664 125.829C255.407 125.082 255.805 124.269 256.554 124.013C260.76 122.571 264.643 123.181 267.499 125.738C270.94 128.821 272.285 134.208 271.006 139.799C268.737 149.725 261.152 154.422 256.607 155.156C256.526 155.169 256.451 155.175 256.372 155.175Z" fill="#303436"/>
<path d="M259.178 141.493C258.917 141.493 258.654 141.421 258.419 141.274C257.748 140.855 257.545 139.974 257.965 139.301C258.034 139.192 259.66 136.603 260.51 135.403C260.967 134.755 261.864 134.602 262.509 135.059C263.155 135.515 263.311 136.406 262.854 137.053C262.048 138.188 260.412 140.796 260.397 140.821C260.121 141.256 259.654 141.493 259.178 141.493Z" fill="#303436"/>
<path d="M210.895 157.62C210.576 157.62 210.256 157.514 209.986 157.298C209.375 156.798 209.284 155.897 209.786 155.284C211.541 153.143 212.378 151.551 212.274 150.554C212.196 149.794 211.475 149.181 210.309 148.247C208.805 147.04 206.934 145.539 206.216 142.75C204.163 135.781 208.824 125.645 209.024 125.219C209.36 124.503 210.212 124.194 210.93 124.525C211.648 124.86 211.958 125.71 211.626 126.426C210.394 129.068 207.517 137.019 208.98 141.993C209.476 143.91 210.754 144.936 212.108 146.02C213.49 147.13 214.923 148.278 215.13 150.26C215.324 152.12 214.362 154.231 212.008 157.098C211.723 157.442 211.312 157.62 210.895 157.62Z" fill="#303436"/>
<path d="M178.867 112.507C178.432 112.507 178.002 112.31 177.72 111.937C177.247 111.309 177.369 110.415 177.999 109.94C178.269 109.736 184.709 104.984 193.573 108.479C194.309 108.77 194.67 109.602 194.378 110.337C194.087 111.071 193.256 111.431 192.517 111.14C185.198 108.251 179.945 112.059 179.726 112.222C179.466 112.416 179.165 112.507 178.867 112.507Z" fill="#303436"/>
<path d="M236.821 110.293C236.549 110.293 236.273 110.215 236.025 110.052C235.787 109.896 230.349 106.425 223.241 109.965C222.536 110.315 221.671 110.03 221.316 109.324C220.962 108.617 221.251 107.757 221.959 107.404C230.616 103.096 237.338 107.485 237.62 107.673C238.279 108.114 238.451 109.002 238.009 109.658C237.736 110.071 237.282 110.293 236.821 110.293Z" fill="#303436"/>
<path fill-rule="evenodd" clip-rule="evenodd" d="M177.422 184.634C177.422 184.634 196.839 202.602 211.92 202.464C223.523 202.427 239.645 187.788 239.645 187.788C239.645 187.788 223.432 209.374 208.144 212.41C194.877 215.099 175.805 202.761 175.805 202.761L177.422 184.634Z" fill="#303436"/>
<path d="M273.491 83.786C273.168 83.786 272.843 83.6765 272.576 83.4545C269.574 80.9595 268.364 78.1112 266.687 74.1686C265.33 70.9733 263.637 66.9931 260.353 61.7436C253.608 50.5067 244.851 45.5948 235.022 47.5208C234.255 47.674 233.493 47.1675 233.339 46.3921C233.186 45.6167 233.694 44.8664 234.471 44.7131C245.437 42.5714 255.498 48.0899 262.801 60.2522C266.192 65.6706 267.928 69.7633 269.326 73.0524C270.899 76.7574 271.94 79.2055 274.41 81.2566C275.018 81.7631 275.099 82.6635 274.595 83.2701C274.309 83.6109 273.902 83.786 273.491 83.786Z" fill="#303436"/>
<path d="M264.233 125.435C264.086 125.435 263.932 125.413 263.785 125.363C263.033 125.116 262.625 124.306 262.873 123.556C262.951 123.318 270.677 99.6596 266.524 88.8167C266.242 88.0788 266.612 87.2502 267.351 86.9688C268.088 86.6906 268.919 87.0564 269.204 87.7943C273.72 99.5877 265.932 123.443 265.599 124.453C265.396 125.054 264.835 125.435 264.233 125.435Z" fill="#303436"/>
<path d="M153.737 57.1069C153.505 57.1069 153.292 57.1006 153.104 57.085C152.315 57.0287 151.719 56.344 151.775 55.5561C151.832 54.7682 152.499 54.1679 153.308 54.2304C156.132 54.4212 163.808 52.9704 169.565 48.5369C193.708 29.296 214.782 27.1074 227.369 42.5589C227.867 43.1717 227.776 44.0722 227.162 44.5693C226.544 45.0696 225.645 44.9727 225.143 44.3598C208.889 24.4092 182.099 42.2056 171.336 50.785C165.017 55.6593 157.097 57.1069 153.737 57.1069Z" fill="#303436"/>
<path d="M255.006 119.989C243.948 119.989 240.306 108.458 237.066 98.2089C233.863 88.0788 231.101 79.3337 222.79 80.2967C222.015 80.3905 221.291 79.8277 221.197 79.043C221.107 78.2582 221.668 77.5484 222.457 77.4547C233.098 76.2134 236.514 86.9563 239.802 97.349C243.218 108.161 246.446 118.369 256.924 117C257.711 116.9 258.428 117.45 258.532 118.231C258.635 119.013 258.08 119.732 257.297 119.835C256.501 119.939 255.736 119.989 255.006 119.989Z" fill="#303436"/>
<path d="M161.046 121.73C160.777 121.73 160.504 121.727 160.228 121.721C159.435 121.699 158.812 121.042 158.834 120.251C158.856 119.46 159.501 118.819 160.307 118.86C176.404 119.291 181.732 105.378 186.421 93.1031C189.276 85.6337 191.739 79.1835 196.437 77.5046C198.75 76.6792 201.295 77.0856 204.22 78.7521C204.906 79.1429 205.147 80.0183 204.752 80.7031C204.361 81.3878 203.486 81.6285 202.797 81.2346C200.647 80.009 198.882 79.6682 197.403 80.1966C193.949 81.4315 191.702 87.3095 189.1 94.1192C184.393 106.441 178.551 121.727 161.046 121.73Z" fill="#303436"/>
<path d="M153.813 129.428C153.227 129.428 152.678 129.068 152.465 128.486C145.927 110.627 137.872 78.1205 157.379 61.0963C157.975 60.5772 158.881 60.6366 159.404 61.2307C159.924 61.8247 159.865 62.7283 159.269 63.2505C141.05 79.1522 148.876 110.334 155.16 127.505C155.433 128.246 155.048 129.068 154.305 129.34C154.145 129.399 153.979 129.428 153.813 129.428Z" fill="#303436"/>
<path d="M221.194 70.7949C221.138 70.7949 221.082 70.7917 221.025 70.7855C220.239 70.6917 219.677 69.982 219.772 69.1972C219.822 68.7751 221.05 58.7951 225.83 53.7519C226.375 53.1766 227.281 53.1516 227.858 53.6956C228.434 54.2396 228.459 55.1432 227.914 55.7185C223.793 60.0707 222.63 69.4411 222.62 69.5348C222.53 70.2602 221.912 70.7949 221.194 70.7949Z" fill="#303436"/>
<path d="M212.503 81.4596C211.676 81.4409 211.049 80.7843 211.068 79.9933C211.127 77.5952 209.889 74.9657 207.84 73.1336C206.06 71.5421 203.913 70.7824 201.951 71.0419C201.173 71.1451 200.443 70.5979 200.34 69.8131C200.236 69.0315 200.785 68.3093 201.571 68.2061C204.37 67.8309 207.351 68.8533 209.755 71.0044C212.45 73.415 214.014 76.8042 213.936 80.0621C213.917 80.8437 213.281 81.4596 212.503 81.4596Z" fill="#303436"/>
<path fill-rule="evenodd" clip-rule="evenodd" d="M182.378 132.686C182.296 129.793 184.258 127.424 186.577 127.358C188.897 127.292 190.99 129.55 191.075 132.439C191.157 135.331 189.195 137.701 186.875 137.766C184.556 137.835 182.459 135.578 182.378 132.686Z" fill="#303436"/>
<path fill-rule="evenodd" clip-rule="evenodd" d="M226.447 131.729C226.366 128.837 228.328 126.467 230.647 126.401C232.966 126.335 235.06 128.593 235.141 131.482C235.223 134.374 233.261 136.744 230.942 136.809C228.334 136.884 226.529 134.621 226.447 131.729Z" fill="#303436"/>
<path d="M209.993 235.534C209.739 235.534 209.482 235.468 209.25 235.328C208.297 234.752 185.822 221.124 177.893 213.848C169.957 206.566 168.374 203.699 168.396 201.433C168.415 199.679 169.518 198.556 170.552 197.643C172.495 195.927 177.281 194.967 177.82 194.864C178.598 194.717 179.35 195.22 179.5 195.995C179.651 196.771 179.143 197.521 178.366 197.671C176.626 198.009 173.48 198.878 172.455 199.785C171.571 200.563 171.27 200.985 171.267 201.458C171.245 203.856 177.711 209.79 179.836 211.741C187.555 218.823 210.507 232.739 210.739 232.88C211.416 233.289 211.632 234.168 211.221 234.843C210.949 235.29 210.475 235.534 209.993 235.534Z" fill="#303436"/>
<path d="M50.5635 302.755C50.4915 302.755 50.4194 302.749 50.3441 302.74C49.5606 302.621 49.0247 301.889 49.1438 301.108C51.0055 288.999 67.7702 237.901 75.6557 230.76C83.9112 223.469 97.8645 221.558 115.529 219.138C127.796 217.459 141.699 215.552 156.163 211.422C156.925 211.206 157.718 211.644 157.937 212.404C158.157 213.163 157.715 213.954 156.953 214.173C142.295 218.363 128.282 220.283 115.92 221.974C98.7358 224.328 85.1648 226.189 77.5707 232.892C70.5063 239.289 53.9234 288.908 51.9802 301.545C51.8705 302.249 51.2593 302.755 50.5635 302.755Z" fill="#303436"/>
<path d="M186.778 259.284C185.646 259.284 182.719 258.117 174.561 243.829C172.821 240.784 170.505 237.67 168.048 234.371C163.513 228.274 158.37 221.368 155.743 213.148C155.204 211.463 156.022 209.674 157.646 208.986C158.733 208.524 160.548 207.557 162.999 205.566C165.422 203.596 170.364 197.846 170.414 197.787C170.928 197.187 171.837 197.118 172.436 197.631C173.038 198.143 173.107 199.047 172.593 199.647C172.383 199.891 167.431 205.657 164.81 207.786C162.099 209.99 160.028 211.091 158.768 211.622C158.514 211.728 158.389 212.013 158.476 212.282C160.959 220.048 165.735 226.464 170.352 232.67C172.859 236.041 175.228 239.223 177.053 242.419C181.309 249.869 184.615 254.312 186.214 255.854C189.232 241.006 193.579 232.648 199.139 231.016C201.233 230.403 203.934 230.503 207.169 231.316C209.626 231.932 211.87 233.367 213.484 235.359L219.066 242.225C219.565 242.838 219.471 243.738 218.856 244.235C218.242 244.732 217.339 244.639 216.841 244.026L211.259 237.16C210.03 235.65 208.329 234.559 206.47 234.09C203.778 233.414 201.524 233.302 199.951 233.761C197.428 234.502 192.645 238.457 188.984 256.632C188.897 257.07 188.831 257.395 188.787 257.576C188.568 258.508 187.941 259.137 187.104 259.259C187.013 259.268 186.906 259.284 186.778 259.284Z" fill="#303436"/>
<path d="M233.399 239.683C233.186 239.683 232.969 239.636 232.766 239.536C232.054 239.186 231.763 238.329 232.114 237.62C237.398 226.92 245.224 209.634 245.124 205.863C245.014 201.673 243.344 200.954 243.328 200.948C242.566 200.732 242.156 199.954 242.372 199.194C242.588 198.434 243.416 198.003 244.174 198.215C244.547 198.322 247.822 199.425 247.992 205.788C248.142 211.469 236.066 236.097 234.687 238.886C234.436 239.389 233.928 239.683 233.399 239.683Z" fill="#303436"/>
<path d="M251.662 256.929C251.163 256.929 250.496 256.71 249.86 255.813C248.813 254.337 248.327 251.67 247.766 248.581C247.017 244.461 246.086 239.333 243.663 237.332C241.466 235.515 239.564 234.862 238.019 235.384C235.364 236.285 233.866 240.484 233.515 242.025C233.339 242.797 232.575 243.279 231.797 243.104C231.026 242.929 230.541 242.162 230.716 241.39C230.782 241.099 232.393 234.268 237.094 232.676C239.652 231.807 242.475 232.636 245.491 235.131C248.719 237.798 249.709 243.257 250.587 248.075C250.803 249.269 251.026 250.485 251.27 251.536C251.392 250.185 251.499 248.559 251.596 247.034C251.837 243.31 252.135 238.673 252.787 233.911C254.131 224.078 254.768 218.841 254.978 217.047C254.987 216.981 254.968 216.919 254.928 216.862L244.416 202.205C243.955 201.561 244.102 200.67 244.748 200.21C245.393 199.75 246.287 199.897 246.747 200.542L257.259 215.199C257.714 215.834 257.914 216.609 257.824 217.381C257.614 219.182 256.977 224.441 255.626 234.299C254.987 238.961 254.692 243.538 254.454 247.215C254.012 254.065 253.865 256.376 252.132 256.864C252.007 256.901 251.847 256.929 251.662 256.929Z" fill="#303436"/>
<path d="M209.824 174.244C206.373 174.244 202.925 173.615 199.716 172.321C198.982 172.024 198.628 171.189 198.926 170.458C199.224 169.726 200.061 169.376 200.794 169.67C209.19 173.062 219.414 171.349 226.24 165.408C226.836 164.889 227.745 164.949 228.262 165.546C228.782 166.14 228.723 167.047 228.124 167.566C223.112 171.924 216.459 174.244 209.824 174.244Z" fill="#303436"/>
<path d="M216.653 258.489C216.568 258.489 216.48 258.483 216.393 258.468C207.244 256.798 198.324 251.43 190.595 242.941C190.063 242.356 190.106 241.45 190.692 240.921C191.279 240.393 192.187 240.437 192.717 241.018C200.017 249.038 208.382 254.1 216.907 255.654C217.687 255.797 218.201 256.542 218.06 257.317C217.935 258.008 217.333 258.489 216.653 258.489Z" fill="#303436"/>
<path d="M239.645 256.929C239.278 256.929 238.915 256.792 238.633 256.514C238.072 255.957 238.069 255.05 238.63 254.491C239.162 253.956 239.667 253.459 240.14 252.99C243.726 249.435 245.528 247.65 246.76 244.07C247.017 243.323 247.828 242.922 248.581 243.182C249.33 243.438 249.728 244.251 249.471 244.998C248.023 249.207 245.816 251.395 242.162 255.016C241.692 255.482 241.193 255.979 240.661 256.507C240.382 256.789 240.015 256.929 239.645 256.929Z" fill="#303436"/>
<path d="M225.04 264.896C220.292 264.896 216.267 262.254 215.547 258.577L212.362 245.499C212.155 244.648 212.365 243.751 212.936 243.044C213.666 242.134 214.904 241.647 216.23 241.628C218.953 241.678 223.874 241.753 226.234 241.697C227.601 241.665 229.415 241.068 231.17 240.49C234.092 239.527 236.85 238.623 238.564 240.021C240.767 241.825 240.849 251.711 240.705 257.445C240.485 261.3 236.615 264.355 231.697 264.593L225.661 264.88C225.451 264.89 225.244 264.896 225.04 264.896ZM216.145 244.489C215.55 244.489 215.192 244.761 215.149 244.873L218.349 257.967C218.834 260.44 221.975 262.182 225.523 262.023L231.562 261.732C234.95 261.569 237.708 259.634 237.84 257.326C238.003 250.942 237.58 243.304 236.696 242.184C236.254 241.834 233.43 242.76 232.073 243.207C230.121 243.851 228.099 244.514 226.306 244.557C223.887 244.614 218.925 244.539 216.183 244.489C216.167 244.489 216.155 244.489 216.145 244.489Z" fill="#303436"/>
<path d="M237.655 242.556C237.467 242.556 237.279 242.519 237.094 242.441C236.367 242.131 236.025 241.29 236.336 240.565L239.373 233.455C239.683 232.73 240.52 232.389 241.253 232.698C241.98 233.008 242.322 233.849 242.012 234.574L238.975 241.684C238.743 242.231 238.213 242.556 237.655 242.556Z" fill="#303436"/>
<path d="M213.716 244.186C213.5 244.186 213.277 244.136 213.071 244.032C210.936 242.96 207.648 239.443 204.179 235.625C203.261 234.615 202.392 233.658 202.079 233.383C201.483 232.861 201.427 231.957 201.95 231.363C202.474 230.769 203.38 230.713 203.975 231.235C204.392 231.601 205.097 232.37 206.307 233.705C208.482 236.1 212.531 240.556 214.365 241.478C215.073 241.834 215.355 242.694 214.998 243.401C214.744 243.901 214.24 244.186 213.716 244.186Z" fill="#303436"/>
<path d="M237.558 263.808C237.614 263.849 237.668 263.883 237.718 263.917C238.927 276.893 240.137 289.821 241.344 302.712C247.876 372.5 254.047 438.427 259.716 506.146H262.597C256.918 438.33 250.74 372.322 244.199 302.446C242.993 289.555 241.783 276.63 240.573 263.655C240.542 262.41 239.714 261.826 239.216 261.472C238.962 261.294 238.746 261.138 238.558 260.894C238.081 260.262 237.182 260.134 236.552 260.609C235.919 261.085 235.79 261.979 236.267 262.61C236.721 263.217 237.204 263.558 237.558 263.808Z" fill="#303436"/>
<path d="M214.406 506.149C214.744 432.805 215.606 353.875 219.533 273.475C219.909 271.909 219.994 270.392 220.076 268.926C220.201 266.69 220.307 264.758 221.364 262.995C221.771 262.316 221.549 261.438 220.868 261.034C220.192 260.628 219.308 260.85 218.903 261.528C217.484 263.895 217.346 266.372 217.211 268.766C217.129 270.208 217.054 271.571 216.716 272.922C216.694 273.012 216.678 273.106 216.675 273.2C212.738 353.706 211.877 432.727 211.535 506.149H214.406Z" fill="#303436"/>
<path d="M235.417 290.324C234.602 290.312 233.972 289.661 233.985 288.87C234.101 281.448 233.164 268.404 231.822 263.333C231.622 262.567 232.076 261.785 232.841 261.585C233.609 261.378 234.392 261.838 234.593 262.604C235.988 267.885 236.969 281.32 236.85 288.917C236.84 289.699 236.201 290.324 235.417 290.324Z" fill="#303436"/>
<path d="M74.6184 415.35C74.0637 415.35 73.5371 415.028 73.3021 414.49C72.9886 413.765 73.3209 412.924 74.048 412.608C87.8039 406.661 91.7906 388.627 99.0274 355.889C102.412 340.578 106.625 321.524 112.905 298.966C113.119 298.203 113.912 297.763 114.67 297.972C115.432 298.185 115.88 298.972 115.667 299.732C109.405 322.215 105.202 341.228 101.826 356.505C94.3857 390.165 90.2861 408.706 75.1857 415.231C75.0039 415.312 74.8096 415.35 74.6184 415.35Z" fill="#303436"/>
<path d="M255.727 219.207C258.977 221.186 262.283 222.287 265.483 223.353C267.019 223.866 268.608 224.394 270.191 225.023C276.077 227.186 282 228.865 287.733 230.488C299.972 233.955 311.531 237.229 322.334 244.805C322.923 245.405 323.425 246.011 323.914 246.602C324.876 247.765 325.785 248.869 327.145 249.623C336.178 259.768 338.08 272.734 338.08 281.854C338.08 281.892 338.08 281.926 338.083 281.964C340.309 311.394 340.265 340.947 340.218 369.524C340.186 389.884 340.152 410.938 340.948 431.627C341.885 455.93 342.857 481.058 345.123 506.152H348C345.721 481.045 344.753 455.867 343.813 431.517C343.017 410.888 343.051 389.862 343.082 369.53C343.129 340.915 343.176 311.326 340.945 281.801C340.939 272.128 338.873 258.349 329.107 247.522C328.988 247.39 328.844 247.281 328.681 247.199C327.719 246.721 327.013 245.868 326.123 244.786C325.597 244.148 324.998 243.423 324.274 242.7C324.218 242.644 324.155 242.591 324.086 242.544C312.853 234.637 301.031 231.288 288.51 227.74C282.831 226.133 276.961 224.469 271.213 222.359C269.589 221.712 267.962 221.168 266.386 220.645C263.199 219.586 260.187 218.582 257.219 216.772C256.545 216.362 255.661 216.572 255.247 217.247C254.837 217.916 255.05 218.798 255.727 219.207Z" fill="#303436"/>
<path d="M106.198 506.149H109.066C110.019 475.192 107.048 444.102 104.167 414.033C102.657 398.269 101.096 381.964 100.143 366.006C100.096 365.218 99.4098 364.612 98.6263 364.665C97.8365 364.712 97.2316 365.39 97.2817 366.178C98.2408 382.186 99.8016 398.516 101.315 414.306C104.186 444.314 107.154 475.342 106.198 506.149Z" fill="#303436"/>
<path d="M313.496 506.149H316.364C315.912 480.92 315.232 455.489 314.577 430.892C313.443 388.386 312.267 344.43 312.267 300.923C312.267 297.665 313.251 294.611 314.298 291.378C315.285 288.317 316.307 285.153 316.533 281.639C316.583 280.851 315.984 280.172 315.191 280.119C314.414 280.066 313.721 280.666 313.671 281.457C313.471 284.618 312.505 287.607 311.571 290.499C310.506 293.801 309.403 297.215 309.403 300.923C309.403 344.47 310.578 388.442 311.712 430.967C312.368 455.542 313.044 480.951 313.496 506.149Z" fill="#303436"/>
<path d="M73.7501 339.446C73.6216 339.446 73.4931 339.43 73.3646 339.393C72.603 339.18 72.1548 338.392 72.368 337.629C74.2892 330.766 76.3735 318.151 68.7386 310.775C64.2034 306.395 57.7878 305.301 50.996 304.141C48.2693 303.675 45.4517 303.193 42.772 302.48C33.5355 300.026 24.4182 294.286 14.8966 284.934C13.4643 283.524 11.3707 281.723 9.75342 282.38C9.07017 282.655 8.459 283.371 7.8353 284.631C2.52287 295.324 17.9085 310.547 22.7508 314.959C29.5426 321.146 34.2282 322.537 41.9915 324.838C43.6871 325.342 45.5081 325.883 47.5077 326.521C48.263 326.761 48.6767 327.565 48.4354 328.318C48.1941 329.072 47.3886 329.488 46.6333 329.244C44.6556 328.612 42.8534 328.078 41.1767 327.58C33.2973 325.245 28.0946 323.7 20.8171 317.069C14.1287 310.982 -0.768011 295.505 5.26214 283.361C5.8639 282.151 6.87311 280.454 8.67839 279.728C12.2294 278.303 15.5078 281.523 16.9056 282.899C26.0637 291.894 34.7641 297.397 43.5085 299.72C46.0628 300.398 48.8146 300.867 51.4787 301.324C58.4021 302.505 65.5605 303.728 70.7319 308.721C79.4355 317.125 77.2228 330.923 75.1292 338.398C74.9537 339.033 74.377 339.446 73.7501 339.446Z" fill="#303436"/>
<path d="M14.0443 445.296C11.819 445.296 9.62197 444.39 7.98907 442.761C6.17125 440.947 5.84529 438.336 5.60396 436.429C4.58535 428.316 3.76733 421.097 2.97752 414.112C2.18771 407.136 1.36969 399.926 0.354218 391.829C0.0784109 389.624 -0.235007 387.123 0.260193 384.678C0.868223 381.683 2.56068 379.191 4.19985 376.787L4.43491 376.44C13.8312 362.592 25.5028 339.743 32.8995 323.247C33.2223 322.525 34.0717 322.203 34.7925 322.525C35.5165 322.847 35.8393 323.694 35.5165 324.413C28.0697 341.025 16.304 364.049 6.80748 378.044L6.56929 378.394C5.08996 380.567 3.56361 382.815 3.06841 385.247C2.66411 387.233 2.93364 389.39 3.19691 391.472C4.21552 399.586 5.03354 406.805 5.82335 413.79C6.61317 420.765 7.43119 427.975 8.44666 436.073C8.69112 438.014 8.97633 439.703 10.0137 440.738C11.3176 442.038 13.0633 442.636 14.809 442.379C16.4451 442.138 17.7834 441.185 18.5794 439.7C22.751 431.908 20.9457 418.164 19.4946 407.121C18.6265 400.502 17.8743 394.783 18.4227 391.081C18.7142 389.109 21.7324 386.492 27.493 381.652C28.5931 380.726 29.712 379.785 30.7996 378.85C31.3982 378.334 32.304 378.4 32.8211 379C33.3383 379.597 33.2725 380.501 32.6707 381.017C31.5769 381.958 30.4486 382.909 29.3391 383.837C26.0639 386.589 21.5788 390.359 21.2529 391.525C20.7671 394.805 21.4942 400.339 22.3373 406.749C23.8417 418.198 25.7128 432.449 21.1087 441.05C19.8927 443.32 17.7489 444.837 15.2321 445.209C14.8372 445.268 14.4423 445.296 14.0443 445.296Z" fill="#303436"/>
<path d="M47.5735 488.343C43.2233 488.343 39.644 484.059 37.9014 479.438C33.6609 468.186 29.8999 461.279 26.8785 455.729C22.9452 448.504 20.3469 443.73 20.3469 435.472C20.3469 434.681 20.9894 434.044 21.7824 434.044C22.5753 434.044 23.2147 434.685 23.2147 435.472C23.2147 443.001 25.5434 447.278 29.3984 454.363C32.4636 459.991 36.2748 466.995 40.5843 478.432C42.026 482.262 45.0756 486.076 48.3633 485.401C51.6417 484.722 53.2276 480.014 52.4565 476.252C49.664 462.67 43.474 450.22 40.5028 444.239C39.7224 442.673 39.1614 441.541 38.895 440.86C38.8104 440.644 38.779 440.409 38.8041 440.178C38.8292 439.959 41.2926 417.995 41.7095 404.754C41.7345 403.963 42.3958 403.309 43.1888 403.369C43.9817 403.394 44.6023 404.053 44.5772 404.841C44.1855 417.244 42.0229 437.167 41.6969 440.128C41.9727 440.75 42.4711 441.754 43.076 442.97C46.1036 449.061 52.4033 461.729 55.271 475.677C56.3398 480.877 54.055 487.148 48.9494 488.202C48.4824 488.299 48.0217 488.343 47.5735 488.343Z" fill="#303436"/>
<path d="M74.703 457.383C74.5964 457.383 74.493 457.38 74.3927 457.374C69.9798 457.108 63.6582 451.19 55.6127 439.778C54.6693 438.443 53.3749 435.025 51.8737 431.067C51.0086 428.788 50.1154 426.433 49.2754 424.451C48.9683 423.723 49.3099 422.885 50.037 422.575C50.7673 422.272 51.6073 422.61 51.9175 423.335C52.7794 425.367 53.6821 427.75 54.5565 430.054C55.8697 433.512 57.2268 437.089 57.9602 438.13C68.1902 452.634 72.9823 454.419 74.5682 454.516C75.3204 454.573 75.5994 454.254 75.7341 454.104C78.3668 451.271 70.4781 441.031 67.5101 437.18C66.6701 436.088 66.0057 435.225 65.5919 434.616C65.4854 434.459 65.4133 434.284 65.3726 434.1C64.285 428.753 62.2791 420.112 61.2166 418.217C61.0129 417.851 60.8249 417.535 60.6619 417.257C59.3079 414.956 59.1387 414.068 60.7496 411.26C61.1446 410.575 62.0221 410.338 62.7054 410.732C63.3918 411.126 63.6299 411.998 63.235 412.686C62.276 414.356 62.276 414.356 63.1316 415.809C63.3071 416.103 63.5015 416.438 63.7177 416.822C65.2566 419.568 67.6417 430.914 68.1212 433.246C68.5067 433.787 69.1022 434.563 69.7792 435.441C75.7467 443.186 81.7862 451.799 77.8779 456.008C76.8687 457.121 75.6464 457.383 74.703 457.383Z" fill="#303436"/>
<path d="M57.136 482.152C55.5501 482.152 54.1334 481.495 53.3624 480.536C52.8672 479.92 52.9644 479.019 53.5818 478.525C54.1992 478.031 55.1019 478.128 55.5971 478.744C56.0045 479.254 57.3272 479.57 58.5526 478.938C59.7123 478.338 63.2257 475.442 59.7436 463.411C57.9634 457.265 55.898 452.068 52.6133 445.474C51.1372 442.51 49.6077 439.443 48.9338 436.032C48.9213 435.976 48.915 435.919 48.9119 435.863C48.8931 435.622 48.47 429.966 48.5985 427.015C48.7238 424.154 48.7928 421.822 48.8649 419.492C48.937 417.144 49.009 414.793 49.1344 411.91C49.1689 411.123 49.8302 410.507 50.6294 410.544C51.4192 410.579 52.0335 411.248 51.9991 412.035C51.8737 414.906 51.8016 417.241 51.7326 419.58C51.6606 421.922 51.5885 424.264 51.4662 427.14C51.3534 429.732 51.717 434.838 51.7671 435.563C52.3752 438.568 53.8043 441.432 55.1834 444.202C58.5526 450.961 60.6713 456.295 62.5017 462.62C66.4789 476.355 61.9908 480.386 59.8752 481.48C58.9601 481.949 58.0198 482.152 57.136 482.152Z" fill="#303436"/>
<path d="M57.8849 414.321C57.8191 414.321 57.7533 414.315 57.6843 414.309C53.7259 413.758 48.8021 413.077 45.2793 409.86C44.0601 408.743 43.1355 407.44 42.2454 406.18C41.0387 404.476 38.4969 400.652 36.0366 396.953C33.5856 393.273 31.0532 389.465 29.8717 387.792C29.4141 387.148 29.5708 386.254 30.2164 385.801C30.8652 385.344 31.7584 385.497 32.216 386.145C33.4227 387.849 35.9645 391.672 38.4279 395.371C40.8789 399.051 43.4113 402.859 44.5929 404.532C45.3984 405.67 46.2289 406.846 47.2224 407.752C49.8708 410.172 53.7102 410.869 58.0855 411.479C58.869 411.589 59.4175 412.311 59.3078 413.092C59.2044 413.802 58.5901 414.321 57.8849 414.321Z" fill="#303436"/>
<path d="M71.1112 415.891C68.2027 415.891 64.94 415.012 61.3545 413.255C60.9314 413.049 60.6368 412.645 60.5678 412.179C60.4989 411.713 60.665 411.244 61.0098 410.922C65.4039 406.833 78.4765 390.153 77.8967 385.159C76.8217 375.911 73.5026 366.428 68.024 356.977C67.626 356.292 67.8611 355.416 68.5475 355.022C69.2338 354.628 70.1114 354.86 70.5063 355.545C76.1823 365.337 79.6268 375.189 80.7457 384.831C81.4665 391.044 69.3717 406.145 64.4354 411.504C69.074 413.417 72.8946 413.524 75.8125 411.817C80.7237 408.943 83.5727 400.852 84.281 387.764C84.6258 381.395 84.6947 375.67 84.4941 370.268C84.1556 361.091 83.1715 353.884 81.4007 347.584C79.9715 342.507 78.1662 337.401 74.6528 334.437C74.0479 333.927 73.9727 333.024 74.4836 332.42C74.9944 331.817 75.9002 331.742 76.5051 332.252C80.6078 335.713 82.6105 341.297 84.1619 346.812C85.9954 353.334 87.014 360.753 87.3619 370.161C87.5656 375.652 87.4935 381.458 87.1456 387.917C86.3746 402.224 83.1402 410.847 77.2636 414.284C75.4332 415.356 73.3804 415.891 71.1112 415.891Z" fill="#303436"/>
<path d="M79.0407 393.914C78.8934 393.914 78.743 393.892 78.5925 393.842C77.8403 393.595 77.4297 392.788 77.6773 392.038C79.0376 387.908 81.2628 383.99 84.1181 380.707C84.6352 380.107 85.5441 380.045 86.1396 380.564C86.7382 381.083 86.8009 381.983 86.2838 382.583C83.6762 385.582 81.6421 389.162 80.4041 392.932C80.2035 393.533 79.6425 393.914 79.0407 393.914Z" fill="#303436"/>
<path d="M94.4639 340.052C93.9279 340.052 93.4139 339.752 93.1694 339.24C91.2576 335.247 89.0919 330.723 85.5628 327.568C82.764 325.067 79.1785 323.485 75.7121 321.956C74.9881 321.637 74.659 320.793 74.9787 320.071C75.2984 319.348 76.1446 319.023 76.8686 319.339C80.3695 320.883 84.3373 322.631 87.4747 325.436C91.43 328.975 93.8276 333.981 95.7551 338.005C96.0968 338.717 95.7927 339.571 95.0782 339.912C94.8807 340.009 94.6707 340.052 94.4639 340.052Z" fill="#303436"/>
<path d="M71.3997 400.696C74.9883 394.389 78.7556 390.781 79.0847 389.477C79.9873 385.907 83.087 383.387 86.0049 381.133C86.0049 389.712 84.7952 398.291 82.4257 406.536C81.7707 408.815 80.9307 411.21 79.0408 412.648C77.4643 413.849 75.4083 414.184 73.44 414.409C71.2994 414.653 62.483 415.49 61.9878 412.342C61.527 409.416 69.0647 404.798 71.3997 400.696Z" fill="#303436"/>
<path d="M245.578 201.373C245.86 201.974 245.989 202.63 246.117 203.28C246.324 204.331 246.531 205.403 246.38 206.463C246.192 207.78 245.462 208.99 245.399 210.318C245.437 209.493 244.212 207.77 243.93 206.907C243.51 205.629 243.215 204.309 243.049 202.974C242.949 202.158 242.478 200.392 243.381 199.888C244.35 199.35 245.24 200.654 245.578 201.373Z" fill="#303436"/>
<path d="M170.308 199.641C169.944 200.229 169.725 200.898 169.584 201.576C169.531 201.836 169.487 202.105 169.543 202.364C169.612 202.683 169.822 202.952 170.026 203.205C171.167 204.622 172.345 206.007 173.558 207.361C174.147 205.619 174.733 203.878 175.323 202.136C175.736 200.91 176.855 197.506 174.865 196.955C173.389 196.546 171.013 198.503 170.308 199.641Z" fill="#303436"/>
<path d="M234.483 247.012C234.236 247.012 233.982 246.946 233.753 246.812C231.155 245.273 228.184 244.445 225.159 244.414C224.366 244.404 223.733 243.757 223.739 242.969C223.749 242.184 224.388 241.553 225.175 241.553C228.716 241.59 232.183 242.556 235.217 244.351C235.897 244.754 236.122 245.633 235.718 246.311C235.452 246.762 234.975 247.012 234.483 247.012Z" fill="#303436"/>
<path d="M163.642 36.8778C163.206 36.8778 162.773 36.6808 162.491 36.3056L149.146 18.5154C148.673 17.8838 148.801 16.9865 149.434 16.5144C150.067 16.0423 150.967 16.1705 151.44 16.802L164.785 34.5923C165.259 35.2238 165.13 36.1212 164.497 36.5933C164.24 36.784 163.939 36.8778 163.642 36.8778Z" fill="#303436"/>
<path d="M178.551 28.6174C177.99 28.6174 177.457 28.286 177.228 27.7357L167.66 4.83353C167.356 4.10504 167.7 3.26712 168.431 2.96384C169.161 2.65744 170.001 3.00449 170.305 3.73298L179.873 26.6351C180.177 27.3636 179.833 28.2016 179.102 28.5048C178.921 28.583 178.733 28.6174 178.551 28.6174Z" fill="#303436"/>
<path d="M194.275 23.5617C193.61 23.5617 193.012 23.0958 192.871 22.4205L188.571 1.72257C188.411 0.95031 188.909 0.190553 189.683 0.0310973C190.461 -0.134611 191.216 0.368767 191.379 1.14103L195.679 21.839C195.839 22.6112 195.34 23.371 194.566 23.5304C194.469 23.5523 194.372 23.5617 194.275 23.5617Z" fill="#303436"/>
<path d="M21.6069 413.765C21.5035 413.765 21.4001 413.755 21.2967 413.73C20.5225 413.561 20.0336 412.795 20.206 412.026C22.3686 402.256 23.3401 395.252 23.9137 385.266C23.9576 384.478 24.6377 383.856 25.4275 383.922C26.2173 383.965 26.8222 384.644 26.7783 385.432C26.1922 395.59 25.205 402.709 23.0079 412.645C22.8575 413.311 22.2651 413.765 21.6069 413.765Z" fill="#303436"/>
</g>
<defs>
<clipPath id="clip0_971_553">
<rect width="348" height="488" fill="white"/>
</clipPath>
</defs>
</svg>
