<svg width="14" height="18" viewBox="0 0 14 18" fill="none" xmlns="http://www.w3.org/2000/svg">
<path d="M0.220665 5.43643C0.220866 5.4646 0.222872 5.49258 0.225078 5.52231L0.226482 5.5409C0.30873 6.71129 0.579945 7.8854 1.05537 9.13013C1.5304 10.3735 2.18658 11.5717 3.06161 12.7929C4.21467 14.4023 5.49211 15.6392 6.96675 16.574C7.66926 17.0195 8.27668 17.3585 8.95713 17.5658C10.0781 17.9072 11.1036 17.8624 12.0926 17.4285C12.7257 17.1509 13.2069 16.7836 13.5642 16.3057C13.7899 16.0038 13.8807 15.7102 13.8418 15.4082C13.8083 15.147 13.6974 14.9066 13.5122 14.6936C13.2396 14.3796 13.0065 14.1356 12.7788 13.9257C12.2516 13.44 11.6476 12.9938 10.9834 12.5996C10.6823 12.421 10.3668 12.3927 10.0456 12.5159C9.8458 12.5926 9.64379 12.7012 9.4454 12.8387C9.07729 13.094 8.78461 13.4355 8.49233 13.7927C8.39624 13.9099 8.2809 13.9756 8.15833 13.9827C8.03797 13.9897 7.91821 13.939 7.81229 13.8367C7.75692 13.7833 7.70155 13.7301 7.64599 13.6767C7.3836 13.4248 7.11238 13.1642 6.86223 12.8925C5.26483 11.1567 4.07144 9.19097 3.31497 7.04952C3.21788 6.77467 3.31096 6.57103 3.58438 6.4607C3.66622 6.42764 3.74847 6.39536 3.83052 6.36289C4.02069 6.28797 4.21728 6.2105 4.40585 6.1258C4.68067 6.00217 4.99221 5.8623 5.27666 5.69778C5.57657 5.52427 5.74668 5.25568 5.76854 4.92059C5.77897 4.76037 5.77115 4.6072 5.74487 4.46557C5.61849 3.7813 5.44276 3.1291 5.2229 2.52718C5.12561 2.26074 4.99201 1.91332 4.82069 1.58703C4.61768 1.20029 4.2903 0.979825 3.84717 0.931703C3.79401 0.925834 3.74045 0.923096 3.68648 0.923096C3.49571 0.923096 3.29952 0.959285 3.09109 1.03264C2.20824 1.34329 1.48166 1.89239 0.931602 2.6645C0.432101 3.3658 0.192781 4.18623 0.220264 5.10271V5.10408V5.19758C0.220264 5.2772 0.220063 5.35682 0.220665 5.43643Z" fill="#FAFAFB"/>
</svg>
