<svg width="194" height="221" viewBox="0 0 194 221" fill="none" xmlns="http://www.w3.org/2000/svg">
<path d="M68.689 14.9727C62.2284 18.6755 55.566 21.5815 48.3203 23.8508C34.7241 28.1161 20.9078 29.4988 6.77654 30.651" stroke="#303436" stroke-width="3" stroke-miterlimit="10" stroke-linecap="round"/>
<mask id="path-2-inside-1_2850_1837" fill="white">
<path fill-rule="evenodd" clip-rule="evenodd" d="M93.5411 73.9727C81.5231 73.9763 71.78 83.712 71.7764 95.7147C71.7761 96.5431 71.1043 97.2149 70.2759 97.2152C69.4475 97.2154 68.7761 96.544 68.7764 95.7156C68.7805 82.0533 79.8699 70.9768 93.5421 70.9727C94.3705 70.9724 95.0419 71.6438 95.0416 72.4722C95.0414 73.3006 94.3696 73.9724 93.5411 73.9727ZM104.407 112.216C109.57 109.365 113.068 103.87 113.07 97.5603C113.073 88.3208 105.578 80.8331 96.3296 80.8359C87.0811 80.8387 79.5815 88.3311 79.5787 97.5705C79.5767 103.88 83.0716 109.373 88.2337 112.221L72.9442 148.691L119.674 148.676L104.407 112.216Z"/>
</mask>
<path d="M71.7764 95.7147L68.7764 95.7138L68.7764 95.7138L71.7764 95.7147ZM93.5411 73.9727L93.5421 76.9727L93.5421 76.9727L93.5411 73.9727ZM68.7764 95.7156L65.7764 95.7147L65.7764 95.7147L68.7764 95.7156ZM93.5421 70.9727L93.5411 67.9727L93.5411 67.9727L93.5421 70.9727ZM95.0416 72.4722L98.0416 72.4731L95.0416 72.4722ZM104.407 112.216L102.957 109.59L100.6 110.891L101.639 113.375L104.407 112.216ZM113.07 97.5603L110.07 97.5594L110.07 97.5594L113.07 97.5603ZM96.3296 80.8359L96.3305 83.8359L96.3305 83.8359L96.3296 80.8359ZM79.5787 97.5705L82.5787 97.5714L82.5787 97.5714L79.5787 97.5705ZM88.2337 112.221L91.0004 113.381L92.0422 110.896L89.6829 109.594L88.2337 112.221ZM72.9442 148.691L70.1775 147.531L68.4329 151.692L72.9451 151.691L72.9442 148.691ZM119.674 148.676L119.675 151.676L124.182 151.675L122.441 147.518L119.674 148.676ZM74.7764 95.7156C74.7795 85.3717 83.1774 76.9758 93.5421 76.9727L93.5402 70.9727C79.8687 70.9768 68.7805 82.0522 68.7764 95.7138L74.7764 95.7156ZM70.2768 100.215C72.7614 100.214 74.7756 98.2002 74.7764 95.7156L68.7764 95.7138C68.7766 94.8861 69.4473 94.2154 70.275 94.2152L70.2768 100.215ZM65.7764 95.7147C65.7756 98.2007 67.7908 100.216 70.2768 100.215L70.275 94.2152C71.1041 94.2149 71.7766 94.8874 71.7764 95.7165L65.7764 95.7147ZM93.5411 67.9727C78.2157 67.9773 65.7811 80.3934 65.7764 95.7147L71.7764 95.7165C71.78 83.7131 81.5242 73.9763 93.543 73.9727L93.5411 67.9727ZM98.0416 72.4731C98.0424 69.9871 96.0271 67.9719 93.5411 67.9727L93.543 73.9727C92.7138 73.9729 92.0414 73.3004 92.0416 72.4713L98.0416 72.4731ZM93.5421 76.9727C96.0266 76.9719 98.0408 74.9577 98.0416 72.4731L92.0416 72.4713C92.0419 71.6436 92.7125 70.9729 93.5402 70.9727L93.5421 76.9727ZM105.857 114.842C111.937 111.485 116.068 105.008 116.07 97.5612L110.07 97.5594C110.069 102.732 107.204 107.244 102.957 109.59L105.857 114.842ZM116.07 97.5612C116.074 86.6614 107.232 77.8326 96.3287 77.8359L96.3305 83.8359C103.924 83.8336 110.073 89.9803 110.07 97.5594L116.07 97.5612ZM96.3287 77.8359C85.4269 77.8393 76.582 86.6713 76.5787 97.5696L82.5787 97.5714C82.581 89.9909 88.7354 83.8382 96.3305 83.8359L96.3287 77.8359ZM76.5787 97.5696C76.5764 105.016 80.7047 111.493 86.7844 114.848L89.6829 109.594C85.4385 107.253 82.5771 102.744 82.5787 97.5714L76.5787 97.5696ZM75.7109 149.851L91.0004 113.381L85.467 111.061L70.1775 147.531L75.7109 149.851ZM119.673 145.676L72.9433 145.691L72.9451 151.691L119.675 151.676L119.673 145.676ZM101.639 113.375L116.907 149.835L122.441 147.518L107.174 111.057L101.639 113.375Z" fill="#303436" mask="url(#path-2-inside-1_2850_1837)"/>
<path d="M47.4241 16.9727C37.6698 20.2757 27.7995 21.9387 17.7765 23.0703" stroke="#303436" stroke-width="3" stroke-miterlimit="10" stroke-linecap="round"/>
<path d="M146.776 167.001C150.683 161.739 154.224 156.241 156.454 151.973" stroke="#303436" stroke-width="3" stroke-linecap="round" stroke-linejoin="round"/>
<path d="M113 28C122.115 32.7913 145.165 42.4638 164.445 42.8231" stroke="#303436" stroke-width="3" stroke-linecap="round"/>
<path d="M192.231 61C191.941 70.9184 190.488 93.8725 187 106.341" stroke="#303436" stroke-width="3" stroke-linecap="round"/>
<path d="M93.6657 3.00423L94.678 1.89671L93.6669 0.972576L92.6547 1.8968L93.6657 3.00423ZM89.9466 6.40008L88.9355 5.29265L88.9348 5.2933L89.9466 6.40008ZM69.1661 21.6952L69.9082 22.9983L69.9083 22.9982L69.1661 21.6952ZM48.7671 30.5373L48.3219 29.1052L48.3212 29.1054L48.7671 30.5373ZM7.16115 37.3111L7.28103 38.8062L7.28152 38.8062L7.16115 37.3111ZM2.10335 37.7197L1.98346 36.2246L0.604136 36.336L0.60335 37.7198L2.10335 37.7197ZM14.3874 134.664C14.6612 135.446 15.5171 135.857 16.2989 135.583C17.0808 135.308 17.4926 134.452 17.2187 133.671L14.3874 134.664ZM46.4414 187.657L47.5591 186.656L47.559 186.656L46.4414 187.657ZM92.2146 218.687L91.8492 220.142L91.8526 220.142L92.2146 218.687ZM93.547 219.017L93.185 220.473L93.5462 220.563L93.9074 220.473L93.547 219.017ZM94.8798 218.686L95.2402 220.142L95.2436 220.141L94.8798 218.686ZM140.688 187.653L139.572 186.651L139.572 186.652L140.688 187.653ZM171.387 134.16L172.802 134.657L172.802 134.657L171.387 134.16ZM185.196 37.7116L186.696 37.7115L186.697 36.3277L185.318 36.2164L185.196 37.7116ZM180.139 37.3034L180.018 38.7985L180.018 38.7985L180.139 37.3034ZM138.541 30.5372L138.988 29.1051L138.988 29.1051L138.541 30.5372ZM118.152 21.6969L117.408 23L117.408 23L118.152 21.6969ZM97.381 6.39975L98.3937 5.29259L98.3933 5.29223L97.381 6.39975ZM20.671 146.639L22.0276 145.998C21.6782 145.258 20.7994 144.935 20.0532 145.272C19.3069 145.61 18.9692 146.484 19.2943 147.235L20.671 146.639ZM14.5562 124.321C14.3114 123.529 13.4713 123.087 12.6799 123.332C11.8885 123.578 11.4454 124.418 11.6903 125.209L14.5562 124.321ZM8.0866 113.011C8.27743 113.817 9.08563 114.315 9.89178 114.124C10.6979 113.933 11.1968 113.124 11.0059 112.318L8.0866 113.011ZM92.6547 1.8968L88.9355 5.29265L90.9577 7.5075L94.6768 4.11166L92.6547 1.8968ZM88.9348 5.2933C82.2574 11.3983 75.5447 16.3328 68.4238 20.3922L69.9083 22.9982C77.2401 18.8186 84.1316 13.7483 90.9584 7.50685L88.9348 5.2933ZM68.4239 20.3921C62.0494 24.0253 55.4768 26.8766 48.3219 29.1052L49.2124 31.9694C56.5704 29.6776 63.3424 26.7405 69.9082 22.9983L68.4239 20.3921ZM48.3212 29.1054C34.8803 33.2987 21.1933 34.6679 7.04077 35.816L7.28152 38.8062C21.434 37.6581 35.4209 36.2721 49.2131 31.9692L48.3212 29.1054ZM7.04126 35.8159L1.98346 36.2246L2.22324 39.2148L7.28103 38.8062L7.04126 35.8159ZM0.60335 37.7198L0.600477 42.7841L3.60048 42.784L3.60335 37.7196L0.60335 37.7198ZM45.3238 188.658C67.9519 213.924 90.7165 219.858 91.8492 220.142L92.5801 217.231C91.8194 217.041 69.6648 211.339 47.5591 186.656L45.3238 188.658ZM91.8526 220.142L93.185 220.473L93.9091 217.561L92.5767 217.231L91.8526 220.142ZM93.9074 220.473L95.2402 220.142L94.5194 217.231L93.1867 217.561L93.9074 220.473ZM95.2436 220.141C96.3767 219.857 119.148 213.922 141.805 188.654L139.572 186.652C117.438 211.336 95.2769 217.041 94.516 217.231L95.2436 220.141ZM141.805 188.654C154.938 174.009 165.359 155.832 172.802 134.657L169.972 133.664C162.64 154.521 152.406 172.34 139.572 186.651L141.805 188.654ZM172.802 134.657C182.011 108.46 186.674 77.541 186.694 42.7759L183.694 42.776C183.674 77.2858 179.044 107.856 169.972 133.664L172.802 134.657ZM186.694 42.7759L186.696 37.7115L183.696 37.7116L183.694 42.776L186.694 42.7759ZM185.318 36.2164L180.261 35.8082L180.018 38.7985L185.075 39.2067L185.318 36.2164ZM180.261 35.8082C166.107 34.6654 152.424 33.2935 138.988 29.1051L138.094 31.9693C151.881 36.2669 165.862 37.6555 180.018 38.7985L180.261 35.8082ZM138.988 29.1051C131.835 26.8771 125.266 24.0264 118.896 20.3937L117.408 23C123.97 26.7417 130.739 29.6782 138.094 31.9694L138.988 29.1051ZM118.896 20.3938C111.772 16.3313 105.069 11.3973 98.3937 5.29259L96.3683 7.5069C103.191 13.7474 110.073 18.8171 117.408 23L118.896 20.3938ZM98.3933 5.29223L94.678 1.89671L92.6534 4.11175L96.3687 7.50726L98.3933 5.29223ZM24.168 157.563C30.1395 169.195 37.2126 179.602 45.3238 188.658L47.559 186.656C39.6321 177.806 32.701 167.614 26.837 156.192L24.168 157.563ZM19.2943 147.235C20.8269 150.777 22.452 154.221 24.168 157.563L26.837 156.192C25.1519 152.91 23.5549 149.525 22.0477 146.042L19.2943 147.235ZM26.8591 156.237L22.0276 145.998L19.3144 147.28L24.1459 157.518L26.8591 156.237ZM11.6903 125.209C12.0504 126.373 12.5064 128.103 12.9881 129.886C13.4601 131.634 13.9591 133.442 14.3874 134.664L17.2187 133.671C16.8337 132.572 16.3636 130.877 15.8844 129.102C15.4148 127.364 14.9375 125.553 14.5562 124.321L11.6903 125.209ZM0.600477 42.7841C0.585941 68.4006 3.09467 91.9255 8.0866 113.011L11.0059 112.318C6.07638 91.4962 3.58605 68.208 3.60048 42.784L0.600477 42.7841Z" fill="#303436"/>
</svg>
